<svg version="1.1" xmlns="http://www.w3.org/2000/svg" xmlns:xlink="http://www.w3.org/1999/xlink" width="1044" height="629"><defs><clipPath id="SffdginrPrqu"><path fill="none" stroke="none" d=" M 0 0 L 1044 0 L 1044 629 L 0 629 L 0 0 Z"/></clipPath></defs><g transform="scale(1,1)" clip-path="url(#SffdginrPrqu)"><g><rect fill="rgb(255,255,255)" stroke="none" x="0" y="0" width="1044" height="629" fill-opacity="1"/><path fill="none" stroke="rgb(37,37,37)" paint-order="fill stroke markers" d=" M 133.5 2.5 L 133.5 629.5" stroke-opacity="1" stroke-miterlimit="10"/><path fill="none" stroke="rgb(37,37,37)" paint-order="fill stroke markers" d=" M 133.5 1.5 L 129.5 5.5" stroke-opacity="1" stroke-miterlimit="10"/><path fill="none" stroke="rgb(37,37,37)" paint-order="fill stroke markers" d=" M 133.5 1.5 L 137.5 5.5" stroke-opacity="1" stroke-miterlimit="10"/><path fill="none" stroke="rgb(37,37,37)" paint-order="fill stroke markers" d=" M 0.5 592.5 L 1042.5 592.5" stroke-opacity="1" stroke-miterlimit="10"/><path fill="none" stroke="rgb(37,37,37)" paint-order="fill stroke markers" d=" M 1043.5 592.5 L 1039.5 588.5" stroke-opacity="1" stroke-miterlimit="10"/><path fill="none" stroke="rgb(37,37,37)" paint-order="fill stroke markers" d=" M 1043.5 592.5 L 1039.5 596.5" stroke-opacity="1" stroke-miterlimit="10"/><path fill="none" stroke="rgb(37,37,37)" paint-order="fill stroke markers" d=" M 28.5 592.5 L 28.5 595.5" stroke-opacity="1" stroke-miterlimit="10"/><path fill="none" stroke="rgb(37,37,37)" paint-order="fill stroke markers" d=" M 81.5 592.5 L 81.5 595.5" stroke-opacity="1" stroke-miterlimit="10"/><path fill="none" stroke="rgb(37,37,37)" paint-order="fill stroke markers" d=" M 133.5 592.5 L 133.5 595.5" stroke-opacity="1" stroke-miterlimit="10"/><path fill="none" stroke="rgb(37,37,37)" paint-order="fill stroke markers" d=" M 186.5 592.5 L 186.5 595.5" stroke-opacity="1" stroke-miterlimit="10"/><path fill="none" stroke="rgb(37,37,37)" paint-order="fill stroke markers" d=" M 239.5 592.5 L 239.5 595.5" stroke-opacity="1" stroke-miterlimit="10"/><path fill="none" stroke="rgb(37,37,37)" paint-order="fill stroke markers" d=" M 292.5 592.5 L 292.5 595.5" stroke-opacity="1" stroke-miterlimit="10"/><path fill="none" stroke="rgb(37,37,37)" paint-order="fill stroke markers" d=" M 345.5 592.5 L 345.5 595.5" stroke-opacity="1" stroke-miterlimit="10"/><path fill="none" stroke="rgb(37,37,37)" paint-order="fill stroke markers" d=" M 397.5 592.5 L 397.5 595.5" stroke-opacity="1" stroke-miterlimit="10"/><path fill="none" stroke="rgb(37,37,37)" paint-order="fill stroke markers" d=" M 450.5 592.5 L 450.5 595.5" stroke-opacity="1" stroke-miterlimit="10"/><path fill="none" stroke="rgb(37,37,37)" paint-order="fill stroke markers" d=" M 503.5 592.5 L 503.5 595.5" stroke-opacity="1" stroke-miterlimit="10"/><path fill="none" stroke="rgb(37,37,37)" paint-order="fill stroke markers" d=" M 556.5 592.5 L 556.5 595.5" stroke-opacity="1" stroke-miterlimit="10"/><path fill="none" stroke="rgb(37,37,37)" paint-order="fill stroke markers" d=" M 609.5 592.5 L 609.5 595.5" stroke-opacity="1" stroke-miterlimit="10"/><path fill="none" stroke="rgb(37,37,37)" paint-order="fill stroke markers" d=" M 662.5 592.5 L 662.5 595.5" stroke-opacity="1" stroke-miterlimit="10"/><path fill="none" stroke="rgb(37,37,37)" paint-order="fill stroke markers" d=" M 714.5 592.5 L 714.5 595.5" stroke-opacity="1" stroke-miterlimit="10"/><path fill="none" stroke="rgb(37,37,37)" paint-order="fill stroke markers" d=" M 767.5 592.5 L 767.5 595.5" stroke-opacity="1" stroke-miterlimit="10"/><path fill="none" stroke="rgb(37,37,37)" paint-order="fill stroke markers" d=" M 820.5 592.5 L 820.5 595.5" stroke-opacity="1" stroke-miterlimit="10"/><path fill="none" stroke="rgb(37,37,37)" paint-order="fill stroke markers" d=" M 873.5 592.5 L 873.5 595.5" stroke-opacity="1" stroke-miterlimit="10"/><path fill="none" stroke="rgb(37,37,37)" paint-order="fill stroke markers" d=" M 926.5 592.5 L 926.5 595.5" stroke-opacity="1" stroke-miterlimit="10"/><path fill="none" stroke="rgb(37,37,37)" paint-order="fill stroke markers" d=" M 979.5 592.5 L 979.5 595.5" stroke-opacity="1" stroke-miterlimit="10"/><path fill="none" stroke="rgb(37,37,37)" paint-order="fill stroke markers" d=" M 1031.5 592.5 L 1031.5 595.5" stroke-opacity="1" stroke-miterlimit="10"/><path fill="none" stroke="rgb(37,37,37)" paint-order="fill stroke markers" d=" M 130.5 522.5 L 133.5 522.5" stroke-opacity="1" stroke-miterlimit="10"/><path fill="none" stroke="rgb(37,37,37)" paint-order="fill stroke markers" d=" M 130.5 452.5 L 133.5 452.5" stroke-opacity="1" stroke-miterlimit="10"/><path fill="none" stroke="rgb(37,37,37)" paint-order="fill stroke markers" d=" M 130.5 381.5 L 133.5 381.5" stroke-opacity="1" stroke-miterlimit="10"/><path fill="none" stroke="rgb(37,37,37)" paint-order="fill stroke markers" d=" M 130.5 311.5 L 133.5 311.5" stroke-opacity="1" stroke-miterlimit="10"/><path fill="none" stroke="rgb(37,37,37)" paint-order="fill stroke markers" d=" M 130.5 241.5 L 133.5 241.5" stroke-opacity="1" stroke-miterlimit="10"/><path fill="none" stroke="rgb(37,37,37)" paint-order="fill stroke markers" d=" M 130.5 171.5 L 133.5 171.5" stroke-opacity="1" stroke-miterlimit="10"/><path fill="none" stroke="rgb(37,37,37)" paint-order="fill stroke markers" d=" M 130.5 101.5 L 133.5 101.5" stroke-opacity="1" stroke-miterlimit="10"/><path fill="none" stroke="rgb(37,37,37)" paint-order="fill stroke markers" d=" M 130.5 30.5 L 133.5 30.5" stroke-opacity="1" stroke-miterlimit="10"/><path fill="none" stroke="rgb(46,125,50)" paint-order="fill stroke markers" d=" M 133.8557444974529 592.53706787731 L 134.578125 582.979933066495 M 134.578125 582.979933066495 L 135.087890625 576.2862619675642 L 135.59765625 569.6344238319585 L 136.107421875 563.0244186596781 L 136.6171875 556.4562464507228 L 137.126953125 549.9299072050927 L 137.63671875 543.4454009227878 L 138.146484375 537.002727603808 L 138.65625 530.6018872481535 M 138.65625 530.6018872481535 L 139.166015625 524.2428798558242 L 139.67578125 517.9257054268201 L 140.185546875 511.650363961141 L 140.6953125 505.41685545878727 L 141.205078125 499.2251799197586 L 141.71484375 493.07533734405524 L 142.224609375 486.967327731677 L 142.734375 480.901151082624 L 143.244140625 474.8768073968961 L 143.75390625 468.89429667449343 L 144.263671875 462.953618915416 L 144.7734375 457.05477411966365 L 145.283203125 451.19776228723657 L 145.79296875 445.38258341813463 L 146.302734375 439.60923751235794 L 146.8125 433.8777245699064 M 146.8125 433.8777245699064 L 147.322265625 428.18804459078 L 147.83203125 422.5401975749789 L 148.341796875 416.9341835225029 L 148.8515625 411.37000243335206 L 149.361328125 405.84765430752645 L 149.87109375 400.36713914502604 L 150.380859375 394.9284569458508 L 150.890625 389.5316077100008 L 151.400390625 384.17659143747596 L 151.91015625 378.86340812827626 L 152.419921875 373.5920577824018 L 152.9296875 368.36254039985255 L 153.439453125 363.1748559806284 L 153.94921875 358.02900452472943 L 154.458984375 352.92498603215574 L 154.96875 347.86280050290725 L 155.98828125 337.86392833438566 L 157.0078125 328.0323880191649 L 158.02734375 318.36817955724484 L 159.046875 308.8713029486256 L 160.06640625 299.54175819330703 L 161.0859375 290.37954529128933 L 162.10546875 281.3846642425723 L 163.125 272.55711504715595 M 163.125 272.55711504715595 L 164.14453125 263.8968977050405 L 165.1640625 255.40401221622562 L 166.18359375 247.07845858071164 L 167.203125 238.9202367984983 L 168.22265625 230.9293468695859 L 169.2421875 223.10578879397406 L 170.26171875 215.4495625716629 L 171.28125 207.96066820265264 L 172.30078125 200.63910568694314 L 173.3203125 193.48487502453435 L 174.33984375 186.49797621542626 L 175.359375 179.678409259619 L 176.37890625 173.0261741571125 L 177.3984375 166.54127090790672 L 178.41796875 160.2236995120017 L 179.4375 154.07345996939733 L 180.45703125 148.0905522800938 L 181.4765625 142.274976444091 L 182.49609375 136.626732461389 L 183.515625 131.14582033198764 L 184.53515625 125.8322400558871 L 185.5546875 120.68599163308727 L 187.59375 110.89549034738997 L 189.6328125 101.77431647489573 L 191.671875 93.32247001560421 L 193.7109375 85.53995096951598 L 195.75 78.42675933663043 M 195.75 78.42675933663043 L 197.7890625 71.98289511694816 L 199.828125 66.20835831046872 L 203.90625 56.66726693711894 L 207.984375 49.80348521658118 L 210.0234375 47.37558547611684 L 212.0625 45.617013148855335 L 213.08203125 44.9887247651759 L 214.1015625 44.52776823479712 L 215.12109375 44.23414355771888 L 216.140625 44.107850733941746 L 217.16015625 44.148889763465036 L 218.1796875 44.357260646289205 L 219.19921875 44.732963382414255 L 220.21875 45.27599797183973 L 222.2578125 46.86406271059343 L 224.296875 49.12145486255008 L 226.3359375 52.04817442770957 L 228.375 55.64422140607212 L 232.453125 64.84429760240641 L 234.4921875 70.44832682037793 L 236.53125 76.7216834515524 L 238.5703125 83.6643674959301 L 240.609375 91.27637895351063 L 242.6484375 99.557717824294 L 244.6875 108.50838410828072 L 246.7265625 118.12837780547034 L 247.74609375 123.18937243401632 L 248.76562500000003 128.417698915863 L 249.78515625 133.81335725101013 L 250.80468750000003 139.37634743945864 L 251.82421875 145.10666948120723 L 252.84375 151.004323376257 L 253.86328125 157.06930912460734 L 254.8828125 163.30162672625858 L 255.90234375 169.70127618121023 L 256.921875 176.26825748946294 L 257.94140625 183.00257065101636 L 258.9609375 189.90421566587048 L 259.98046875 196.97319253402537 L 261 204.2095012554811 M 261 204.2095012554811 L 262.01953125 211.61314183023762 L 263.0390625 219.18411425829464 L 264.05859375 226.9224185396526 L 265.078125 234.82805467431098 L 266.09765625 242.90102266227035 L 267.1171875 251.1413225035305 L 268.13671875 259.5489541980916 L 269.15625 268.1239177459529 L 270.17578125 276.86621314711556 L 271.1953125 285.7758404015786 L 272.21484375 294.85279950934233 L 273.234375 304.0970904704071 L 274.25390625 313.5087132847727 L 275.2734375 323.0876679524386 L 276.29296875 332.8339544734056 L 277.3125 342.7475728476733 L 277.822265625 347.767131479795 L 278.33203125 352.8285230752418 L 278.841796875 357.9317476340132 L 279.3515625 363.0768051561106 L 279.861328125 368.26369564153276 L 280.37109375 373.4924190902808 L 280.880859375 378.76297550235336 L 281.390625 384.07536487775116 L 281.900390625 389.4295872164743 L 282.41015625 394.8256425185225 L 282.919921875 400.26353078389604 L 283.4296875 405.7432520125946 L 283.939453125 411.2648062046185 L 284.44921875 416.8281933599677 L 284.958984375 422.433413478642 L 285.46875 428.08046656064096 L 285.978515625 433.76935260596554 L 286.48828125 439.5000716146159 L 286.998046875 445.27262358659084 L 287.5078125 451.08700852189054 L 288.017578125 456.9432264205159 L 288.52734375 462.84127728246654 L 289.037109375 468.78116110774226 L 289.546875 474.762877896343 L 290.056640625 480.78642764826907 L 290.56640625 486.8518103635205 L 291.076171875 492.959026042097 L 291.5859375 499.1080746839987 L 292.095703125 505.2989562892252 L 292.60546875 511.53167085777767 L 293.115234375 517.8062183896549 L 293.625 524.1225988848573 M 293.625 524.1225988848573 L 294.134765625 530.4808123433845 L 294.64453125 536.8808587652371 L 295.154296875 543.3227381504154 L 295.6640625 549.8064504989186 L 296.173828125 556.3319958107468 L 296.68359375 562.8993740859007 L 297.193359375 569.508585324379 L 297.703125 576.159629526183 M 297.703125 576.159629526183 L 298.3240353993159 584.3173170131253 L 298.9449457986317 592.5370678773099" stroke-opacity="0.8" stroke-linecap="round" stroke-linejoin="round" stroke-miterlimit="10" stroke-width="2.5"/><text fill="rgb(46,125,50)" stroke="none" font-family="geogebra-sans-serif, sans-serif" font-size="16px" font-style="normal" font-weight="normal" text-decoration="normal" x="110" y="506" text-anchor="start" dominant-baseline="alphabetic" fill-opacity="1">s</text><text fill="none" stroke="rgb(255,255,255)" font-family="geogebra-sans-serif, sans-serif" font-size="16px" font-style="normal" font-weight="normal" text-decoration="normal" x="110" y="506" text-anchor="start" dominant-baseline="alphabetic" stroke-opacity="1" stroke-linejoin="bevel" stroke-miterlimit="10" stroke-width="3">s</text><text fill="rgb(46,125,50)" stroke="none" font-family="geogebra-sans-serif, sans-serif" font-size="16px" font-style="normal" font-weight="normal" text-decoration="normal" x="110" y="506" text-anchor="start" dominant-baseline="alphabetic" fill-opacity="1">s</text><path fill="none" stroke="rgb(0,0,0)" paint-order="fill stroke markers" d=" M -5 44.1024212466001 L 1049 44.1024212466001" stroke-opacity="0.24705882352941178" stroke-linejoin="round" stroke-miterlimit="10" stroke-dasharray="9,8"/><path fill="none" stroke="rgb(0,0,0)" paint-order="fill stroke markers" d=" M 216.4003451480423 634 L 216.4003451480423 -5" stroke-opacity="0.24705882352941178" stroke-linejoin="round" stroke-miterlimit="10" stroke-dasharray="9,8"/><path fill="none" stroke="rgb(0,0,0)" paint-order="fill stroke markers" d=" M 298.9449431572046 634 L 298.9449431572046 -5" stroke-opacity="0.24705882352941178" stroke-linejoin="round" stroke-miterlimit="10" stroke-dasharray="9,8"/><path fill="rgb(97,97,97)" stroke="none" paint-order="stroke fill markers" d=" M 135.85574713888002 44.1024212466001 C 135.85574713888002 45.20699074626169 134.9603166385416 46.1024212466001 133.85574713888002 46.1024212466001 C 132.75117763921844 46.1024212466001 131.85574713888002 45.20699074626169 131.85574713888002 44.1024212466001 C 131.85574713888002 42.997851746938515 132.75117763921844 42.1024212466001 133.85574713888002 42.1024212466001 C 134.9603166385416 42.1024212466001 135.85574713888002 42.997851746938515 135.85574713888002 44.1024212466001 Z" fill-opacity="1"/><path fill="none" stroke="rgb(0,0,0)" paint-order="fill stroke markers" d=" M 135.85574713888002 44.1024212466001 C 135.85574713888002 45.20699074626169 134.9603166385416 46.1024212466001 133.85574713888002 46.1024212466001 C 132.75117763921844 46.1024212466001 131.85574713888002 45.20699074626169 131.85574713888002 44.1024212466001 C 131.85574713888002 42.997851746938515 132.75117763921844 42.1024212466001 133.85574713888002 42.1024212466001 C 134.9603166385416 42.1024212466001 135.85574713888002 42.997851746938515 135.85574713888002 44.1024212466001 Z" stroke-opacity="1" stroke-linecap="round" stroke-linejoin="round" stroke-miterlimit="10"/><g transform="scale(19,19)"><g transform="translate(5.686628989968684,3.287376210526316)"><path fill="rgb(97,97,97)" stroke="none" paint-order="stroke fill markers" d=" M 0.23900000000000002 -0.683 L 0.165 -0.382 Q 0.223 -0.442 0.28200000000000003 -0.442 Q 0.357 -0.442 0.394 -0.373 Q 0.41500000000000004 -0.333 0.41500000000000004 -0.28200000000000003 Q 0.41500000000000004 -0.176 0.341 -0.084 Q 0.272 0.001 0.189 0.01 Q 0.181 0.011 0.17400000000000002 0.011 Q 0.10200000000000001 0.011 0.067 -0.056 Q 0.047 -0.094 0.047 -0.146 Q 0.047 -0.18 0.063 -0.247 L 0.145 -0.5730000000000001 Q 0.159 -0.632 0.159 -0.635 Q 0.159 -0.646 0.145 -0.649 L 0.145 -0.649 Q 0.133 -0.652 0.109 -0.652 Q 0.08700000000000001 -0.652 0.085 -0.664 Q 0.085 -0.681 0.10400000000000001 -0.684 L 0.226 -0.6940000000000001 Q 0.23900000000000002 -0.6940000000000001 0.23900000000000002 -0.683 M 0.145 -0.305 L 0.123 -0.213 Q 0.107 -0.15 0.107 -0.112 Q 0.107 -0.026000000000000002 0.159 -0.013000000000000001 Q 0.166 -0.011 0.17400000000000002 -0.011 Q 0.227 -0.011 0.273 -0.081 Q 0.28300000000000003 -0.096 0.292 -0.114 Q 0.319 -0.171 0.337 -0.268 Q 0.343 -0.303 0.343 -0.326 Q 0.343 -0.406 0.294 -0.418 L 0.293 -0.419 Q 0.28700000000000003 -0.42 0.28 -0.42 Q 0.22 -0.42 0.16 -0.34 Q 0.152 -0.33 0.145 -0.305 Z"/></g><g transform="translate(6.115628989968684,2.924484210526316) scale(0.7,0.7)"><path fill="rgb(97,97,97)" stroke="none" paint-order="stroke fill markers" d=" M 0.449 -0.17400000000000002 L 0.449 -0.17400000000000002 L 0.421 0 L 0.05 0 Q 0.05 -0.025 0.056 -0.032 L 0.061 -0.037 L 0.253 -0.251 Q 0.358 -0.369 0.358 -0.47200000000000003 Q 0.358 -0.561 0.304 -0.607 L 0.303 -0.608 L 0.302 -0.608 Q 0.27 -0.635 0.224 -0.635 Q 0.152 -0.635 0.109 -0.5730000000000001 Q 0.097 -0.555 0.089 -0.533 Q 0.092 -0.534 0.10200000000000001 -0.534 Q 0.14200000000000002 -0.534 0.153 -0.498 L 0.153 -0.497 Q 0.155 -0.49 0.155 -0.482 Q 0.155 -0.442 0.117 -0.431 Q 0.109 -0.429 0.10300000000000001 -0.429 Q 0.066 -0.429 0.054 -0.46 Q 0.05 -0.47100000000000003 0.05 -0.485 Q 0.05 -0.562 0.109 -0.617 Q 0.162 -0.666 0.23700000000000002 -0.666 Q 0.34700000000000003 -0.666 0.40800000000000003 -0.592 Q 0.443 -0.549 0.448 -0.49 Q 0.449 -0.481 0.449 -0.47200000000000003 Q 0.449 -0.399 0.394 -0.333 Q 0.365 -0.299 0.304 -0.243 L 0.243 -0.189 L 0.233 -0.18 L 0.127 -0.077 L 0.307 -0.077 Q 0.395 -0.077 0.402 -0.085 Q 0.41200000000000003 -0.099 0.424 -0.17400000000000002 L 0.449 -0.17400000000000002 Z"/></g><rect fill="rgb(97,97,97)" stroke="none" x="5.589237726941052" y="3.693884710526316" width="1" height="0.039999"/><g transform="translate(5.589237726941052,4.649835210526316)"><path fill="rgb(97,97,97)" stroke="none" paint-order="stroke fill markers" d=" M 0.132 -0.328 L 0.132 -0.328 Q 0.17300000000000001 -0.427 0.257 -0.427 Q 0.34900000000000003 -0.427 0.40800000000000003 -0.35100000000000003 Q 0.441 -0.31 0.452 -0.255 Q 0.457 -0.23 0.457 -0.20400000000000001 Q 0.457 -0.093 0.38 -0.026000000000000002 Q 0.324 0.022 0.251 0.022 Q 0.149 0.022 0.092 -0.075 Q 0.042 -0.162 0.042 -0.316 Q 0.042 -0.489 0.14 -0.591 Q 0.213 -0.666 0.305 -0.666 Q 0.392 -0.666 0.422 -0.605 Q 0.432 -0.584 0.432 -0.558 Q 0.432 -0.518 0.395 -0.511 Q 0.39 -0.51 0.386 -0.51 Q 0.354 -0.51 0.343 -0.538 Q 0.34 -0.546 0.34 -0.556 Q 0.34 -0.601 0.395 -0.601 Q 0.369 -0.641 0.307 -0.641 Q 0.23700000000000002 -0.641 0.189 -0.578 Q 0.132 -0.503 0.132 -0.352 L 0.132 -0.328 M 0.251 -0.006 L 0.251 -0.006 Q 0.318 -0.006 0.35000000000000003 -0.07100000000000001 Q 0.367 -0.107 0.367 -0.20500000000000002 Q 0.367 -0.305 0.34900000000000003 -0.342 Q 0.318 -0.404 0.256 -0.404 Q 0.177 -0.404 0.147 -0.31 Q 0.134 -0.271 0.134 -0.226 Q 0.134 -0.128 0.152 -0.081 Q 0.171 -0.035 0.211 -0.015 Q 0.23 -0.006 0.251 -0.006 Z"/></g><g transform="translate(6.089237726941052,4.649835210526316)"><path fill="rgb(97,97,97)" stroke="none" paint-order="stroke fill markers" d=" M 0.028 -0.165 L 0.028 -0.196 L 0.335 -0.665 Q 0.343 -0.677 0.355 -0.677 Q 0.369 -0.677 0.371 -0.666 L 0.371 -0.651 L 0.371 -0.196 L 0.47100000000000003 -0.196 L 0.47100000000000003 -0.165 L 0.371 -0.165 L 0.371 -0.078 Q 0.371 -0.047 0.383 -0.04 Q 0.397 -0.031 0.447 -0.031 L 0.468 -0.031 L 0.468 0 Q 0.427 -0.003 0.332 -0.003 Q 0.23800000000000002 -0.003 0.197 0 L 0.197 -0.031 L 0.218 -0.031 Q 0.28 -0.031 0.29 -0.048 Q 0.294 -0.055 0.294 -0.078 L 0.294 -0.165 L 0.028 -0.165 M 0.3 -0.196 L 0.3 -0.5690000000000001 L 0.056 -0.196 L 0.3 -0.196 Z"/></g></g><path fill="rgb(97,97,97)" stroke="none" paint-order="stroke fill markers" d=" M 300.9449431572046 592.5370327774943 C 300.9449431572046 593.6416022771559 300.04951265686617 594.5370327774943 298.9449431572046 594.5370327774943 C 297.840373657543 594.5370327774943 296.9449431572046 593.6416022771559 296.9449431572046 592.5370327774943 C 296.9449431572046 591.4324632778328 297.840373657543 590.5370327774943 298.9449431572046 590.5370327774943 C 300.04951265686617 590.5370327774943 300.9449431572046 591.4324632778328 300.9449431572046 592.5370327774943 Z" fill-opacity="1"/><path fill="none" stroke="rgb(0,0,0)" paint-order="fill stroke markers" d=" M 300.9449431572046 592.5370327774943 C 300.9449431572046 593.6416022771559 300.04951265686617 594.5370327774943 298.9449431572046 594.5370327774943 C 297.840373657543 594.5370327774943 296.9449431572046 593.6416022771559 296.9449431572046 592.5370327774943 C 296.9449431572046 591.4324632778328 297.840373657543 590.5370327774943 298.9449431572046 590.5370327774943 C 300.04951265686617 590.5370327774943 300.9449431572046 591.4324632778328 300.9449431572046 592.5370327774943 Z" stroke-opacity="1" stroke-linecap="round" stroke-linejoin="round" stroke-miterlimit="10"/><g transform="scale(19,19)"><g transform="translate(16.61157983220421,29.430842105263157)"><path fill="rgb(97,97,97)" stroke="none" paint-order="stroke fill markers" d=" M 0.23900000000000002 -0.683 L 0.165 -0.382 Q 0.223 -0.442 0.28200000000000003 -0.442 Q 0.357 -0.442 0.394 -0.373 Q 0.41500000000000004 -0.333 0.41500000000000004 -0.28200000000000003 Q 0.41500000000000004 -0.176 0.341 -0.084 Q 0.272 0.001 0.189 0.01 Q 0.181 0.011 0.17400000000000002 0.011 Q 0.10200000000000001 0.011 0.067 -0.056 Q 0.047 -0.094 0.047 -0.146 Q 0.047 -0.18 0.063 -0.247 L 0.145 -0.5730000000000001 Q 0.159 -0.632 0.159 -0.635 Q 0.159 -0.646 0.145 -0.649 L 0.145 -0.649 Q 0.133 -0.652 0.109 -0.652 Q 0.08700000000000001 -0.652 0.085 -0.664 Q 0.085 -0.681 0.10400000000000001 -0.684 L 0.226 -0.6940000000000001 Q 0.23900000000000002 -0.6940000000000001 0.23900000000000002 -0.683 M 0.145 -0.305 L 0.123 -0.213 Q 0.107 -0.15 0.107 -0.112 Q 0.107 -0.026000000000000002 0.159 -0.013000000000000001 Q 0.166 -0.011 0.17400000000000002 -0.011 Q 0.227 -0.011 0.273 -0.081 Q 0.28300000000000003 -0.096 0.292 -0.114 Q 0.319 -0.171 0.337 -0.268 Q 0.343 -0.303 0.343 -0.326 Q 0.343 -0.406 0.294 -0.418 L 0.293 -0.419 Q 0.28700000000000003 -0.42 0.28 -0.42 Q 0.22 -0.42 0.16 -0.34 Q 0.152 -0.33 0.145 -0.305 Z"/></g><rect fill="rgb(97,97,97)" stroke="none" x="16.32607983220421" y="29.837350605263158" width="0.9999999999999999" height="0.039999"/><g transform="translate(16.32607983220421,30.793301105263158)"><path fill="rgb(97,97,97)" stroke="none" paint-order="stroke fill markers" d=" M 0.294 -0.64 L 0.294 -0.079 Q 0.294 -0.049 0.306 -0.041 Q 0.323 -0.031 0.387 -0.031 L 0.419 -0.031 L 0.419 0 Q 0.384 -0.003 0.257 -0.003 Q 0.13 -0.003 0.095 0 L 0.095 -0.031 L 0.127 -0.031 Q 0.20400000000000001 -0.031 0.215 -0.049 L 0.216 -0.05 Q 0.22 -0.058 0.22 -0.079 L 0.22 -0.597 Q 0.168 -0.5710000000000001 0.089 -0.5710000000000001 L 0.089 -0.602 Q 0.209 -0.602 0.271 -0.666 Q 0.29 -0.666 0.293 -0.659 L 0.293 -0.659 L 0.293 -0.658 Q 0.294 -0.655 0.294 -0.64 Z"/></g><g transform="translate(16.82607983220421,30.793301105263158)"><path fill="rgb(97,97,97)" stroke="none" paint-order="stroke fill markers" d=" M 0.132 -0.328 L 0.132 -0.328 Q 0.17300000000000001 -0.427 0.257 -0.427 Q 0.34900000000000003 -0.427 0.40800000000000003 -0.35100000000000003 Q 0.441 -0.31 0.452 -0.255 Q 0.457 -0.23 0.457 -0.20400000000000001 Q 0.457 -0.093 0.38 -0.026000000000000002 Q 0.324 0.022 0.251 0.022 Q 0.149 0.022 0.092 -0.075 Q 0.042 -0.162 0.042 -0.316 Q 0.042 -0.489 0.14 -0.591 Q 0.213 -0.666 0.305 -0.666 Q 0.392 -0.666 0.422 -0.605 Q 0.432 -0.584 0.432 -0.558 Q 0.432 -0.518 0.395 -0.511 Q 0.39 -0.51 0.386 -0.51 Q 0.354 -0.51 0.343 -0.538 Q 0.34 -0.546 0.34 -0.556 Q 0.34 -0.601 0.395 -0.601 Q 0.369 -0.641 0.307 -0.641 Q 0.23700000000000002 -0.641 0.189 -0.578 Q 0.132 -0.503 0.132 -0.352 L 0.132 -0.328 M 0.251 -0.006 L 0.251 -0.006 Q 0.318 -0.006 0.35000000000000003 -0.07100000000000001 Q 0.367 -0.107 0.367 -0.20500000000000002 Q 0.367 -0.305 0.34900000000000003 -0.342 Q 0.318 -0.404 0.256 -0.404 Q 0.177 -0.404 0.147 -0.31 Q 0.134 -0.271 0.134 -0.226 Q 0.134 -0.128 0.152 -0.081 Q 0.171 -0.035 0.211 -0.015 Q 0.23 -0.006 0.251 -0.006 Z"/></g></g><path fill="rgb(97,97,97)" stroke="none" paint-order="stroke fill markers" d=" M 218.4003451480423 592.5370327774943 C 218.4003451480423 593.6416022771559 217.50491464770388 594.5370327774943 216.4003451480423 594.5370327774943 C 215.29577564838073 594.5370327774943 214.4003451480423 593.6416022771559 214.4003451480423 592.5370327774943 C 214.4003451480423 591.4324632778328 215.29577564838073 590.5370327774943 216.4003451480423 590.5370327774943 C 217.50491464770388 590.5370327774943 218.4003451480423 591.4324632778328 218.4003451480423 592.5370327774943 Z" fill-opacity="1"/><path fill="none" stroke="rgb(0,0,0)" paint-order="fill stroke markers" d=" M 218.4003451480423 592.5370327774943 C 218.4003451480423 593.6416022771559 217.50491464770388 594.5370327774943 216.4003451480423 594.5370327774943 C 215.29577564838073 594.5370327774943 214.4003451480423 593.6416022771559 214.4003451480423 592.5370327774943 C 214.4003451480423 591.4324632778328 215.29577564838073 590.5370327774943 216.4003451480423 590.5370327774943 C 217.50491464770388 590.5370327774943 218.4003451480423 591.4324632778328 218.4003451480423 592.5370327774943 Z" stroke-opacity="1" stroke-linecap="round" stroke-linejoin="round" stroke-miterlimit="10"/><g transform="scale(19,19)"><g transform="translate(11.927369305888423,29.32557894736842)"><path fill="rgb(97,97,97)" stroke="none" paint-order="stroke fill markers" d=" M 0.23900000000000002 -0.683 L 0.165 -0.382 Q 0.223 -0.442 0.28200000000000003 -0.442 Q 0.357 -0.442 0.394 -0.373 Q 0.41500000000000004 -0.333 0.41500000000000004 -0.28200000000000003 Q 0.41500000000000004 -0.176 0.341 -0.084 Q 0.272 0.001 0.189 0.01 Q 0.181 0.011 0.17400000000000002 0.011 Q 0.10200000000000001 0.011 0.067 -0.056 Q 0.047 -0.094 0.047 -0.146 Q 0.047 -0.18 0.063 -0.247 L 0.145 -0.5730000000000001 Q 0.159 -0.632 0.159 -0.635 Q 0.159 -0.646 0.145 -0.649 L 0.145 -0.649 Q 0.133 -0.652 0.109 -0.652 Q 0.08700000000000001 -0.652 0.085 -0.664 Q 0.085 -0.681 0.10400000000000001 -0.684 L 0.226 -0.6940000000000001 Q 0.23900000000000002 -0.6940000000000001 0.23900000000000002 -0.683 M 0.145 -0.305 L 0.123 -0.213 Q 0.107 -0.15 0.107 -0.112 Q 0.107 -0.026000000000000002 0.159 -0.013000000000000001 Q 0.166 -0.011 0.17400000000000002 -0.011 Q 0.227 -0.011 0.273 -0.081 Q 0.28300000000000003 -0.096 0.292 -0.114 Q 0.319 -0.171 0.337 -0.268 Q 0.343 -0.303 0.343 -0.326 Q 0.343 -0.406 0.294 -0.418 L 0.293 -0.419 Q 0.28700000000000003 -0.42 0.28 -0.42 Q 0.22 -0.42 0.16 -0.34 Q 0.152 -0.33 0.145 -0.305 Z"/></g><rect fill="rgb(97,97,97)" stroke="none" x="11.641869305888422" y="29.73208744736842" width="0.9999999999999999" height="0.039999"/><g transform="translate(11.641869305888422,30.68803794736842)"><path fill="rgb(97,97,97)" stroke="none" paint-order="stroke fill markers" d=" M 0.29 -0.352 L 0.29 -0.352 Q 0.39 -0.332 0.434 -0.254 Q 0.457 -0.215 0.457 -0.171 Q 0.457 -0.08600000000000001 0.387 -0.028 Q 0.326 0.022 0.244 0.022 Q 0.145 0.022 0.085 -0.037 Q 0.042 -0.079 0.042 -0.135 Q 0.042 -0.182 0.084 -0.191 Q 0.091 -0.193 0.098 -0.193 Q 0.136 -0.193 0.149 -0.161 Q 0.153 -0.148 0.154 -0.137 Q 0.154 -0.097 0.11800000000000001 -0.085 Q 0.10400000000000001 -0.08 0.088 -0.082 Q 0.125 -0.02 0.216 -0.008 Q 0.229 -0.006 0.241 -0.006 Q 0.305 -0.006 0.335 -0.069 Q 0.354 -0.109 0.354 -0.171 Q 0.354 -0.304 0.274 -0.331 Q 0.256 -0.337 0.23500000000000001 -0.337 L 0.191 -0.337 Q 0.169 -0.337 0.167 -0.34800000000000003 Q 0.167 -0.358 0.182 -0.36 Q 0.197 -0.36 0.221 -0.363 Q 0.272 -0.365 0.301 -0.402 L 0.301 -0.403 L 0.302 -0.404 L 0.303 -0.405 L 0.304 -0.405 L 0.31 -0.41500000000000004 Q 0.338 -0.462 0.338 -0.529 Q 0.338 -0.622 0.266 -0.638 Q 0.254 -0.641 0.242 -0.641 Q 0.17200000000000001 -0.641 0.128 -0.601 Q 0.117 -0.591 0.109 -0.579 Q 0.171 -0.579 0.171 -0.529 Q 0.171 -0.493 0.14 -0.481 Q 0.131 -0.47800000000000004 0.12 -0.47800000000000004 Q 0.081 -0.47800000000000004 0.07100000000000001 -0.513 L 0.07100000000000001 -0.513 L 0.07100000000000001 -0.514 Q 0.069 -0.522 0.069 -0.53 Q 0.069 -0.597 0.135 -0.637 Q 0.183 -0.666 0.246 -0.666 Q 0.337 -0.666 0.393 -0.612 L 0.395 -0.61 Q 0.43 -0.5740000000000001 0.43 -0.528 Q 0.43 -0.445 0.359 -0.389 Q 0.328 -0.365 0.29 -0.352 Z"/></g><g transform="translate(12.141869305888422,30.68803794736842)"><path fill="rgb(97,97,97)" stroke="none" paint-order="stroke fill markers" d=" M 0.449 -0.17400000000000002 L 0.449 -0.17400000000000002 L 0.421 0 L 0.05 0 Q 0.05 -0.025 0.056 -0.032 L 0.061 -0.037 L 0.253 -0.251 Q 0.358 -0.369 0.358 -0.47200000000000003 Q 0.358 -0.561 0.304 -0.607 L 0.303 -0.608 L 0.302 -0.608 Q 0.27 -0.635 0.224 -0.635 Q 0.152 -0.635 0.109 -0.5730000000000001 Q 0.097 -0.555 0.089 -0.533 Q 0.092 -0.534 0.10200000000000001 -0.534 Q 0.14200000000000002 -0.534 0.153 -0.498 L 0.153 -0.497 Q 0.155 -0.49 0.155 -0.482 Q 0.155 -0.442 0.117 -0.431 Q 0.109 -0.429 0.10300000000000001 -0.429 Q 0.066 -0.429 0.054 -0.46 Q 0.05 -0.47100000000000003 0.05 -0.485 Q 0.05 -0.562 0.109 -0.617 Q 0.162 -0.666 0.23700000000000002 -0.666 Q 0.34700000000000003 -0.666 0.40800000000000003 -0.592 Q 0.443 -0.549 0.448 -0.49 Q 0.449 -0.481 0.449 -0.47200000000000003 Q 0.449 -0.399 0.394 -0.333 Q 0.365 -0.299 0.304 -0.243 L 0.243 -0.189 L 0.233 -0.18 L 0.127 -0.077 L 0.307 -0.077 Q 0.395 -0.077 0.402 -0.085 Q 0.41200000000000003 -0.099 0.424 -0.17400000000000002 L 0.449 -0.17400000000000002 Z"/></g></g></g></g></svg>