<svg xmlns="http://www.w3.org/2000/svg" xmlns:xlink="http://www.w3.org/1999/xlink" x="0" y="0" width="662" height="404" style="
        width:662px;
        height:404px;
        background: #FFF;
        fill: none;
">
        <svg xmlns="http://www.w3.org/2000/svg"/>
        
        <svg xmlns="http://www.w3.org/2000/svg" class="role-diagram-draw-area"><g class="shapes-region" style="stroke: black; fill: none;"><g class="composite-shape" data-amt="diagram/shapes/plot" transform="matrix(1,0,0,1,115,22)"><g><g/><g><g class="test-xti" style="font-family: Asana-Math, Asana;"><line x1="0" y1="202" x2="426" y2="202" fill="none" stroke="rgb(50,50,50)" stroke-opacity="1" stroke-width="1"/><line x1="24.500000000000018" y1="198" x2="24.500000000000018" y2="206" fill="none" stroke="rgb(50,50,50)" stroke-opacity="1" stroke-width="1"/><line x1="62.800000000000004" y1="198" x2="62.800000000000004" y2="206" fill="none" stroke="rgb(50,50,50)" stroke-opacity="1" stroke-width="1"/><line x1="101.10000000000001" y1="198" x2="101.10000000000001" y2="206" fill="none" stroke="rgb(50,50,50)" stroke-opacity="1" stroke-width="1"/><line x1="139.4" y1="198" x2="139.4" y2="206" fill="none" stroke="rgb(50,50,50)" stroke-opacity="1" stroke-width="1"/><line x1="177.7" y1="198" x2="177.7" y2="206" fill="none" stroke="rgb(50,50,50)" stroke-opacity="1" stroke-width="1"/><line x1="254.29999999999998" y1="198" x2="254.29999999999998" y2="206" fill="none" stroke="rgb(50,50,50)" stroke-opacity="1" stroke-width="1"/><line x1="292.59999999999997" y1="198" x2="292.59999999999997" y2="206" fill="none" stroke="rgb(50,50,50)" stroke-opacity="1" stroke-width="1"/><line x1="330.90000000000003" y1="198" x2="330.90000000000003" y2="206" fill="none" stroke="rgb(50,50,50)" stroke-opacity="1" stroke-width="1"/><line x1="369.2" y1="198" x2="369.2" y2="206" fill="none" stroke="rgb(50,50,50)" stroke-opacity="1" stroke-width="1"/><line x1="407.49999999999994" y1="198" x2="407.49999999999994" y2="206" fill="none" stroke="rgb(50,50,50)" stroke-opacity="1" stroke-width="1"/><path d="M421,198.4 L429,202 L421,205.6 Z" stroke="none" stroke-width="1" fill="rgb(50,50,50)" fill-opacity="1"/></g><g class="test-yti" style="font-family: Asana-Math, Asana;"><line x1="216" y1="4" x2="216" y2="363" fill="none" stroke="rgb(50,50,50)" stroke-opacity="1" stroke-width="1"/><line x1="212" y1="354.8" x2="220" y2="354.8" fill="none" stroke="rgb(50,50,50)" stroke-opacity="1" stroke-width="1"/><line x1="212" y1="316.6" x2="220" y2="316.6" fill="none" stroke="rgb(50,50,50)" stroke-opacity="1" stroke-width="1"/><line x1="212" y1="278.4" x2="220" y2="278.4" fill="none" stroke="rgb(50,50,50)" stroke-opacity="1" stroke-width="1"/><line x1="212" y1="240.2" x2="220" y2="240.2" fill="none" stroke="rgb(50,50,50)" stroke-opacity="1" stroke-width="1"/><line x1="212" y1="163.79999999999998" x2="220" y2="163.79999999999998" fill="none" stroke="rgb(50,50,50)" stroke-opacity="1" stroke-width="1"/><line x1="212" y1="125.59999999999997" x2="220" y2="125.59999999999997" fill="none" stroke="rgb(50,50,50)" stroke-opacity="1" stroke-width="1"/><line x1="212" y1="87.39999999999998" x2="220" y2="87.39999999999998" fill="none" stroke="rgb(50,50,50)" stroke-opacity="1" stroke-width="1"/><line x1="212" y1="49.19999999999993" x2="220" y2="49.19999999999993" fill="none" stroke="rgb(50,50,50)" stroke-opacity="1" stroke-width="1"/><line x1="212" y1="10.999999999999886" x2="220" y2="10.999999999999886" fill="none" stroke="rgb(50,50,50)" stroke-opacity="1" stroke-width="1"/><path d="M212.4,9 L216,1 L219.6,9 Z" stroke="none" stroke-width="1" fill="rgb(50,50,50)" fill-opacity="1"/></g><g class="test-plot-expression"><defs><clipPath id="cp64jczx6qr"><rect x="1" y="1" width="428" height="361"/></clipPath></defs><g clip-path="url(#cp64jczx6qr)"/></g><g class="test-xtl" style="font-family: &quot;Open Sans&quot;, verdana, arial, sans-serif;"/><g class="test-ytl" style="font-family: &quot;Open Sans&quot;, verdana, arial, sans-serif;"/><rect class="real" x="1" y="1" width="428" height="361" style="fill: transparent; stroke: none;"/></g></g></g><g class="arrow-line"><path class="connection real" stroke-dasharray="" d="  M221,384.5 C224,347.5 277,123.5 303,156.5" style="stroke: rgb(0, 0, 0); stroke-width: 1; fill: none; fill-opacity: 1;"/></g><g class="arrow-line"><path class="connection real" stroke-dasharray="" d="  M303,156.5 C320,186.5 333,330.5 373,300.5" style="stroke: rgb(0, 0, 0); stroke-width: 1; fill: none; fill-opacity: 1;"/></g><g class="arrow-line"><path class="connection real" stroke-dasharray="" d="  M373,300.5 C413,270.5 458,30.5 458,16.5" style="stroke: rgb(0, 0, 0); stroke-width: 1; fill: none; fill-opacity: 1;"/></g><g/></g><g/><g/><g/></svg>
        <svg xmlns="http://www.w3.org/2000/svg" xmlns:xlink="http://www.w3.org/1999/xlink" width="660" height="402" style="width:660px;height:402px;font-family:Asana-Math, Asana;background:#FFF;"></svg>
</svg>
