<svg version="1.1" xmlns="http://www.w3.org/2000/svg" xmlns:xlink="http://www.w3.org/1999/xlink" width="1044" height="682"><defs><clipPath id="vwfLwFbWOIII"><path fill="none" stroke="none" d=" M 0 0 L 1044 0 L 1044 682 L 0 682 L 0 0 Z"/></clipPath></defs><g transform="scale(1,1)" clip-path="url(#vwfLwFbWOIII)"><g><rect fill="rgb(255,255,255)" stroke="none" x="0" y="0" width="1044" height="682" fill-opacity="1"/><path fill="none" stroke="rgb(37,37,37)" paint-order="fill stroke markers" d=" M 463.5 2.5 L 463.5 682.5" stroke-opacity="1" stroke-miterlimit="10"/><path fill="none" stroke="rgb(37,37,37)" paint-order="fill stroke markers" d=" M 463.5 1.5 L 459.5 5.5" stroke-opacity="1" stroke-miterlimit="10"/><path fill="none" stroke="rgb(37,37,37)" paint-order="fill stroke markers" d=" M 463.5 1.5 L 467.5 5.5" stroke-opacity="1" stroke-miterlimit="10"/><path fill="none" stroke="rgb(37,37,37)" paint-order="fill stroke markers" d=" M 0.5 372.5 L 1042.5 372.5" stroke-opacity="1" stroke-miterlimit="10"/><path fill="none" stroke="rgb(37,37,37)" paint-order="fill stroke markers" d=" M 1043.5 372.5 L 1039.5 368.5" stroke-opacity="1" stroke-miterlimit="10"/><path fill="none" stroke="rgb(37,37,37)" paint-order="fill stroke markers" d=" M 1043.5 372.5 L 1039.5 376.5" stroke-opacity="1" stroke-miterlimit="10"/><path fill="none" stroke="rgb(46,125,50)" paint-order="fill stroke markers" d=" M 715.2243141353935 372.33333333333337 C 715.2243141353935 511.2647857336219 602.5981190669555 623.89098080206 463.66666666666697 623.89098080206 C 324.7352142663784 623.89098080206 212.10901919794046 511.2647857336219 212.10901919794046 372.33333333333337 C 212.10901919794046 233.4018809330448 324.7352142663784 120.77568586460677 463.66666666666697 120.77568586460677 C 602.5981190669555 120.77568586460677 715.2243141353935 233.4018809330448 715.2243141353935 372.33333333333337 Z" stroke-opacity="0.8" stroke-linecap="round" stroke-linejoin="round" stroke-miterlimit="10" stroke-width="2.5"/><text fill="rgb(46,125,50)" stroke="none" font-family="geogebra-sans-serif, sans-serif" font-size="16px" font-style="normal" font-weight="normal" text-decoration="normal" x="337" y="178" text-anchor="start" dominant-baseline="alphabetic" fill-opacity="1">eq1</text><text fill="none" stroke="rgb(255,255,255)" font-family="geogebra-sans-serif, sans-serif" font-size="16px" font-style="normal" font-weight="normal" text-decoration="normal" x="337" y="178" text-anchor="start" dominant-baseline="alphabetic" stroke-opacity="1" stroke-linejoin="bevel" stroke-miterlimit="10" stroke-width="3">eq1</text><text fill="rgb(46,125,50)" stroke="none" font-family="geogebra-sans-serif, sans-serif" font-size="16px" font-style="normal" font-weight="normal" text-decoration="normal" x="337" y="178" text-anchor="start" dominant-baseline="alphabetic" fill-opacity="1">eq1</text><path fill="none" stroke="rgb(219,97,20)" paint-order="fill stroke markers" d=" M 463.666665541667 372.33333333333337 L 464.90625 372.33333333333337 M 464.90625 372.33333333333337 L 468.984375 372.33333333333337 L 473.0625 372.33333333333337 M 473.0625 372.33333333333337 L 477.140625 372.33333333333337 L 481.21875 372.33333333333337 L 485.296875 372.33333333333337 L 489.375 372.33333333333337 M 489.375 372.33333333333337 L 493.453125 372.33333333333337 L 497.53125 372.33333333333337 L 501.609375 372.33333333333337 L 505.6875 372.33333333333337 L 509.765625 372.33333333333337 L 513.84375 372.33333333333337 L 517.921875 372.33333333333337 L 522 372.33333333333337 M 522 372.33333333333337 L 526.078125 372.33333333333337 L 530.15625 372.33333333333337 L 534.234375 372.33333333333337 L 538.3125 372.33333333333337 L 542.390625 372.33333333333337 L 546.46875 372.33333333333337 L 550.546875 372.33333333333337 L 554.625 372.33333333333337 L 558.703125 372.33333333333337 L 562.78125 372.33333333333337 L 566.859375 372.33333333333337 L 570.9375 372.33333333333337 L 575.015625 372.33333333333337 L 579.09375 372.33333333333337 L 583.171875 372.33333333333337 L 587.25 372.33333333333337 L 591.328125 372.33333333333337 L 595.40625 372.33333333333337 L 599.484375 372.33333333333337 L 603.5625 372.33333333333337 L 607.640625 372.33333333333337 L 611.71875 372.33333333333337 L 615.796875 372.33333333333337 L 619.875 372.33333333333337 L 623.953125 372.33333333333337 L 628.03125 372.33333333333337 L 632.109375 372.33333333333337 L 636.1875 372.33333333333337 L 640.265625 372.33333333333337 L 644.34375 372.33333333333337 L 648.421875 372.33333333333337 L 652.5 372.33333333333337 M 652.5 372.33333333333337 L 656.578125 372.33333333333337 L 660.65625 372.33333333333337 L 664.734375 372.33333333333337 L 668.8125 372.33333333333337 L 672.890625 372.33333333333337 L 676.96875 372.33333333333337 L 681.046875 372.33333333333337 L 685.125 372.33333333333337 M 685.125 372.33333333333337 L 689.203125 372.33333333333337 L 693.28125 372.33333333333337 L 697.359375 372.33333333333337 L 701.4375 372.33333333333337 M 701.4375 372.33333333333337 L 705.515625 372.33333333333337 L 709.59375 372.33333333333337 M 709.59375 372.33333333333337 L 713.671875 372.33333333333337 M 713.671875 372.33333333333337 L 715.2243152603935 372.33333333333337" stroke-opacity="0.8" stroke-linecap="round" stroke-linejoin="round" stroke-miterlimit="10" stroke-width="2.5"/><text fill="rgb(219,97,20)" stroke="none" font-family="geogebra-sans-serif, sans-serif" font-size="16px" font-style="normal" font-weight="normal" text-decoration="normal" x="544" y="365" text-anchor="start" dominant-baseline="alphabetic" fill-opacity="1">R</text><text fill="none" stroke="rgb(255,255,255)" font-family="geogebra-sans-serif, sans-serif" font-size="16px" font-style="normal" font-weight="normal" text-decoration="normal" x="544" y="365" text-anchor="start" dominant-baseline="alphabetic" stroke-opacity="1" stroke-linejoin="bevel" stroke-miterlimit="10" stroke-width="3">R</text><text fill="rgb(219,97,20)" stroke="none" font-family="geogebra-sans-serif, sans-serif" font-size="16px" font-style="normal" font-weight="normal" text-decoration="normal" x="544" y="365" text-anchor="start" dominant-baseline="alphabetic" fill-opacity="1">R</text><path fill="none" stroke="rgb(97,97,97)" paint-order="fill stroke markers" d=" M 463.666665541667 259.83333333333326 L 464.90625 259.83333333333326 M 464.90625 259.83333333333326 L 468.984375 259.83333333333326 L 473.0625 259.83333333333326 M 473.0625 259.83333333333326 L 477.140625 259.83333333333326 L 481.21875 259.83333333333326 L 485.296875 259.83333333333326 L 489.375 259.83333333333326 M 489.375 259.83333333333326 L 493.453125 259.83333333333326 L 497.53125 259.83333333333326 L 501.609375 259.83333333333326 L 505.6875 259.83333333333326 L 509.765625 259.83333333333326 L 513.84375 259.83333333333326 L 517.921875 259.83333333333326 L 522 259.83333333333326 M 522 259.83333333333326 L 526.078125 259.83333333333326 L 530.15625 259.83333333333326 L 534.234375 259.83333333333326 L 538.3125 259.83333333333326 L 542.390625 259.83333333333326 L 546.46875 259.83333333333326 L 550.546875 259.83333333333326 L 554.625 259.83333333333326 L 558.703125 259.83333333333326 L 562.78125 259.83333333333326 L 566.859375 259.83333333333326 L 570.9375 259.83333333333326 L 575.015625 259.83333333333326 L 579.09375 259.83333333333326 L 583.171875 259.83333333333326 L 587.25 259.83333333333326 L 591.328125 259.83333333333326 L 595.40625 259.83333333333326 L 599.484375 259.83333333333326 L 603.5625 259.83333333333326 L 607.640625 259.83333333333326 L 611.71875 259.83333333333326 L 615.796875 259.83333333333326 L 619.875 259.83333333333326 L 623.953125 259.83333333333326 L 628.03125 259.83333333333326 L 632.109375 259.83333333333326 L 636.1875 259.83333333333326 L 640.265625 259.83333333333326 L 644.34375 259.83333333333326 L 648.421875 259.83333333333326 L 652.5 259.83333333333326 M 652.5 259.83333333333326 L 656.578125 259.83333333333326 L 660.65625 259.83333333333326 L 664.734375 259.83333333333326 L 668.8125 259.83333333333326 L 672.890625 259.83333333333326 L 676.96875 259.83333333333326 L 681.046875 259.83333333333326 L 685.125 259.83333333333326 M 685.125 259.83333333333326 L 688.6666677916671 259.83333333333326" stroke-opacity="0.8" stroke-linecap="round" stroke-linejoin="round" stroke-miterlimit="10" stroke-width="2.5"/><text fill="rgb(97,97,97)" stroke="none" font-family="geogebra-sans-serif, sans-serif" font-size="16px" font-style="normal" font-weight="normal" text-decoration="normal" x="544" y="254" text-anchor="start" dominant-baseline="alphabetic" fill-opacity="1">r</text><text fill="none" stroke="rgb(255,255,255)" font-family="geogebra-sans-serif, sans-serif" font-size="16px" font-style="normal" font-weight="normal" text-decoration="normal" x="544" y="254" text-anchor="start" dominant-baseline="alphabetic" stroke-opacity="1" stroke-linejoin="bevel" stroke-miterlimit="10" stroke-width="3">r</text><text fill="rgb(97,97,97)" stroke="none" font-family="geogebra-sans-serif, sans-serif" font-size="16px" font-style="normal" font-weight="normal" text-decoration="normal" x="544" y="254" text-anchor="start" dominant-baseline="alphabetic" fill-opacity="1">r</text><text fill="rgb(255,51,102)" stroke="none" font-family="geogebra-sans-serif, sans-serif" font-size="16px" font-style="normal" font-weight="normal" text-decoration="normal" x="611" y="313" text-anchor="start" dominant-baseline="alphabetic" fill-opacity="1">R</text><text fill="none" stroke="rgb(255,255,255)" font-family="geogebra-sans-serif, sans-serif" font-size="16px" font-style="normal" font-weight="normal" text-decoration="normal" x="611" y="313" text-anchor="start" dominant-baseline="alphabetic" stroke-opacity="1" stroke-linejoin="bevel" stroke-miterlimit="10" stroke-width="3">R</text><text fill="rgb(255,51,102)" stroke="none" font-family="geogebra-sans-serif, sans-serif" font-size="16px" font-style="normal" font-weight="normal" text-decoration="normal" x="611" y="313" text-anchor="start" dominant-baseline="alphabetic" fill-opacity="1">R</text><path fill="none" stroke="rgb(255,51,102)" paint-order="fill stroke markers" d=" M 463.66666666666697 372.33333333333337 L 688.6666666666671 259.83333333333326" stroke-opacity="0.6980392156862745" stroke-linecap="round" stroke-linejoin="round" stroke-miterlimit="10" stroke-width="2.5"/><path fill="none" stroke="rgb(0,102,153)" paint-order="fill stroke markers" d=" M 463.66666666666697 372.33333333333337 L 463.66666666666697 259.83333333333326" stroke-opacity="0.6980392156862745" stroke-linecap="round" stroke-linejoin="round" stroke-miterlimit="10" stroke-width="2.5"/><path fill="none" stroke="rgb(0,204,0)" paint-order="fill stroke markers" d=" M 463.66666666666697 259.83333333333326 L 463.66666666666697 120.77568586460677" stroke-opacity="0.6980392156862745" stroke-linecap="round" stroke-linejoin="round" stroke-miterlimit="10" stroke-width="2.5"/><text fill="rgb(0,204,0)" stroke="none" font-family="geogebra-sans-serif, sans-serif" font-size="16px" font-style="normal" font-weight="normal" text-decoration="normal" x="435" y="195" text-anchor="start" dominant-baseline="alphabetic" fill-opacity="1">h</text><text fill="rgb(0,102,153)" stroke="none" font-family="geogebra-sans-serif, sans-serif" font-size="16px" font-style="normal" font-weight="normal" text-decoration="normal" x="413" y="322" text-anchor="start" dominant-baseline="alphabetic" fill-opacity="1">R-h</text></g></g></svg>