<svg xmlns="http://www.w3.org/2000/svg" xmlns:xlink="http://www.w3.org/1999/xlink" x="0" y="0" width="662" height="262.1875" style="
        width:662px;
        height:262.1875px;
        background: #FFF;
        fill: none;
">
        <svg xmlns="http://www.w3.org/2000/svg"/>
        
        <svg xmlns="http://www.w3.org/2000/svg" class="role-diagram-draw-area"><g class="shapes-region" style="stroke: black; fill: none;"><g class="arrow-line"><path class="connection real" stroke-dasharray="" d="  M319.6,14.4 L319.8,241.4" style="stroke: rgb(0, 0, 0); stroke-width: 1; fill: none; fill-opacity: 1;"/><g stroke="none" fill="#000" transform="matrix(0.0008726645152351565,0.9999996192282494,-0.9999996192282494,0.0008726645152351565,319.59999999999997,11.399999999999977)" style="stroke: none; fill: rgb(0, 0, 0); stroke-width: 1;"><path d=" M8.93,-4.29 L0,0 L8.93,4.29 Z"/></g></g><g class="arrow-line"><path class="connection real" stroke-dasharray="" d="  M564.51,231.09 L83.69,230.1" style="stroke: rgb(0, 0, 0); stroke-width: 1; fill: none; fill-opacity: 1;"/><g stroke="none" fill="#000" transform="matrix(-0.9999978067553793,-0.0020943935712191214,0.0020943935712191214,-0.9999978067553793,567.5125,231.10000000000005)" style="stroke: none; fill: rgb(0, 0, 0); stroke-width: 1;"><path d=" M8.93,-4.29 L0,0 L8.93,4.29 Z"/></g></g><g class="arrow-line"><path class="connection real" stroke-dasharray="" d="  M357.8,230.2 C409,55 493.4,17.8 499,11.4" style="stroke: rgb(0, 0, 0); stroke-width: 1; fill: none; fill-opacity: 1;"/></g><g class="arrow-line"><path class="connection real" stroke-dasharray="1.125 3.35" d="  M417.2,94.4 L417,229.4" style="stroke: rgb(0, 0, 0); stroke-width: 1; fill: none; fill-opacity: 1;"/></g><g class="arrow-line"><path class="connection real" stroke-dasharray="1.125 3.35" d="  M452.2,51 L455,229.8" style="stroke: rgb(0, 0, 0); stroke-width: 1; fill: none; fill-opacity: 1;"/></g><g class="arrow-line"><path class="connection real" stroke-dasharray="1.125 3.35" d="  M417.2,94.4 L320.8,93.2" style="stroke: rgb(0, 0, 0); stroke-width: 1; fill: none; fill-opacity: 1;"/></g><g class="arrow-line"><path class="connection real" stroke-dasharray="1.125 3.35" d="  M452.2,51 L319.6,50.2" style="stroke: rgb(0, 0, 0); stroke-width: 1; fill: none; fill-opacity: 1;"/></g><g class="arrow-line"><path class="connection real" stroke-dasharray="" d="  M452.8,37 L381.6,151.8" style="stroke: rgb(0, 0, 0); stroke-width: 1; fill: none; fill-opacity: 1;"/></g><g class="arrow-line"><path class="connection real" stroke-dasharray="" d="  M486.2,12.2 L378.6,137" style="stroke: rgb(0, 0, 0); stroke-width: 1; fill: none; fill-opacity: 1;"/></g><g/></g><g/><g/><g/></svg>
        <svg xmlns="http://www.w3.org/2000/svg" xmlns:xlink="http://www.w3.org/1999/xlink" width="660" height="260.1875" style="width:660px;height:260.1875px;font-family:Asana-Math, Asana;background:#FFF;"><g><g><g><g><g><g><g transform="matrix(1,0,0,1,411.3984375,248.4984375)"><path transform="matrix(0.0136,0,0,-0.0136,0,0)" d="M236 722L224 733C179 711 138 697 64 691L60 670L108 670C126 670 142 667 142 647C142 641 142 632 140 622L98 388C78 272 36 80 10 2L17 -9L86 7C94 64 108 164 148 236C193 317 296 414 338 414C349 414 360 407 360 393C360 375 355 342 345 303L294 107C288 85 281 55 281 31C281 6 291 -9 312 -9C344 -9 412 41 471 85L461 103L435 86C412 71 386 56 374 56C367 56 361 65 361 76C361 88 364 101 368 116L432 372C438 398 443 423 443 447C443 464 437 482 411 482C376 482 299 437 231 374C198 343 172 308 144 273L140 275Z" stroke="rgb(0,0,0)" stroke-opacity="1" stroke-width="8" fill="rgb(0,0,0)" fill-opacity="1"></path></g></g></g></g></g></g></g><g><g><g><g><g><g><g transform="matrix(1,0,0,1,442.796875,248.2953125)"><path transform="matrix(0.0136,0,0,-0.0136,0,0)" d="M236 722L224 733C179 711 138 697 64 691L60 670L108 670C126 670 142 667 142 647C142 641 142 632 140 622L98 388C78 272 36 80 10 2L17 -9L86 7C94 64 108 164 148 236C193 317 296 414 338 414C349 414 360 407 360 393C360 375 355 342 345 303L294 107C288 85 281 55 281 31C281 6 291 -9 312 -9C344 -9 412 41 471 85L461 103L435 86C412 71 386 56 374 56C367 56 361 65 361 76C361 88 364 101 368 116L432 372C438 398 443 423 443 447C443 464 437 482 411 482C376 482 299 437 231 374C198 343 172 308 144 273L140 275Z" stroke="rgb(0,0,0)" stroke-opacity="1" stroke-width="8" fill="rgb(0,0,0)" fill-opacity="1"></path></g></g><g><g transform="matrix(1,0,0,1,452.3046875,248.2953125)"><path transform="matrix(0.0136,0,0,-0.0136,0,0)" d="M604 241L604 300L364 300L364 538L305 538L305 300L65 300L65 241L305 241L305 0L364 0L364 241Z" stroke="rgb(0,0,0)" stroke-opacity="1" stroke-width="8" fill="rgb(0,0,0)" fill-opacity="1"></path></g></g><g><g transform="matrix(1,0,0,1,464.109375,248.2953125)"><path transform="matrix(0.0136,0,0,-0.0136,0,0)" d="M-33 6L-28 -4C79 0 185 0 292 0C393 0 494 -1 594 -4L602 6C560 116 534 238 504 354C475 466 442 580 424 697L399 697C336 587 53 127 -33 6ZM482 37L50 37C148 215 249 389 356 564L363 564C408 391 449 215 482 37ZM924 722L912 733C867 711 826 697 752 691L748 670L796 670C814 670 830 667 830 647C830 641 830 632 828 622L786 388C766 272 724 80 698 2L705 -9L774 7C782 64 796 164 836 236C881 317 984 414 1026 414C1037 414 1048 407 1048 393C1048 375 1043 342 1033 303L982 107C976 85 969 55 969 31C969 6 979 -9 1000 -9C1032 -9 1100 41 1159 85L1149 103L1123 86C1100 71 1074 56 1062 56C1055 56 1049 65 1049 76C1049 88 1052 101 1056 116L1120 372C1126 398 1131 423 1131 447C1131 464 1125 482 1099 482C1064 482 987 437 919 374C886 343 860 308 832 273L828 275Z" stroke="rgb(0,0,0)" stroke-opacity="1" stroke-width="8" fill="rgb(0,0,0)" fill-opacity="1"></path></g></g></g></g></g></g></g><g><g><g><g><g><g><g transform="matrix(1,0,0,1,274.296875,52.896875)"><path transform="matrix(0.0136,0,0,-0.0136,0,0)" d="M349 664L352 692L238 689C222 689 204 689 161 690L97 692L94 664L141 662C165 661 176 653 176 635L81 55C77 37 65 30 21 23L16 -3L57 -2C88 -1 150 0 170 0C170 0 467 -1 467 -1C467 -1 500 0 500 0C499 25 510 103 523 165L492 165L475 103C466 71 457 54 448 49C435 44 371 39 304 39C255 39 228 40 162 46C165 64 256 605 256 613C263 651 270 658 307 661Z" stroke="rgb(0,0,0)" stroke-opacity="1" stroke-width="8" fill="rgb(0,0,0)" fill-opacity="1"></path></g></g><g><g transform="matrix(1,0,0,1,284.5625,52.896875)"><path transform="matrix(0.0136,0,0,-0.0136,0,0)" d="M604 241L604 300L364 300L364 538L305 538L305 300L65 300L65 241L305 241L305 0L364 0L364 241Z" stroke="rgb(0,0,0)" stroke-opacity="1" stroke-width="8" fill="rgb(0,0,0)" fill-opacity="1"></path></g></g><g><g transform="matrix(1,0,0,1,296.3671875,52.896875)"><path transform="matrix(0.0136,0,0,-0.0136,0,0)" d="M-33 6L-28 -4C79 0 185 0 292 0C393 0 494 -1 594 -4L602 6C560 116 534 238 504 354C475 466 442 580 424 697L399 697C336 587 53 127 -33 6ZM482 37L50 37C148 215 249 389 356 564L363 564C408 391 449 215 482 37ZM1037 664L1040 692L926 689C910 689 892 689 849 690L785 692L782 664L829 662C853 661 864 653 864 635L769 55C765 37 753 30 709 23L704 -3L745 -2C776 -1 838 0 858 0C858 0 1155 -1 1155 -1C1155 -1 1188 0 1188 0C1187 25 1198 103 1211 165L1180 165L1163 103C1154 71 1145 54 1136 49C1123 44 1059 39 992 39C943 39 916 40 850 46C853 64 944 605 944 613C951 651 958 658 995 661Z" stroke="rgb(0,0,0)" stroke-opacity="1" stroke-width="8" fill="rgb(0,0,0)" fill-opacity="1"></path></g></g></g></g></g></g></g><g><g><g><g><g><g><g transform="matrix(1,0,0,1,302.3984375,95.396875)"><path transform="matrix(0.0136,0,0,-0.0136,0,0)" d="M349 664L352 692L238 689C222 689 204 689 161 690L97 692L94 664L141 662C165 661 176 653 176 635L81 55C77 37 65 30 21 23L16 -3L57 -2C88 -1 150 0 170 0C170 0 467 -1 467 -1C467 -1 500 0 500 0C499 25 510 103 523 165L492 165L475 103C466 71 457 54 448 49C435 44 371 39 304 39C255 39 228 40 162 46C165 64 256 605 256 613C263 651 270 658 307 661Z" stroke="rgb(0,0,0)" stroke-opacity="1" stroke-width="8" fill="rgb(0,0,0)" fill-opacity="1"></path></g></g></g></g></g></g></g><g><g><g><g><g><g><g transform="matrix(1,0,0,1,406.6953125,32.4984375)"><path transform="matrix(0.0136,0,0,-0.0136,0,0)" d="M483 722L471 733C419 707 383 698 311 691L307 670L355 670C379 670 389 663 389 646C389 638 388 629 387 622L359 468C329 477 302 482 277 482C208 482 114 410 68 323C37 265 17 170 17 86C17 21 32 -11 61 -11C88 -11 125 6 159 33C213 77 246 116 313 217L290 126C279 82 274 50 274 24C274 3 283 -9 300 -9C317 -9 341 3 375 28L456 88L446 107L402 76C388 66 372 59 363 59C355 59 349 68 349 82C349 90 350 99 357 128ZM114 59C98 59 89 73 89 98C89 224 135 380 184 418C197 428 216 433 243 433C287 433 316 427 349 410L337 351C300 171 159 59 114 59ZM848 664L851 692L737 689C721 689 703 689 660 690L596 692L593 664L640 662C664 661 675 653 675 635L580 55C576 37 564 30 520 23L515 -3L556 -2C587 -1 649 0 669 0C669 0 966 -1 966 -1C966 -1 999 0 999 0C998 25 1009 103 1022 165L991 165L974 103C965 71 956 54 947 49C934 44 870 39 803 39C754 39 727 40 661 46C664 64 755 605 755 613C762 651 769 658 806 661Z" stroke="rgb(0,0,0)" stroke-opacity="1" stroke-width="8" fill="rgb(0,0,0)" fill-opacity="1"></path></g></g><g><g transform="matrix(1,0,0,1,423.7421875,32.4984375)"><path transform="matrix(0.0136,0,0,-0.0136,0,0)" d="M297 714L242 714L-37 -169L18 -169Z" stroke="rgb(0,0,0)" stroke-opacity="1" stroke-width="8" fill="rgb(0,0,0)" fill-opacity="1"></path></g></g><g><g transform="matrix(1,0,0,1,430.3515625,32.4984375)"><path transform="matrix(0.0136,0,0,-0.0136,0,0)" d="M483 722L471 733C419 707 383 698 311 691L307 670L355 670C379 670 389 663 389 646C389 638 388 629 387 622L359 468C329 477 302 482 277 482C208 482 114 410 68 323C37 265 17 170 17 86C17 21 32 -11 61 -11C88 -11 125 6 159 33C213 77 246 116 313 217L290 126C279 82 274 50 274 24C274 3 283 -9 300 -9C317 -9 341 3 375 28L456 88L446 107L402 76C388 66 372 59 363 59C355 59 349 68 349 82C349 90 350 99 357 128ZM114 59C98 59 89 73 89 98C89 224 135 380 184 418C197 428 216 433 243 433C287 433 316 427 349 410L337 351C300 171 159 59 114 59ZM735 722L723 733C678 711 637 697 563 691L559 670L607 670C625 670 641 667 641 647C641 641 641 632 639 622L597 388C577 272 535 80 509 2L516 -9L585 7C593 64 607 164 647 236C692 317 795 414 837 414C848 414 859 407 859 393C859 375 854 342 844 303L793 107C787 85 780 55 780 31C780 6 790 -9 811 -9C843 -9 911 41 970 85L960 103L934 86C911 71 885 56 873 56C866 56 860 65 860 76C860 88 863 101 867 116L931 372C937 398 942 423 942 447C942 464 936 482 910 482C875 482 798 437 730 374C697 343 671 308 643 273L639 275Z" stroke="rgb(0,0,0)" stroke-opacity="1" stroke-width="8" fill="rgb(0,0,0)" fill-opacity="1"></path></g></g></g></g></g></g></g><g><g><g><g><g><g><g transform="matrix(1,0,0,1,351.5,115.69375)"><path transform="matrix(0.0136,0,0,-0.0136,0,0)" d="M-33 6L-28 -4C79 0 185 0 292 0C393 0 494 -1 594 -4L602 6C560 116 534 238 504 354C475 466 442 580 424 697L399 697C336 587 53 127 -33 6ZM482 37L50 37C148 215 249 389 356 564L363 564C408 391 449 215 482 37ZM1037 664L1040 692L926 689C910 689 892 689 849 690L785 692L782 664L829 662C853 661 864 653 864 635L769 55C765 37 753 30 709 23L704 -3L745 -2C776 -1 838 0 858 0C858 0 1155 -1 1155 -1C1155 -1 1188 0 1188 0C1187 25 1198 103 1211 165L1180 165L1163 103C1154 71 1145 54 1136 49C1123 44 1059 39 992 39C943 39 916 40 850 46C853 64 944 605 944 613C951 651 958 658 995 661Z" stroke="rgb(0,0,0)" stroke-opacity="1" stroke-width="8" fill="rgb(0,0,0)" fill-opacity="1"></path></g></g><g><g transform="matrix(1,0,0,1,371.1171875,115.69375)"><path transform="matrix(0.0136,0,0,-0.0136,0,0)" d="M297 714L242 714L-37 -169L18 -169Z" stroke="rgb(0,0,0)" stroke-opacity="1" stroke-width="8" fill="rgb(0,0,0)" fill-opacity="1"></path></g></g><g><g transform="matrix(1,0,0,1,377.7265625,115.69375)"><path transform="matrix(0.0136,0,0,-0.0136,0,0)" d="M-33 6L-28 -4C79 0 185 0 292 0C393 0 494 -1 594 -4L602 6C560 116 534 238 504 354C475 466 442 580 424 697L399 697C336 587 53 127 -33 6ZM482 37L50 37C148 215 249 389 356 564L363 564C408 391 449 215 482 37ZM924 722L912 733C867 711 826 697 752 691L748 670L796 670C814 670 830 667 830 647C830 641 830 632 828 622L786 388C766 272 724 80 698 2L705 -9L774 7C782 64 796 164 836 236C881 317 984 414 1026 414C1037 414 1048 407 1048 393C1048 375 1043 342 1033 303L982 107C976 85 969 55 969 31C969 6 979 -9 1000 -9C1032 -9 1100 41 1159 85L1149 103L1123 86C1100 71 1074 56 1062 56C1055 56 1049 65 1049 76C1049 88 1052 101 1056 116L1120 372C1126 398 1131 423 1131 447C1131 464 1125 482 1099 482C1064 482 987 437 919 374C886 343 860 308 832 273L828 275Z" stroke="rgb(0,0,0)" stroke-opacity="1" stroke-width="8" fill="rgb(0,0,0)" fill-opacity="1"></path></g></g></g></g></g></g></g></svg>
</svg>
