<svg xmlns="http://www.w3.org/2000/svg" xmlns:xlink="http://www.w3.org/1999/xlink" x="0" y="0" width="662" height="262.1875" style="
        width:662px;
        height:262.1875px;
        background: #FFF;
        fill: none;
">
        <svg xmlns="http://www.w3.org/2000/svg"/>
        
        <svg xmlns="http://www.w3.org/2000/svg" class="role-diagram-draw-area"><g class="shapes-region" style="stroke: black; fill: none;"><g class="composite-shape" data-amt="diagram/shapes/plot" transform="matrix(1,0,0,1,7,8)"><g><g/><g><g class="test-xti" style="font-family: Asana-Math, Asana;"><line x1="0" y1="194.30037616238747" x2="627" y2="194.30037616238747" fill="none" stroke="rgb(50,50,50)" stroke-opacity="1" stroke-width="1"/><line x1="73.42673103121969" y1="190.30037616238747" x2="73.42673103121969" y2="198.30037616238747" fill="none" stroke="rgb(50,50,50)" stroke-opacity="1" stroke-width="1"/><line x1="150.53772975412946" y1="190.30037616238747" x2="150.53772975412946" y2="198.30037616238747" fill="none" stroke="rgb(50,50,50)" stroke-opacity="1" stroke-width="1"/><line x1="227.64872847703924" y1="190.30037616238747" x2="227.64872847703924" y2="198.30037616238747" fill="none" stroke="rgb(50,50,50)" stroke-opacity="1" stroke-width="1"/><line x1="381.8707259228587" y1="190.30037616238747" x2="381.8707259228587" y2="198.30037616238747" fill="none" stroke="rgb(50,50,50)" stroke-opacity="1" stroke-width="1"/><line x1="458.98172464576857" y1="190.30037616238747" x2="458.98172464576857" y2="198.30037616238747" fill="none" stroke="rgb(50,50,50)" stroke-opacity="1" stroke-width="1"/><line x1="536.0927233686783" y1="190.30037616238747" x2="536.0927233686783" y2="198.30037616238747" fill="none" stroke="rgb(50,50,50)" stroke-opacity="1" stroke-width="1"/><line x1="613.203722091588" y1="190.30037616238747" x2="613.203722091588" y2="198.30037616238747" fill="none" stroke="rgb(50,50,50)" stroke-opacity="1" stroke-width="1"/><path d="M622,190.70037616238747 L630,194.30037616238747 L622,197.90037616238746 Z" stroke="none" stroke-width="1" fill="rgb(50,50,50)" fill-opacity="1"/></g><g class="test-yti" style="font-family: Asana-Math, Asana;"><line x1="304.759727199949" y1="4" x2="304.759727199949" y2="249" fill="none" stroke="rgb(50,50,50)" stroke-opacity="1" stroke-width="1"/><line x1="300.759727199949" y1="117.18937743947771" x2="308.759727199949" y2="117.18937743947771" fill="none" stroke="rgb(50,50,50)" stroke-opacity="1" stroke-width="1"/><line x1="300.759727199949" y1="40.078378716567926" x2="308.759727199949" y2="40.078378716567926" fill="none" stroke="rgb(50,50,50)" stroke-opacity="1" stroke-width="1"/><path d="M301.159727199949,9 L304.759727199949,1 L308.359727199949,9 Z" stroke="none" stroke-width="1" fill="rgb(50,50,50)" fill-opacity="1"/></g><g class="test-plot-expression"><defs><clipPath id="cpavi21qqxb"><rect x="1" y="1" width="629" height="247"/></clipPath></defs><g clip-path="url(#cpavi21qqxb)"><path d=" M0.00,-249.00 L0.57,-249.00 L1.15,-249.00 L1.72,-249.00 L2.30,-249.00 L2.87,-249.00 L3.44,-249.00 L4.02,-249.00 L4.59,-249.00 L5.17,-249.00 L5.74,-249.00 L6.32,-249.00 L6.89,-249.00 L7.46,-249.00 L8.04,-249.00 L8.61,-249.00 L9.19,-249.00 L9.76,-249.00 L10.33,-249.00 L10.91,-249.00 L11.48,-249.00 L12.06,-249.00 L12.63,-249.00 L13.21,-249.00 L13.78,-249.00 L14.35,-249.00 L14.93,-249.00 L15.50,-249.00 L16.08,-249.00 L16.65,-249.00 L17.22,-249.00 L17.80,-249.00 L18.37,-249.00 L18.95,-249.00 L19.52,-249.00 L20.10,-249.00 L20.67,-249.00 L21.24,-249.00 L21.82,-249.00 L22.39,-249.00 L22.97,-249.00 L23.54,-249.00 L24.11,-249.00 L24.69,-249.00 L25.26,-249.00 L25.84,-249.00 L26.41,-249.00 L26.99,-249.00 L27.56,-249.00 L28.13,-249.00 L28.71,-249.00 L29.28,-249.00 L29.86,-249.00 L30.43,-249.00 L31.00,-249.00 L31.58,-249.00 L32.15,-249.00 L32.73,-246.98 L33.30,-244.96 L33.88,-242.94 L34.45,-240.93 L35.02,-238.92 L35.60,-236.91 L36.17,-234.91 L36.75,-232.91 L37.32,-230.92 L37.89,-228.93 L38.47,-226.94 L39.04,-224.96 L39.62,-222.99 L40.19,-221.01 L40.77,-219.05 L41.34,-217.08 L41.91,-215.12 L42.49,-213.17 L43.06,-211.22 L43.64,-209.27 L44.21,-207.33 L44.78,-205.39 L45.36,-203.46 L45.93,-201.53 L46.51,-199.60 L47.08,-197.68 L47.66,-195.77 L48.23,-193.85 L48.80,-191.94 L49.38,-190.04 L49.95,-188.14 L50.53,-186.25 L51.10,-184.36 L51.67,-182.47 L52.25,-180.59 L52.82,-178.71 L53.40,-176.84 L53.97,-174.97 L54.55,-173.10 L55.12,-171.24 L55.69,-169.38 L56.27,-167.53 L56.84,-165.68 L57.42,-163.84 L57.99,-162.00 L58.56,-160.16 L59.14,-158.33 L59.71,-156.51 L60.29,-154.68 L60.86,-152.87 L61.43,-151.05 L62.01,-149.24 L62.58,-147.44 L63.16,-145.64 L63.73,-143.84 L64.31,-142.05 L64.88,-140.26 L65.45,-138.47 L66.03,-136.69 L66.60,-134.92 L67.18,-133.15 L67.75,-131.38 L68.32,-129.62 L68.90,-127.86 L69.47,-126.11 L70.05,-124.36 L70.62,-122.61 L71.20,-120.87 L71.77,-119.13 L72.34,-117.40 L72.92,-115.67 L73.49,-113.95 L74.07,-112.23 L74.64,-110.51 L75.21,-108.80 L75.79,-107.09 L76.36,-105.39 L76.94,-103.69 L77.51,-102.00 L78.09,-100.31 L78.66,-98.62 L79.23,-96.94 L79.81,-95.26 L80.38,-93.59 L80.96,-91.92 L81.53,-90.26 L82.10,-88.60 L82.68,-86.94 L83.25,-85.29 L83.83,-83.64 L84.40,-82.00 L84.98,-80.36 L85.55,-78.73 L86.12,-77.10 L86.70,-75.47 L87.27,-73.85 L87.85,-72.23 L88.42,-70.62 L88.99,-69.01 L89.57,-67.41 L90.14,-65.81 L90.72,-64.21 L91.29,-62.62 L91.87,-61.03 L92.44,-59.45 L93.01,-57.87 L93.59,-56.30 L94.16,-54.73 L94.74,-53.16 L95.31,-51.60 L95.88,-50.04 L96.46,-48.49 L97.03,-46.94 L97.61,-45.39 L98.18,-43.85 L98.76,-42.32 L99.33,-40.79 L99.90,-39.26 L100.48,-37.74 L101.05,-36.22 L101.63,-34.70 L102.20,-33.19 L102.77,-31.69 L103.35,-30.18 L103.92,-28.69 L104.50,-27.19 L105.07,-25.70 L105.65,-24.22 L106.22,-22.74 L106.79,-21.26 L107.37,-19.79 L107.94,-18.32 L108.52,-16.86 L109.09,-15.40 L109.66,-13.95 L110.24,-12.50 L110.81,-11.05 L111.39,-9.61 L111.96,-8.17 L112.54,-6.74 L113.11,-5.31 L113.68,-3.88 L114.26,-2.46 L114.83,-1.05 L115.41,0.37 L115.98,1.77 L116.55,3.18 L117.13,4.58 L117.70,5.97 L118.28,7.36 L118.85,8.75 L119.42,10.13 L120.00,11.51 L120.57,12.88 L121.15,14.25 L121.72,15.62 L122.30,16.98 L122.87,18.33 L123.44,19.69 L124.02,21.03 L124.59,22.38 L125.17,23.72 L125.74,25.05 L126.31,26.38 L126.89,27.71 L127.46,29.03 L128.04,30.35 L128.61,31.66 L129.19,32.97 L129.76,34.28 L130.33,35.58 L130.91,36.88 L131.48,38.17 L132.06,39.46 L132.63,40.74 L133.20,42.02 L133.78,43.30 L134.35,44.57 L134.93,45.83 L135.50,47.10 L136.08,48.35 L136.65,49.61 L137.22,50.86 L137.80,52.10 L138.37,53.34 L138.95,54.58 L139.52,55.81 L140.09,57.04 L140.67,58.26 L141.24,59.48 L141.82,60.70 L142.39,61.91 L142.97,63.12 L143.54,64.32 L144.11,65.52 L144.69,66.71 L145.26,67.90 L145.84,69.09 L146.41,70.27 L146.98,71.45 L147.56,72.62 L148.13,73.79 L148.71,74.95 L149.28,76.11 L149.86,77.27 L150.43,78.42 L151.00,79.56 L151.58,80.71 L152.15,81.85 L152.73,82.98 L153.30,84.11 L153.87,85.24 L154.45,86.36 L155.02,87.47 L155.60,88.59 L156.17,89.69 L156.75,90.80 L157.32,91.90 L157.89,92.99 L158.47,94.09 L159.04,95.17 L159.62,96.26 L160.19,97.33 L160.76,98.41 L161.34,99.48 L161.91,100.54 L162.49,101.61 L163.06,102.66 L163.64,103.72 L164.21,104.77 L164.78,105.81 L165.36,106.85 L165.93,107.89 L166.51,108.92 L167.08,109.94 L167.65,110.97 L168.23,111.99 L168.80,113.00 L169.38,114.01 L169.95,115.02 L170.53,116.02 L171.10,117.02 L171.67,118.01 L172.25,119.00 L172.82,119.98 L173.40,120.96 L173.97,121.94 L174.54,122.91 L175.12,123.88 L175.69,124.84 L176.27,125.80 L176.84,126.75 L177.41,127.70 L177.99,128.65 L178.56,129.59 L179.14,130.53 L179.71,131.46 L180.29,132.39 L180.86,133.32 L181.43,134.24 L182.01,135.15 L182.58,136.06 L183.16,136.97 L183.73,137.88 L184.30,138.77 L184.88,139.67 L185.45,140.56 L186.03,141.45 L186.60,142.33 L187.18,143.21 L187.75,144.08 L188.32,144.95 L188.90,145.81 L189.47,146.67 L190.05,147.53 L190.62,148.38 L191.19,149.23 L191.77,150.07 L192.34,150.91 L192.92,151.75 L193.49,152.58 L194.07,153.40 L194.64,154.23 L195.21,155.04 L195.79,155.86 L196.36,156.67 L196.94,157.47 L197.51,158.27 L198.08,159.07 L198.66,159.86 L199.23,160.65 L199.81,161.43 L200.38,162.21 L200.96,162.99 L201.53,163.76 L202.10,164.52 L202.68,165.29 L203.25,166.04 L203.83,166.80 L204.40,167.55 L204.97,168.29 L205.55,169.03 L206.12,169.77 L206.70,170.50 L207.27,171.23 L207.85,171.95 L208.42,172.67 L208.99,173.39 L209.57,174.10 L210.14,174.81 L210.72,175.51 L211.29,176.21 L211.86,176.90 L212.44,177.59 L213.01,178.28 L213.59,178.96 L214.16,179.63 L214.74,180.31 L215.31,180.97 L215.88,181.64 L216.46,182.30 L217.03,182.95 L217.61,183.60 L218.18,184.25 L218.75,184.89 L219.33,185.53 L219.90,186.17 L220.48,186.79 L221.05,187.42 L221.63,188.04 L222.20,188.66 L222.77,189.27 L223.35,189.88 L223.92,190.48 L224.50,191.08 L225.07,191.68 L225.64,192.27 L226.22,192.86 L226.79,193.44 L227.37,194.02 L227.94,194.59 L228.52,195.16 L229.09,195.73 L229.66,196.29 L230.24,196.85 L230.81,197.40 L231.39,197.95 L231.96,198.49 L232.53,199.03 L233.11,199.57 L233.68,200.10 L234.26,200.63 L234.83,201.15 L235.40,201.67 L235.98,202.18 L236.55,202.69 L237.13,203.20 L237.70,203.70 L238.28,204.20 L238.85,204.69 L239.42,205.18 L240.00,205.66 L240.57,206.14 L241.15,206.62 L241.72,207.09 L242.29,207.56 L242.87,208.02 L243.44,208.48 L244.02,208.93 L244.59,209.38 L245.17,209.83 L245.74,210.27 L246.31,210.71 L246.89,211.14 L247.46,211.57 L248.04,211.99 L248.61,212.41 L249.18,212.83 L249.76,213.24 L250.33,213.65 L250.91,214.05 L251.48,214.45 L252.06,214.84 L252.63,215.23 L253.20,215.62 L253.78,216.00 L254.35,216.38 L254.93,216.75 L255.50,217.12 L256.07,217.49 L256.65,217.85 L257.22,218.20 L257.80,218.56 L258.37,218.90 L258.95,219.25 L259.52,219.58 L260.09,219.92 L260.67,220.25 L261.24,220.58 L261.82,220.90 L262.39,221.22 L262.96,221.53 L263.54,221.84 L264.11,222.14 L264.69,222.44 L265.26,222.74 L265.84,223.03 L266.41,223.32 L266.98,223.60 L267.56,223.88 L268.13,224.16 L268.71,224.43 L269.28,224.69 L269.85,224.96 L270.43,225.21 L271.00,225.47 L271.58,225.72 L272.15,225.96 L272.73,226.20 L273.30,226.44 L273.87,226.67 L274.45,226.90 L275.02,227.12 L275.60,227.34 L276.17,227.56 L276.74,227.77 L277.32,227.97 L277.89,228.18 L278.47,228.37 L279.04,228.57 L279.62,228.76 L280.19,228.94 L280.76,229.12 L281.34,229.30 L281.91,229.47 L282.49,229.64 L283.06,229.80 L283.63,229.96 L284.21,230.12 L284.78,230.27 L285.36,230.41 L285.93,230.56 L286.51,230.70 L287.08,230.83 L287.65,230.96 L288.23,231.08 L288.80,231.20 L289.38,231.32 L289.95,231.43 L290.52,231.54 L291.10,231.65 L291.67,231.75 L292.25,231.84 L292.82,231.93 L293.39,232.02 L293.97,232.10 L294.54,232.18 L295.12,232.25 L295.69,232.32 L296.27,232.39 L296.84,232.45 L297.41,232.51 L297.99,232.56 L298.56,232.61 L299.14,232.65 L299.71,232.69 L300.28,232.73 L300.86,232.76 L301.43,232.78 L302.01,232.81 L302.58,232.83 L303.16,232.84 L303.73,232.85 L304.30,232.85 L304.88,232.86 L305.45,232.85 L306.03,232.85 L306.60,232.83 L307.17,232.82 L307.75,232.80 L308.32,232.77 L308.90,232.74 L309.47,232.71 L310.05,232.67 L310.62,232.63 L311.19,232.59 L311.77,232.54 L312.34,232.48 L312.92,232.42 L313.49,232.36 L314.06,232.29 L314.64,232.22 L315.21,232.15 L315.79,232.07 L316.36,231.98 L316.94,231.89 L317.51,231.80 L318.08,231.70 L318.66,231.60 L319.23,231.50 L319.81,231.39 L320.38,231.27 L320.95,231.16 L321.53,231.03 L322.10,230.91 L322.68,230.77 L323.25,230.64 L323.83,230.50 L324.40,230.35 L324.97,230.21 L325.55,230.05 L326.12,229.90 L326.70,229.74 L327.27,229.57 L327.84,229.40 L328.42,229.23 L328.99,229.05 L329.57,228.87 L330.14,228.68 L330.72,228.49 L331.29,228.29 L331.86,228.09 L332.44,227.89 L333.01,227.68 L333.59,227.47 L334.16,227.25 L334.73,227.03 L335.31,226.80 L335.88,226.58 L336.46,226.34 L337.03,226.10 L337.61,225.86 L338.18,225.61 L338.75,225.36 L339.33,225.11 L339.90,224.85 L340.48,224.58 L341.05,224.32 L341.62,224.04 L342.20,223.77 L342.77,223.49 L343.35,223.20 L343.92,222.91 L344.49,222.62 L345.07,222.32 L345.64,222.02 L346.22,221.71 L346.79,221.40 L347.37,221.09 L347.94,220.77 L348.51,220.44 L349.09,220.11 L349.66,219.78 L350.24,219.45 L350.81,219.10 L351.38,218.76 L351.96,218.41 L352.53,218.06 L353.11,217.70 L353.68,217.34 L354.26,216.97 L354.83,216.60 L355.40,216.23 L355.98,215.85 L356.55,215.46 L357.13,215.07 L357.70,214.68 L358.27,214.29 L358.85,213.89 L359.42,213.48 L360.00,213.07 L360.57,212.66 L361.15,212.24 L361.72,211.82 L362.29,211.39 L362.87,210.96 L363.44,210.53 L364.02,210.09 L364.59,209.64 L365.16,209.20 L365.74,208.74 L366.31,208.29 L366.89,207.83 L367.46,207.36 L368.04,206.89 L368.61,206.42 L369.18,205.94 L369.76,205.46 L370.33,204.98 L370.91,204.49 L371.48,203.99 L372.05,203.49 L372.63,202.99 L373.20,202.48 L373.78,201.97 L374.35,201.45 L374.93,200.93 L375.50,200.41 L376.07,199.88 L376.65,199.35 L377.22,198.81 L377.80,198.27 L378.37,197.72 L378.94,197.17 L379.52,196.62 L380.09,196.06 L380.67,195.49 L381.24,194.93 L381.82,194.36 L382.39,193.78 L382.96,193.20 L383.54,192.62 L384.11,192.03 L384.69,191.43 L385.26,190.84 L385.83,190.23 L386.41,189.63 L386.98,189.02 L387.56,188.40 L388.13,187.79 L388.71,187.16 L389.28,186.54 L389.85,185.90 L390.43,185.27 L391.00,184.63 L391.58,183.98 L392.15,183.34 L392.72,182.68 L393.30,182.03 L393.87,181.36 L394.45,180.70 L395.02,180.03 L395.60,179.35 L396.17,178.68 L396.74,177.99 L397.32,177.31 L397.89,176.62 L398.47,175.92 L399.04,175.22 L399.61,174.52 L400.19,173.81 L400.76,173.09 L401.34,172.38 L401.91,171.66 L402.48,170.93 L403.06,170.20 L403.63,169.47 L404.21,168.73 L404.78,167.99 L405.36,167.24 L405.93,166.49 L406.50,165.73 L407.08,164.97 L407.65,164.21 L408.23,163.44 L408.80,162.67 L409.37,161.89 L409.95,161.11 L410.52,160.32 L411.10,159.53 L411.67,158.74 L412.25,157.94 L412.82,157.14 L413.39,156.33 L413.97,155.52 L414.54,154.71 L415.12,153.89 L415.69,153.06 L416.26,152.24 L416.84,151.40 L417.41,150.57 L417.99,149.73 L418.56,148.88 L419.14,148.03 L419.71,147.18 L420.28,146.32 L420.86,145.46 L421.43,144.59 L422.01,143.72 L422.58,142.84 L423.15,141.97 L423.73,141.08 L424.30,140.19 L424.88,139.30 L425.45,138.40 L426.03,137.50 L426.60,136.60 L427.17,135.69 L427.75,134.78 L428.32,133.86 L428.90,132.94 L429.47,132.01 L430.04,131.08 L430.62,130.14 L431.19,129.20 L431.77,128.26 L432.34,127.31 L432.92,126.36 L433.49,125.40 L434.06,124.44 L434.64,123.48 L435.21,122.51 L435.79,121.54 L436.36,120.56 L436.93,119.58 L437.51,118.59 L438.08,117.60 L438.66,116.60 L439.23,115.61 L439.81,114.60 L440.38,113.59 L440.95,112.58 L441.53,111.57 L442.10,110.55 L442.68,109.52 L443.25,108.49 L443.82,107.46 L444.40,106.42 L444.97,105.38 L445.55,104.33 L446.12,103.28 L446.70,102.23 L447.27,101.17 L447.84,100.11 L448.42,99.04 L448.99,97.97 L449.57,96.89 L450.14,95.81 L450.71,94.73 L451.29,93.64 L451.86,92.54 L452.44,91.45 L453.01,90.34 L453.59,89.24 L454.16,88.13 L454.73,87.01 L455.31,85.89 L455.88,84.77 L456.46,83.64 L457.03,82.51 L457.60,81.38 L458.18,80.24 L458.75,79.09 L459.33,77.94 L459.90,76.79 L460.47,75.63 L461.05,74.47 L461.62,73.31 L462.20,72.14 L462.77,70.96 L463.35,69.78 L463.92,68.60 L464.49,67.41 L465.07,66.22 L465.64,65.02 L466.22,63.82 L466.79,62.62 L467.36,61.41 L467.94,60.20 L468.51,58.98 L469.09,57.76 L469.66,56.53 L470.24,55.30 L470.81,54.07 L471.38,52.83 L471.96,51.59 L472.53,50.34 L473.11,49.09 L473.68,47.84 L474.25,46.58 L474.83,45.31 L475.40,44.04 L475.98,42.77 L476.55,41.49 L477.13,40.21 L477.70,38.93 L478.27,37.64 L478.85,36.34 L479.42,35.04 L480.00,33.74 L480.57,32.43 L481.14,31.12 L481.72,29.81 L482.29,28.49 L482.87,27.16 L483.44,25.84 L484.02,24.50 L484.59,23.17 L485.16,21.82 L485.74,20.48 L486.31,19.13 L486.89,17.78 L487.46,16.42 L488.03,15.06 L488.61,13.69 L489.18,12.32 L489.76,10.94 L490.33,9.56 L490.91,8.18 L491.48,6.79 L492.05,5.40 L492.63,4.00 L493.20,2.60 L493.78,1.19 L494.35,-0.21 L494.92,-1.63 L495.50,-3.05 L496.07,-4.47 L496.65,-5.90 L497.22,-7.33 L497.80,-8.76 L498.37,-10.20 L498.94,-11.64 L499.52,-13.09 L500.09,-14.55 L500.67,-16.00 L501.24,-17.46 L501.81,-18.93 L502.39,-20.40 L502.96,-21.87 L503.54,-23.35 L504.11,-24.83 L504.69,-26.32 L505.26,-27.81 L505.83,-29.30 L506.41,-30.80 L506.98,-32.31 L507.56,-33.81 L508.13,-35.33 L508.70,-36.84 L509.28,-38.36 L509.85,-39.89 L510.43,-41.42 L511.00,-42.95 L511.58,-44.49 L512.15,-46.03 L512.72,-47.58 L513.30,-49.13 L513.87,-50.68 L514.45,-52.24 L515.02,-53.80 L515.59,-55.37 L516.17,-56.94 L516.74,-58.52 L517.32,-60.10 L517.89,-61.69 L518.46,-63.28 L519.04,-64.87 L519.61,-66.47 L520.19,-68.07 L520.76,-69.67 L521.34,-71.28 L521.91,-72.90 L522.48,-74.52 L523.06,-76.14 L523.63,-77.77 L524.21,-79.40 L524.78,-81.04 L525.35,-82.68 L525.93,-84.32 L526.50,-85.97 L527.08,-87.62 L527.65,-89.28 L528.23,-90.94 L528.80,-92.61 L529.37,-94.28 L529.95,-95.95 L530.52,-97.63 L531.10,-99.32 L531.67,-101.00 L532.24,-102.70 L532.82,-104.39 L533.39,-106.09 L533.97,-107.80 L534.54,-109.51 L535.12,-111.22 L535.69,-112.94 L536.26,-114.66 L536.84,-116.38 L537.41,-118.11 L537.99,-119.85 L538.56,-121.59 L539.13,-123.33 L539.71,-125.08 L540.28,-126.83 L540.86,-128.58 L541.43,-130.34 L542.01,-132.11 L542.58,-133.88 L543.15,-135.65 L543.73,-137.43 L544.30,-139.21 L544.88,-140.99 L545.45,-142.78 L546.02,-144.58 L546.60,-146.38 L547.17,-148.18 L547.75,-149.99 L548.32,-151.80 L548.90,-153.61 L549.47,-155.43 L550.04,-157.26 L550.62,-159.09 L551.19,-160.92 L551.77,-162.76 L552.34,-164.60 L552.91,-166.44 L553.49,-168.29 L554.06,-170.15 L554.64,-172.01 L555.21,-173.87 L555.79,-175.74 L556.36,-177.61 L556.93,-179.48 L557.51,-181.36 L558.08,-183.25 L558.66,-185.13 L559.23,-187.03 L559.80,-188.92 L560.38,-190.83 L560.95,-192.73 L561.53,-194.64 L562.10,-196.55 L562.68,-198.47 L563.25,-200.40 L563.82,-202.32 L564.40,-204.25 L564.97,-206.19 L565.55,-208.13 L566.12,-210.07 L566.69,-212.02 L567.27,-213.97 L567.84,-215.93 L568.42,-217.89 L568.99,-219.86 L569.57,-221.83 L570.14,-223.80 L570.71,-225.78 L571.29,-227.76 L571.86,-229.75 L572.44,-231.74 L573.01,-233.73 L573.58,-235.73 L574.16,-237.74 L574.73,-239.74 L575.31,-241.76 L575.88,-243.77 L576.45,-245.79 L577.03,-247.82 L577.60,-249.00 L578.18,-249.00 L578.75,-249.00 L579.33,-249.00 L579.90,-249.00 L580.47,-249.00 L581.05,-249.00 L581.62,-249.00 L582.20,-249.00 L582.77,-249.00 L583.34,-249.00 L583.92,-249.00 L584.49,-249.00 L585.07,-249.00 L585.64,-249.00 L586.22,-249.00 L586.79,-249.00 L587.36,-249.00 L587.94,-249.00 L588.51,-249.00 L589.09,-249.00 L589.66,-249.00 L590.23,-249.00 L590.81,-249.00 L591.38,-249.00 L591.96,-249.00 L592.53,-249.00 L593.11,-249.00 L593.68,-249.00 L594.25,-249.00 L594.83,-249.00 L595.40,-249.00 L595.98,-249.00 L596.55,-249.00 L597.12,-249.00 L597.70,-249.00 L598.27,-249.00 L598.85,-249.00 L599.42,-249.00 L600.00,-249.00 L600.57,-249.00 L601.14,-249.00 L601.72,-249.00 L602.29,-249.00 L602.87,-249.00 L603.44,-249.00 L604.01,-249.00 L604.59,-249.00 L605.16,-249.00 L605.74,-249.00 L606.31,-249.00 L606.89,-249.00 L607.46,-249.00 L608.03,-249.00 L608.61,-249.00 L609.18,-249.00 L609.76,-249.00 L610.33,-249.00 L610.90,-249.00 L611.48,-249.00 L612.05,-249.00 L612.63,-249.00 L613.20,-249.00 L613.78,-249.00 L614.35,-249.00 L614.92,-249.00 L615.50,-249.00 L616.07,-249.00 L616.65,-249.00 L617.22,-249.00 L617.79,-249.00 L618.37,-249.00 L618.94,-249.00 L619.52,-249.00 L620.09,-249.00 L620.67,-249.00 L621.24,-249.00 L621.81,-249.00 L622.39,-249.00 L622.96,-249.00 L623.54,-249.00 L624.11,-249.00 L624.68,-249.00 L625.26,-249.00 L625.83,-249.00 L626.41,-249.00 L626.98,-249.00 L627.56,-249.00 L628.13,-249.00 L628.70,-249.00 L629.28,-249.00 L629.85,-249.00 L630.43,-249.00 L631.00,-249.00" style="stroke-width: 2; stroke: rgb(74, 144, 226); stroke-opacity: 0.8;"/></g></g><g class="test-xtl" style="font-family: &quot;Open Sans&quot;, verdana, arial, sans-serif;"/><g class="test-ytl" style="font-family: &quot;Open Sans&quot;, verdana, arial, sans-serif;"/><rect class="real" x="1" y="1" width="629" height="247" style="fill: transparent; stroke: none;"/></g></g></g><g class="arrow-line"><path class="connection real" stroke-dasharray="1.125 3.35" d="  M457.67,102.67 L459,202.67" style="stroke: rgb(0, 0, 0); stroke-width: 1; fill: none; fill-opacity: 1;"/></g><g class="arrow-line"><path class="connection real" stroke-dasharray="1.125 3.35" d="  M312.33,102 L457.67,102.67" style="stroke: rgb(0, 0, 0); stroke-width: 1; fill: none; fill-opacity: 1;"/></g><g class="arrow-line"><path class="connection real" stroke-dasharray="" d="  M457,0 L457.67,102.67" style="stroke: rgb(0, 0, 0); stroke-width: 1; fill: none; fill-opacity: 1;"/></g><g class="arrow-line"><path class="connection real" stroke-dasharray="" d="  M311,202.67 L457.67,102.67" style="stroke: rgb(0, 0, 0); stroke-width: 1; fill: none; fill-opacity: 1;"/></g><g/></g><g/><g/><g/></svg>
        <svg xmlns="http://www.w3.org/2000/svg" xmlns:xlink="http://www.w3.org/1999/xlink" width="660" height="260.1875" style="width:660px;height:260.1875px;font-family:Asana-Math, Asana;background:#FFF;"><g><g><g><g><g><g><g transform="matrix(1,0,0,1,276.328125,107.4640625)"><path transform="matrix(0.015300000000000001,0,0,-0.015300000000000001,0,0)" d="M235 722L223 733C171 707 135 698 63 691L59 670L107 670C131 670 141 663 141 646C141 639 140 628 139 622L38 71C37 68 37 64 37 61C37 22 85 -11 140 -11C177 -11 228 8 271 39C367 107 433 244 433 376C433 414 424 453 412 468C405 477 392 482 377 482C353 482 323 474 295 460C244 433 211 403 149 324ZM322 424C348 424 361 401 361 352C361 288 340 202 310 137C277 68 237 36 183 36C137 36 112 59 112 101C112 135 127 276 208 361C241 395 293 424 322 424Z" stroke="rgb(0,0,0)" stroke-opacity="1" stroke-width="8" fill="rgb(0,0,0)" fill-opacity="1"></path></g></g></g></g></g></g></g><g><g><g><g><g><g><g transform="matrix(1,0,0,1,455,221.4640625)"><path transform="matrix(0.015300000000000001,0,0,-0.015300000000000001,0,0)" d="M271 204L242 77C238 60 236 42 236 26C236 4 245 -9 260 -9C283 -9 324 17 406 85L399 106C375 86 346 59 324 59C315 59 309 68 309 82C309 87 309 90 310 93L402 472L392 481L359 463C318 478 301 482 274 482C246 482 226 477 199 464C137 433 104 403 79 354C35 265 4 145 4 67C4 23 19 -11 38 -11C75 -11 155 41 271 204ZM319 414C297 305 278 253 244 201C187 117 126 59 94 59C82 59 76 72 76 99C76 163 104 280 139 360C163 415 186 433 234 433C257 433 275 429 319 414Z" stroke="rgb(0,0,0)" stroke-opacity="1" stroke-width="8" fill="rgb(0,0,0)" fill-opacity="1"></path></g></g></g></g></g></g></g><g><g><g><g><g><g><g transform="matrix(1,0,0,1,467.6640625,106.628125)"><path transform="matrix(0.015300000000000001,0,0,-0.015300000000000001,0,0)" d="M146 266C146 526 243 632 301 700L282 726C225 675 60 542 60 266C60 159 85 58 133 -32C168 -99 200 -138 282 -215L301 -194C255 -137 146 -15 146 266Z" stroke="rgb(0,0,0)" stroke-opacity="1" stroke-width="8" fill="rgb(0,0,0)" fill-opacity="1"></path></g></g><g><g transform="matrix(1,0,0,1,472.75,106.128125)"><path transform="matrix(0.015300000000000001,0,0,-0.015300000000000001,0,0)" d="M271 204L242 77C238 60 236 42 236 26C236 4 245 -9 260 -9C283 -9 324 17 406 85L399 106C375 86 346 59 324 59C315 59 309 68 309 82C309 87 309 90 310 93L402 472L392 481L359 463C318 478 301 482 274 482C246 482 226 477 199 464C137 433 104 403 79 354C35 265 4 145 4 67C4 23 19 -11 38 -11C75 -11 155 41 271 204ZM319 414C297 305 278 253 244 201C187 117 126 59 94 59C82 59 76 72 76 99C76 163 104 280 139 360C163 415 186 433 234 433C257 433 275 429 319 414Z" stroke="rgb(0,0,0)" stroke-opacity="1" stroke-width="8" fill="rgb(0,0,0)" fill-opacity="1"></path></g></g><g><g transform="matrix(1,0,0,1,479.53125,106.128125)"><path transform="matrix(0.015300000000000001,0,0,-0.015300000000000001,0,0)" d="M204 123C177 114 159 108 106 93C99 17 74 -48 16 -144L30 -155L71 -136C152 -31 190 32 218 109Z" stroke="rgb(0,0,0)" stroke-opacity="1" stroke-width="8" fill="rgb(0,0,0)" fill-opacity="1"></path></g></g><g><g transform="matrix(1,0,0,1,486.3984375,106.128125)"><path transform="matrix(0.015300000000000001,0,0,-0.015300000000000001,0,0)" d="M235 722L223 733C171 707 135 698 63 691L59 670L107 670C131 670 141 663 141 646C141 639 140 628 139 622L38 71C37 68 37 64 37 61C37 22 85 -11 140 -11C177 -11 228 8 271 39C367 107 433 244 433 376C433 414 424 453 412 468C405 477 392 482 377 482C353 482 323 474 295 460C244 433 211 403 149 324ZM322 424C348 424 361 401 361 352C361 288 340 202 310 137C277 68 237 36 183 36C137 36 112 59 112 101C112 135 127 276 208 361C241 395 293 424 322 424Z" stroke="rgb(0,0,0)" stroke-opacity="1" stroke-width="8" fill="rgb(0,0,0)" fill-opacity="1"></path></g></g><g><g transform="matrix(1,0,0,1,493.46875,106.628125)"><path transform="matrix(0.015300000000000001,0,0,-0.015300000000000001,0,0)" d="M51 726L32 700C87 636 187 526 187 266C187 -10 83 -131 32 -194L51 -215C104 -165 273 -23 273 265C273 542 108 675 51 726Z" stroke="rgb(0,0,0)" stroke-opacity="1" stroke-width="8" fill="rgb(0,0,0)" fill-opacity="1"></path></g></g></g></g></g></g></g><g><g><g><g><g><g><g transform="matrix(1,0,0,1,344.328125,196.659375)"><path transform="matrix(0.015300000000000001,0,0,-0.015300000000000001,0,0)" d="M237 -16C473 -16 572 316 576 504C578 618 546 702 419 702C159 702 72 412 69 199C67 80 101 -16 237 -16ZM401 676C536 676 506 491 485 381L169 381C194 485 272 676 401 676ZM253 13C102 13 147 261 163 349L479 349C454 237 396 13 253 13Z" stroke="rgb(0,0,0)" stroke-opacity="1" stroke-width="8" fill="rgb(0,0,0)" fill-opacity="1"></path></g></g></g></g></g></g></g><g><g><g><text x="241" y="181.1640625" style="white-space:pre;stroke:none;fill:rgb(0,0,0);fill-opacity:1;font-size:13.5px;font-family:Arial, Helvetica, sans-serif;font-weight:400;font-style:normal;dominant-baseline:text-before-edge;text-decoration:none solid rgb(0, 0, 0);">focus </text></g><g><g><g><g><g transform="matrix(1,0,0,1,277.0234375,193.9640625)"><path transform="matrix(0.015300000000000001,0,0,-0.015300000000000001,0,0)" d="M146 266C146 526 243 632 301 700L282 726C225 675 60 542 60 266C60 159 85 58 133 -32C168 -99 200 -138 282 -215L301 -194C255 -137 146 -15 146 266Z" stroke="rgb(0,0,0)" stroke-opacity="1" stroke-width="8" fill="rgb(0,0,0)" fill-opacity="1"></path></g></g><g><g transform="matrix(1,0,0,1,282.109375,193.4640625)"><path transform="matrix(0.015300000000000001,0,0,-0.015300000000000001,0,0)" d="M263 689C108 689 29 566 29 324C29 207 50 106 85 57C120 8 176 -20 238 -20C389 -20 465 110 465 366C465 585 400 689 263 689ZM245 654C342 654 381 556 381 316C381 103 343 15 251 15C154 15 113 116 113 360C113 571 150 654 245 654Z" stroke="rgb(0,0,0)" stroke-opacity="1" stroke-width="8" fill="rgb(0,0,0)" fill-opacity="1"></path></g></g><g><g transform="matrix(1,0,0,1,289.75,193.4640625)"><path transform="matrix(0.015300000000000001,0,0,-0.015300000000000001,0,0)" d="M204 123C177 114 159 108 106 93C99 17 74 -48 16 -144L30 -155L71 -136C152 -31 190 32 218 109Z" stroke="rgb(0,0,0)" stroke-opacity="1" stroke-width="8" fill="rgb(0,0,0)" fill-opacity="1"></path></g></g><g><g transform="matrix(1,0,0,1,296.6171875,193.4640625)"><path transform="matrix(0.015300000000000001,0,0,-0.015300000000000001,0,0)" d="M263 689C108 689 29 566 29 324C29 207 50 106 85 57C120 8 176 -20 238 -20C389 -20 465 110 465 366C465 585 400 689 263 689ZM245 654C342 654 381 556 381 316C381 103 343 15 251 15C154 15 113 116 113 360C113 571 150 654 245 654Z" stroke="rgb(0,0,0)" stroke-opacity="1" stroke-width="8" fill="rgb(0,0,0)" fill-opacity="1"></path></g></g><g><g transform="matrix(1,0,0,1,304.2578125,193.9640625)"><path transform="matrix(0.015300000000000001,0,0,-0.015300000000000001,0,0)" d="M51 726L32 700C87 636 187 526 187 266C187 -10 83 -131 32 -194L51 -215C104 -165 273 -23 273 265C273 542 108 675 51 726Z" stroke="rgb(0,0,0)" stroke-opacity="1" stroke-width="8" fill="rgb(0,0,0)" fill-opacity="1"></path></g></g></g></g></g></g></g></svg>
</svg>
