<svg xmlns="http://www.w3.org/2000/svg" xmlns:xlink="http://www.w3.org/1999/xlink" x="0" y="0" width="662" height="404" style="
        width:662px;
        height:404px;
        background: #FFF;
        fill: none;
">
        
        
        <svg xmlns="http://www.w3.org/2000/svg" class="role-diagram-draw-area"><g class="shapes-region" style="stroke: black; fill: none;"><g class="composite-shape" data-amt="diagram/shapes/plot" transform="matrix(1,0,0,1,134,19)"><g><g><g class="test-xgi"><line x1="26.500000000000018" y1="0" x2="26.500000000000018" y2="363" fill="none" stroke="#c3c3c3" stroke-width="0.5"/><line x1="64.80000000000001" y1="0" x2="64.80000000000001" y2="363" fill="none" stroke="#c3c3c3" stroke-width="0.5"/><line x1="103.10000000000001" y1="0" x2="103.10000000000001" y2="363" fill="none" stroke="#c3c3c3" stroke-width="0.5"/><line x1="141.40000000000003" y1="0" x2="141.40000000000003" y2="363" fill="none" stroke="#c3c3c3" stroke-width="0.5"/><line x1="179.70000000000002" y1="0" x2="179.70000000000002" y2="363" fill="none" stroke="#c3c3c3" stroke-width="0.5"/><line x1="218.00000000000003" y1="0" x2="218.00000000000003" y2="363" fill="none" stroke="#c3c3c3" stroke-width="0.5"/><line x1="256.3" y1="0" x2="256.3" y2="363" fill="none" stroke="#c3c3c3" stroke-width="0.5"/><line x1="294.6" y1="0" x2="294.6" y2="363" fill="none" stroke="#c3c3c3" stroke-width="0.5"/><line x1="332.90000000000003" y1="0" x2="332.90000000000003" y2="363" fill="none" stroke="#c3c3c3" stroke-width="0.5"/><line x1="371.2" y1="0" x2="371.2" y2="363" fill="none" stroke="#c3c3c3" stroke-width="0.5"/><line x1="409.5" y1="0" x2="409.5" y2="363" fill="none" stroke="#c3c3c3" stroke-width="0.5"/></g><g class="test-ygi"><line x1="0" y1="353.8" x2="430" y2="353.8" fill="none" stroke="#c3c3c3" stroke-width="0.5"/><line x1="0" y1="315.6" x2="430" y2="315.6" fill="none" stroke="#c3c3c3" stroke-width="0.5"/><line x1="0" y1="277.4" x2="430" y2="277.4" fill="none" stroke="#c3c3c3" stroke-width="0.5"/><line x1="0" y1="239.2" x2="430" y2="239.2" fill="none" stroke="#c3c3c3" stroke-width="0.5"/><line x1="0" y1="200.99999999999997" x2="430" y2="200.99999999999997" fill="none" stroke="#c3c3c3" stroke-width="0.5"/><line x1="0" y1="162.79999999999995" x2="430" y2="162.79999999999995" fill="none" stroke="#c3c3c3" stroke-width="0.5"/><line x1="0" y1="124.6" x2="430" y2="124.6" fill="none" stroke="#c3c3c3" stroke-width="0.5"/><line x1="0" y1="86.39999999999998" x2="430" y2="86.39999999999998" fill="none" stroke="#c3c3c3" stroke-width="0.5"/><line x1="0" y1="48.19999999999999" x2="430" y2="48.19999999999999" fill="none" stroke="#c3c3c3" stroke-width="0.5"/><line x1="0" y1="10" x2="430" y2="10" fill="none" stroke="#c3c3c3" stroke-width="0.5"/></g></g><g><g class="test-xti" style="font-family: Asana-Math, Asana;"><line x1="0" y1="201" x2="426" y2="201" fill="none" stroke="rgb(50,50,50)" stroke-opacity="1" stroke-width="1"/><line x1="26.500000000000018" y1="197" x2="26.500000000000018" y2="205" fill="none" stroke="rgb(50,50,50)" stroke-opacity="1" stroke-width="1"/><line x1="64.80000000000001" y1="197" x2="64.80000000000001" y2="205" fill="none" stroke="rgb(50,50,50)" stroke-opacity="1" stroke-width="1"/><line x1="103.10000000000001" y1="197" x2="103.10000000000001" y2="205" fill="none" stroke="rgb(50,50,50)" stroke-opacity="1" stroke-width="1"/><line x1="141.40000000000003" y1="197" x2="141.40000000000003" y2="205" fill="none" stroke="rgb(50,50,50)" stroke-opacity="1" stroke-width="1"/><line x1="179.70000000000002" y1="197" x2="179.70000000000002" y2="205" fill="none" stroke="rgb(50,50,50)" stroke-opacity="1" stroke-width="1"/><line x1="256.3" y1="197" x2="256.3" y2="205" fill="none" stroke="rgb(50,50,50)" stroke-opacity="1" stroke-width="1"/><line x1="294.6" y1="197" x2="294.6" y2="205" fill="none" stroke="rgb(50,50,50)" stroke-opacity="1" stroke-width="1"/><line x1="332.90000000000003" y1="197" x2="332.90000000000003" y2="205" fill="none" stroke="rgb(50,50,50)" stroke-opacity="1" stroke-width="1"/><line x1="371.2" y1="197" x2="371.2" y2="205" fill="none" stroke="rgb(50,50,50)" stroke-opacity="1" stroke-width="1"/><line x1="409.5" y1="197" x2="409.5" y2="205" fill="none" stroke="rgb(50,50,50)" stroke-opacity="1" stroke-width="1"/><path d="M421,197.4 L429,201 L421,204.6 Z" stroke="none" stroke-width="1" fill="rgb(50,50,50)" fill-opacity="1"/></g><g class="test-yti" style="font-family: Asana-Math, Asana;"><line x1="218" y1="4" x2="218" y2="363" fill="none" stroke="rgb(50,50,50)" stroke-opacity="1" stroke-width="1"/><line x1="214" y1="353.8" x2="222" y2="353.8" fill="none" stroke="rgb(50,50,50)" stroke-opacity="1" stroke-width="1"/><line x1="214" y1="315.6" x2="222" y2="315.6" fill="none" stroke="rgb(50,50,50)" stroke-opacity="1" stroke-width="1"/><line x1="214" y1="277.4" x2="222" y2="277.4" fill="none" stroke="rgb(50,50,50)" stroke-opacity="1" stroke-width="1"/><line x1="214" y1="239.2" x2="222" y2="239.2" fill="none" stroke="rgb(50,50,50)" stroke-opacity="1" stroke-width="1"/><line x1="214" y1="162.79999999999995" x2="222" y2="162.79999999999995" fill="none" stroke="rgb(50,50,50)" stroke-opacity="1" stroke-width="1"/><line x1="214" y1="124.6" x2="222" y2="124.6" fill="none" stroke="rgb(50,50,50)" stroke-opacity="1" stroke-width="1"/><line x1="214" y1="86.39999999999998" x2="222" y2="86.39999999999998" fill="none" stroke="rgb(50,50,50)" stroke-opacity="1" stroke-width="1"/><line x1="214" y1="48.19999999999999" x2="222" y2="48.19999999999999" fill="none" stroke="rgb(50,50,50)" stroke-opacity="1" stroke-width="1"/><line x1="214" y1="10" x2="222" y2="10" fill="none" stroke="rgb(50,50,50)" stroke-opacity="1" stroke-width="1"/><path d="M214.4,9 L218,1 L221.6,9 Z" stroke="none" stroke-width="1" fill="rgb(50,50,50)" fill-opacity="1"/></g><g class="test-plot-expression"><defs><clipPath id="cpgyqq8f6d0"><rect x="1" y="1" width="428" height="361"/></clipPath></defs><g clip-path="url(#cpgyqq8f6d0)"/></g><g class="test-xtl" style="font-family: &quot;Open Sans&quot;, verdana, arial, sans-serif;"><text text-anchor="middle" font-size="11" dominant-baseline="hanging" stroke="none" fill="rgb(50,50,50)" fill-opacity="1" x="23.365000000000016" y="208">-5</text><text text-anchor="middle" font-size="11" dominant-baseline="hanging" stroke="none" fill="rgb(50,50,50)" fill-opacity="1" x="61.66500000000001" y="208">-4</text><text text-anchor="middle" font-size="11" dominant-baseline="hanging" stroke="none" fill="rgb(50,50,50)" fill-opacity="1" x="99.965" y="208">-3</text><text text-anchor="middle" font-size="11" dominant-baseline="hanging" stroke="none" fill="rgb(50,50,50)" fill-opacity="1" x="138.26500000000004" y="208">-2</text><text text-anchor="middle" font-size="11" dominant-baseline="hanging" stroke="none" fill="rgb(50,50,50)" fill-opacity="1" x="176.56500000000003" y="208">-1</text><text text-anchor="middle" font-size="11" dominant-baseline="hanging" stroke="none" fill="rgb(50,50,50)" fill-opacity="1" x="256.3" y="208">1</text><text text-anchor="middle" font-size="11" dominant-baseline="hanging" stroke="none" fill="rgb(50,50,50)" fill-opacity="1" x="294.6" y="208">2</text><text text-anchor="middle" font-size="11" dominant-baseline="hanging" stroke="none" fill="rgb(50,50,50)" fill-opacity="1" x="332.90000000000003" y="208">3</text><text text-anchor="middle" font-size="11" dominant-baseline="hanging" stroke="none" fill="rgb(50,50,50)" fill-opacity="1" x="371.2" y="208">4</text><text text-anchor="middle" font-size="11" dominant-baseline="hanging" stroke="none" fill="rgb(50,50,50)" fill-opacity="1" x="409.5" y="208">5</text><text text-anchor="middle" font-size="11" dominant-baseline="hanging" stroke="none" fill="rgb(50,50,50)" fill-opacity="1" x="210.00000000000003" y="206">0</text></g><g class="test-ytl" style="font-family: &quot;Open Sans&quot;, verdana, arial, sans-serif;"><text text-anchor="end" dominant-baseline="middle" font-size="11" stroke="none" fill="rgb(50,50,50)" fill-opacity="1" x="210" y="353.8">-4</text><text text-anchor="end" dominant-baseline="middle" font-size="11" stroke="none" fill="rgb(50,50,50)" fill-opacity="1" x="210" y="315.6">-3</text><text text-anchor="end" dominant-baseline="middle" font-size="11" stroke="none" fill="rgb(50,50,50)" fill-opacity="1" x="210" y="277.4">-2</text><text text-anchor="end" dominant-baseline="middle" font-size="11" stroke="none" fill="rgb(50,50,50)" fill-opacity="1" x="210" y="239.2">-1</text><text text-anchor="end" dominant-baseline="middle" font-size="11" stroke="none" fill="rgb(50,50,50)" fill-opacity="1" x="210" y="162.79999999999995">1</text><text text-anchor="end" dominant-baseline="middle" font-size="11" stroke="none" fill="rgb(50,50,50)" fill-opacity="1" x="210" y="124.6">2</text><text text-anchor="end" dominant-baseline="middle" font-size="11" stroke="none" fill="rgb(50,50,50)" fill-opacity="1" x="210" y="86.39999999999998">3</text><text text-anchor="end" dominant-baseline="middle" font-size="11" stroke="none" fill="rgb(50,50,50)" fill-opacity="1" x="210" y="48.19999999999999">4</text><text text-anchor="end" dominant-baseline="middle" font-size="11" stroke="none" fill="rgb(50,50,50)" fill-opacity="1" x="210" y="10">5</text></g><rect class="real" x="1" y="1" width="428" height="361" style="fill: transparent; stroke: none;"/></g></g></g><g class="arrow-line"><path class="connection real" stroke-dasharray="" d="  M277.35,258.49 L426.15,258.01" style="stroke: rgb(0, 0, 0); stroke-width: 1; fill: none; fill-opacity: 1;"/><g stroke="#000" transform="matrix(0.9999945016606114,-0.0033161195010590746,0.0033161195010590746,0.9999945016606114,428.5,258)" style="stroke: rgb(0, 0, 0); stroke-width: 1;"><circle cx="0" cy="0" r="3.35"/></g><g stroke="#000" transform="matrix(0.9999945016606114,-0.0033161195010590746,0.0033161195010590746,0.9999945016606114,275,258.5)" style="stroke: rgb(0, 0, 0); stroke-width: 1;"><circle cx="0" cy="0" r="3.35"/></g></g><g class="arrow-line"><path class="connection real" stroke-dasharray="" d="  M243.5,19.25 C242.03,-7.7 246.8,158.87 273.35,180.6" style="stroke: rgb(0, 0, 0); stroke-width: 1; fill: none; fill-opacity: 1;"/><g stroke="#000" transform="matrix(0.8682854073831971,0.4960649668394204,-0.4960649668394204,0.8682854073831971,275,181.75)" style="stroke: rgb(0, 0, 0); stroke-width: 1;"><circle cx="0" cy="0" r="3.35"/></g></g><g class="arrow-line"><path class="connection real" stroke-dasharray="" d="  M430.73,179.16 C452.85,153.98 459.51,80.58 460,15.25" style="stroke: rgb(0, 0, 0); stroke-width: 1; fill: none; fill-opacity: 1;"/><g stroke="#000" transform="matrix(0.7109222285813257,-0.7032706341864143,0.7032706341864143,0.7109222285813257,429,181)" style="stroke: rgb(0, 0, 0); stroke-width: 1;"><circle cx="0" cy="0" r="3.35"/></g></g><g/></g><g/><g/><g/></svg>
        <svg xmlns="http://www.w3.org/2000/svg" xmlns:xlink="http://www.w3.org/1999/xlink" width="660" height="402" style="width:660px;height:402px;font-family:Asana-Math, Asana;background:#FFF;"></svg>
</svg>
