<svg xmlns="http://www.w3.org/2000/svg" xmlns:xlink="http://www.w3.org/1999/xlink" x="0" y="0" width="662" height="302" style="
        width:662px;
        height:302px;
        background: #FFF;
        fill: none;
">
        
        
        <svg xmlns="http://www.w3.org/2000/svg" class="role-diagram-draw-area"><g class="shapes-region" style="stroke: black; fill: none;"><g class="composite-shape" data-amt="diagram/shapes/plot" transform="matrix(1,0,0,1,116.99999999999997,8)"><g><g><g class="test-xgi"><line x1="96.26887662708758" y1="0" x2="96.26887662708758" y2="250" fill="none" stroke="#c3c3c3" stroke-width="0.5"/><line x1="195.5816643675789" y1="0" x2="195.5816643675789" y2="250" fill="none" stroke="#c3c3c3" stroke-width="0.5"/><line x1="294.89445210807025" y1="0" x2="294.89445210807025" y2="250" fill="none" stroke="#c3c3c3" stroke-width="0.5"/><line x1="394.2072398485616" y1="0" x2="394.2072398485616" y2="250" fill="none" stroke="#c3c3c3" stroke-width="0.5"/></g><g class="test-ygi"><line x1="0" y1="166.625" x2="430" y2="166.625" fill="none" stroke="#c3c3c3" stroke-width="0.5"/><line x1="0" y1="67.31221225950867" x2="430" y2="67.31221225950867" fill="none" stroke="#c3c3c3" stroke-width="0.5"/></g></g><g><g class="test-xti" style="font-family: Asana-Math, Asana;"><line x1="0" y1="166.625" x2="426" y2="166.625" fill="none" stroke="rgb(50,50,50)" stroke-opacity="1" stroke-width="1"/><line x1="96.26887662708758" y1="162.625" x2="96.26887662708758" y2="170.625" fill="none" stroke="rgb(50,50,50)" stroke-opacity="1" stroke-width="1"/><line x1="294.89445210807025" y1="162.625" x2="294.89445210807025" y2="170.625" fill="none" stroke="rgb(50,50,50)" stroke-opacity="1" stroke-width="1"/><line x1="394.2072398485616" y1="162.625" x2="394.2072398485616" y2="170.625" fill="none" stroke="rgb(50,50,50)" stroke-opacity="1" stroke-width="1"/><path d="M421,163.025 L429,166.625 L421,170.225 Z" stroke="none" stroke-width="1" fill="rgb(50,50,50)" fill-opacity="1"/></g><g class="test-yti" style="font-family: Asana-Math, Asana;"><line x1="195.58166436757892" y1="4" x2="195.58166436757892" y2="250" fill="none" stroke="rgb(50,50,50)" stroke-opacity="1" stroke-width="1"/><line x1="191.58166436757892" y1="67.31221225950867" x2="199.58166436757892" y2="67.31221225950867" fill="none" stroke="rgb(50,50,50)" stroke-opacity="1" stroke-width="1"/><path d="M191.98166436757893,9 L195.58166436757892,1 L199.18166436757892,9 Z" stroke="none" stroke-width="1" fill="rgb(50,50,50)" fill-opacity="1"/></g><g class="test-plot-expression"><defs><clipPath id="cpwnep5qyu7"><rect x="1" y="1" width="428" height="248"/></clipPath></defs><g clip-path="url(#cpwnep5qyu7)"><path d=" M0.00,-74.11 L0.50,-72.87 L1.00,-71.65 L1.50,-70.42 L2.00,-69.20 L2.50,-67.98 L3.00,-66.77 L3.50,-65.56 L4.00,-64.35 L4.51,-63.14 L5.01,-61.94 L5.51,-60.74 L6.01,-59.55 L6.51,-58.35 L7.01,-57.16 L7.51,-55.98 L8.01,-54.79 L8.51,-53.61 L9.01,-52.44 L9.51,-51.26 L10.01,-50.09 L10.51,-48.92 L11.01,-47.76 L11.51,-46.60 L12.01,-45.44 L12.51,-44.28 L13.02,-43.13 L13.52,-41.98 L14.02,-40.84 L14.52,-39.70 L15.02,-38.56 L15.52,-37.42 L16.02,-36.29 L16.52,-35.16 L17.02,-34.03 L17.52,-32.91 L18.02,-31.79 L18.52,-30.67 L19.02,-29.56 L19.52,-28.45 L20.02,-27.34 L20.52,-26.23 L21.02,-25.13 L21.53,-24.03 L22.03,-22.94 L22.53,-21.85 L23.03,-20.76 L23.53,-19.67 L24.03,-18.59 L24.53,-17.51 L25.03,-16.43 L25.53,-15.36 L26.03,-14.29 L26.53,-13.22 L27.03,-12.16 L27.53,-11.10 L28.03,-10.04 L28.53,-8.99 L29.03,-7.94 L29.53,-6.89 L30.03,-5.85 L30.54,-4.80 L31.04,-3.77 L31.54,-2.73 L32.04,-1.70 L32.54,-0.67 L33.04,0.36 L33.54,1.38 L34.04,2.40 L34.54,3.41 L35.04,4.43 L35.54,5.44 L36.04,6.44 L36.54,7.45 L37.04,8.45 L37.54,9.44 L38.04,10.44 L38.54,11.43 L39.05,12.42 L39.55,13.40 L40.05,14.38 L40.55,15.36 L41.05,16.34 L41.55,17.31 L42.05,18.28 L42.55,19.24 L43.05,20.21 L43.55,21.17 L44.05,22.12 L44.55,23.08 L45.05,24.03 L45.55,24.97 L46.05,25.92 L46.55,26.86 L47.05,27.79 L47.56,28.73 L48.06,29.66 L48.56,30.59 L49.06,31.51 L49.56,32.43 L50.06,33.35 L50.56,34.27 L51.06,35.18 L51.56,36.09 L52.06,36.99 L52.56,37.90 L53.06,38.80 L53.56,39.69 L54.06,40.59 L54.56,41.48 L55.06,42.36 L55.56,43.25 L56.07,44.13 L56.57,45.01 L57.07,45.88 L57.57,46.75 L58.07,47.62 L58.57,48.48 L59.07,49.35 L59.57,50.20 L60.07,51.06 L60.57,51.91 L61.07,52.76 L61.57,53.61 L62.07,54.45 L62.57,55.29 L63.07,56.13 L63.57,56.96 L64.07,57.79 L64.58,58.62 L65.08,59.44 L65.58,60.26 L66.08,61.08 L66.58,61.89 L67.08,62.70 L67.58,63.51 L68.08,64.32 L68.58,65.12 L69.08,65.92 L69.58,66.71 L70.08,67.50 L70.58,68.29 L71.08,69.08 L71.58,69.86 L72.08,70.64 L72.58,71.42 L73.08,72.19 L73.59,72.96 L74.09,73.73 L74.59,74.49 L75.09,75.25 L75.59,76.01 L76.09,76.77 L76.59,77.52 L77.09,78.27 L77.59,79.01 L78.09,79.75 L78.59,80.49 L79.09,81.23 L79.59,81.96 L80.09,82.69 L80.59,83.41 L81.09,84.14 L81.59,84.86 L82.10,85.57 L82.60,86.29 L83.10,87.00 L83.60,87.70 L84.10,88.41 L84.60,89.11 L85.10,89.81 L85.60,90.50 L86.10,91.19 L86.60,91.88 L87.10,92.57 L87.60,93.25 L88.10,93.93 L88.60,94.60 L89.10,95.27 L89.60,95.94 L90.10,96.61 L90.61,97.27 L91.11,97.93 L91.61,98.59 L92.11,99.24 L92.61,99.89 L93.11,100.54 L93.61,101.18 L94.11,101.83 L94.61,102.46 L95.11,103.10 L95.61,103.73 L96.11,104.36 L96.61,104.98 L97.11,105.61 L97.61,106.22 L98.11,106.84 L98.61,107.45 L99.12,108.06 L99.62,108.67 L100.12,109.27 L100.62,109.87 L101.12,110.47 L101.62,111.06 L102.12,111.65 L102.62,112.24 L103.12,112.82 L103.62,113.40 L104.12,113.98 L104.62,114.56 L105.12,115.13 L105.62,115.70 L106.12,116.26 L106.62,116.82 L107.12,117.38 L107.63,117.94 L108.13,118.49 L108.63,119.04 L109.13,119.59 L109.63,120.13 L110.13,120.67 L110.63,121.21 L111.13,121.74 L111.63,122.27 L112.13,122.80 L112.63,123.32 L113.13,123.84 L113.63,124.36 L114.13,124.88 L114.63,125.39 L115.13,125.90 L115.63,126.40 L116.14,126.90 L116.64,127.40 L117.14,127.90 L117.64,128.39 L118.14,128.88 L118.64,129.37 L119.14,129.85 L119.64,130.33 L120.14,130.81 L120.64,131.28 L121.14,131.75 L121.64,132.22 L122.14,132.68 L122.64,133.14 L123.14,133.60 L123.64,134.06 L124.14,134.51 L124.64,134.96 L125.15,135.40 L125.65,135.84 L126.15,136.28 L126.65,136.72 L127.15,137.15 L127.65,137.58 L128.15,138.01 L128.65,138.43 L129.15,138.85 L129.65,139.27 L130.15,139.68 L130.65,140.09 L131.15,140.50 L131.65,140.91 L132.15,141.31 L132.65,141.70 L133.15,142.10 L133.66,142.49 L134.16,142.88 L134.66,143.27 L135.16,143.65 L135.66,144.03 L136.16,144.40 L136.66,144.78 L137.16,145.15 L137.66,145.51 L138.16,145.88 L138.66,146.24 L139.16,146.59 L139.66,146.95 L140.16,147.30 L140.66,147.64 L141.16,147.99 L141.66,148.33 L142.17,148.67 L142.67,149.00 L143.17,149.34 L143.67,149.66 L144.17,149.99 L144.67,150.31 L145.17,150.63 L145.67,150.95 L146.17,151.26 L146.67,151.57 L147.17,151.88 L147.67,152.18 L148.17,152.48 L148.67,152.78 L149.17,153.07 L149.67,153.36 L150.17,153.65 L150.68,153.93 L151.18,154.22 L151.68,154.49 L152.18,154.77 L152.68,155.04 L153.18,155.31 L153.68,155.57 L154.18,155.84 L154.68,156.10 L155.18,156.35 L155.68,156.61 L156.18,156.86 L156.68,157.10 L157.18,157.35 L157.68,157.59 L158.18,157.82 L158.68,158.06 L159.19,158.29 L159.69,158.52 L160.19,158.74 L160.69,158.96 L161.19,159.18 L161.69,159.40 L162.19,159.61 L162.69,159.82 L163.19,160.02 L163.69,160.22 L164.19,160.42 L164.69,160.62 L165.19,160.81 L165.69,161.00 L166.19,161.19 L166.69,161.37 L167.19,161.55 L167.69,161.73 L168.20,161.91 L168.70,162.08 L169.20,162.24 L169.70,162.41 L170.20,162.57 L170.70,162.73 L171.20,162.88 L171.70,163.04 L172.20,163.18 L172.70,163.33 L173.20,163.47 L173.70,163.61 L174.20,163.75 L174.70,163.88 L175.20,164.01 L175.70,164.14 L176.20,164.26 L176.71,164.38 L177.21,164.50 L177.71,164.61 L178.21,164.73 L178.71,164.83 L179.21,164.94 L179.71,165.04 L180.21,165.14 L180.71,165.23 L181.21,165.33 L181.71,165.41 L182.21,165.50 L182.71,165.58 L183.21,165.66 L183.71,165.74 L184.21,165.81 L184.71,165.88 L185.22,165.95 L185.72,166.01 L186.22,166.07 L186.72,166.13 L187.22,166.18 L187.72,166.24 L188.22,166.28 L188.72,166.33 L189.22,166.37 L189.72,166.41 L190.22,166.44 L190.72,166.48 L191.22,166.51 L191.72,166.53 L192.22,166.55 L192.72,166.57 L193.22,166.59 L193.73,166.60 L194.23,166.61 L194.73,166.62 L195.23,166.62 L195.73,166.62 L196.23,166.62 L196.73,166.62 L197.23,166.61 L197.73,166.60 L198.23,166.58 L198.73,166.56 L199.23,166.54 L199.73,166.52 L200.23,166.49 L200.73,166.46 L201.23,166.42 L201.73,166.39 L202.24,166.35 L202.74,166.30 L203.24,166.26 L203.74,166.21 L204.24,166.15 L204.74,166.10 L205.24,166.04 L205.74,165.98 L206.24,165.91 L206.74,165.84 L207.24,165.77 L207.74,165.69 L208.24,165.62 L208.74,165.53 L209.24,165.45 L209.74,165.36 L210.24,165.27 L210.75,165.18 L211.25,165.08 L211.75,164.98 L212.25,164.88 L212.75,164.77 L213.25,164.66 L213.75,164.55 L214.25,164.43 L214.75,164.31 L215.25,164.19 L215.75,164.06 L216.25,163.94 L216.75,163.80 L217.25,163.67 L217.75,163.53 L218.25,163.39 L218.75,163.25 L219.25,163.10 L219.76,162.95 L220.26,162.79 L220.76,162.64 L221.26,162.48 L221.76,162.31 L222.26,162.15 L222.76,161.98 L223.26,161.80 L223.76,161.63 L224.26,161.45 L224.76,161.27 L225.26,161.08 L225.76,160.89 L226.26,160.70 L226.76,160.51 L227.26,160.31 L227.76,160.11 L228.27,159.90 L228.77,159.69 L229.27,159.48 L229.77,159.27 L230.27,159.05 L230.77,158.83 L231.27,158.61 L231.77,158.38 L232.27,158.15 L232.77,157.92 L233.27,157.69 L233.77,157.45 L234.27,157.20 L234.77,156.96 L235.27,156.71 L235.77,156.46 L236.27,156.20 L236.78,155.95 L237.28,155.68 L237.78,155.42 L238.28,155.15 L238.78,154.88 L239.28,154.61 L239.78,154.33 L240.28,154.05 L240.78,153.77 L241.28,153.48 L241.78,153.19 L242.28,152.90 L242.78,152.60 L243.28,152.31 L243.78,152.00 L244.28,151.70 L244.78,151.39 L245.29,151.08 L245.79,150.76 L246.29,150.45 L246.79,150.12 L247.29,149.80 L247.79,149.47 L248.29,149.14 L248.79,148.81 L249.29,148.47 L249.79,148.13 L250.29,147.79 L250.79,147.44 L251.29,147.09 L251.79,146.74 L252.29,146.38 L252.79,146.03 L253.29,145.66 L253.80,145.30 L254.30,144.93 L254.80,144.56 L255.30,144.18 L255.80,143.81 L256.30,143.43 L256.80,143.04 L257.30,142.65 L257.80,142.26 L258.30,141.87 L258.80,141.47 L259.30,141.07 L259.80,140.67 L260.30,140.26 L260.80,139.85 L261.30,139.44 L261.80,139.03 L262.31,138.61 L262.81,138.19 L263.31,137.76 L263.81,137.33 L264.31,136.90 L264.81,136.47 L265.31,136.03 L265.81,135.59 L266.31,135.14 L266.81,134.70 L267.31,134.25 L267.81,133.79 L268.31,133.34 L268.81,132.88 L269.31,132.41 L269.81,131.95 L270.31,131.48 L270.81,131.00 L271.32,130.53 L271.82,130.05 L272.32,129.57 L272.82,129.08 L273.32,128.60 L273.82,128.10 L274.32,127.61 L274.82,127.11 L275.32,126.61 L275.82,126.11 L276.32,125.60 L276.82,125.09 L277.32,124.58 L277.82,124.06 L278.32,123.54 L278.82,123.02 L279.32,122.49 L279.83,121.96 L280.33,121.43 L280.83,120.89 L281.33,120.36 L281.83,119.81 L282.33,119.27 L282.83,118.72 L283.33,118.17 L283.83,117.61 L284.33,117.06 L284.83,116.50 L285.33,115.93 L285.83,115.37 L286.33,114.80 L286.83,114.22 L287.33,113.65 L287.83,113.07 L288.34,112.48 L288.84,111.90 L289.34,111.31 L289.84,110.72 L290.34,110.12 L290.84,109.52 L291.34,108.92 L291.84,108.31 L292.34,107.71 L292.84,107.10 L293.34,106.48 L293.84,105.86 L294.34,105.24 L294.84,104.62 L295.34,103.99 L295.84,103.36 L296.34,102.73 L296.85,102.09 L297.35,101.45 L297.85,100.81 L298.35,100.16 L298.85,99.51 L299.35,98.86 L299.85,98.21 L300.35,97.55 L300.85,96.89 L301.35,96.22 L301.85,95.55 L302.35,94.88 L302.85,94.21 L303.35,93.53 L303.85,92.85 L304.35,92.17 L304.85,91.48 L305.36,90.79 L305.86,90.10 L306.36,89.40 L306.86,88.70 L307.36,88.00 L307.86,87.29 L308.36,86.58 L308.86,85.87 L309.36,85.16 L309.86,84.44 L310.36,83.72 L310.86,82.99 L311.36,82.26 L311.86,81.53 L312.36,80.80 L312.86,80.06 L313.36,79.32 L313.86,78.58 L314.37,77.83 L314.87,77.08 L315.37,76.33 L315.87,75.57 L316.37,74.81 L316.87,74.05 L317.37,73.28 L317.87,72.51 L318.37,71.74 L318.87,70.97 L319.37,70.19 L319.87,69.41 L320.37,68.62 L320.87,67.83 L321.37,67.04 L321.87,66.25 L322.37,65.45 L322.88,64.65 L323.38,63.85 L323.88,63.04 L324.38,62.23 L324.88,61.42 L325.38,60.60 L325.88,59.78 L326.38,58.96 L326.88,58.13 L327.38,57.31 L327.88,56.47 L328.38,55.64 L328.88,54.80 L329.38,53.96 L329.88,53.11 L330.38,52.27 L330.88,51.41 L331.39,50.56 L331.89,49.70 L332.39,48.84 L332.89,47.98 L333.39,47.11 L333.89,46.24 L334.39,45.37 L334.89,44.49 L335.39,43.61 L335.89,42.73 L336.39,41.85 L336.89,40.96 L337.39,40.07 L337.89,39.17 L338.39,38.27 L338.89,37.37 L339.39,36.47 L339.90,35.56 L340.40,34.65 L340.90,33.73 L341.40,32.82 L341.90,31.90 L342.40,30.97 L342.90,30.05 L343.40,29.12 L343.90,28.18 L344.40,27.25 L344.90,26.31 L345.40,25.37 L345.90,24.42 L346.40,23.47 L346.90,22.52 L347.40,21.57 L347.90,20.61 L348.41,19.65 L348.91,18.68 L349.41,17.71 L349.91,16.74 L350.41,15.77 L350.91,14.79 L351.41,13.81 L351.91,12.83 L352.41,11.84 L352.91,10.85 L353.41,9.86 L353.91,8.86 L354.41,7.86 L354.91,6.86 L355.41,5.86 L355.91,4.85 L356.41,3.84 L356.92,2.82 L357.42,1.80 L357.92,0.78 L358.42,-0.24 L358.92,-1.27 L359.42,-2.30 L359.92,-3.33 L360.42,-4.37 L360.92,-5.41 L361.42,-6.45 L361.92,-7.50 L362.42,-8.55 L362.92,-9.60 L363.42,-10.66 L363.92,-11.72 L364.42,-12.78 L364.92,-13.85 L365.42,-14.91 L365.93,-15.99 L366.43,-17.06 L366.93,-18.14 L367.43,-19.22 L367.93,-20.30 L368.43,-21.39 L368.93,-22.48 L369.43,-23.58 L369.93,-24.67 L370.43,-25.77 L370.93,-26.88 L371.43,-27.98 L371.93,-29.09 L372.43,-30.21 L372.93,-31.32 L373.43,-32.44 L373.93,-33.56 L374.44,-34.69 L374.94,-35.82 L375.44,-36.95 L375.94,-38.08 L376.44,-39.22 L376.94,-40.36 L377.44,-41.51 L377.94,-42.65 L378.44,-43.80 L378.94,-44.96 L379.44,-46.11 L379.94,-47.27 L380.44,-48.44 L380.94,-49.60 L381.44,-50.77 L381.94,-51.95 L382.44,-53.12 L382.95,-54.30 L383.45,-55.48 L383.95,-56.67 L384.45,-57.86 L384.95,-59.05 L385.45,-60.24 L385.95,-61.44 L386.45,-62.64 L386.95,-63.85 L387.45,-65.05 L387.95,-66.26 L388.45,-67.48 L388.95,-68.69 L389.45,-69.91 L389.95,-71.14 L390.45,-72.36 L390.95,-73.59 L391.46,-74.82 L391.96,-76.06 L392.46,-77.30 L392.96,-78.54 L393.46,-79.79 L393.96,-81.03 L394.46,-82.29 L394.96,-83.54 L395.46,-84.80 L395.96,-86.06 L396.46,-87.32 L396.96,-88.59 L397.46,-89.86 L397.96,-91.13 L398.46,-92.41 L398.96,-93.69 L399.46,-94.97 L399.97,-96.26 L400.47,-97.55 L400.97,-98.84 L401.47,-100.14 L401.97,-101.44 L402.47,-102.74 L402.97,-104.04 L403.47,-105.35 L403.97,-106.66 L404.47,-107.98 L404.97,-109.30 L405.47,-110.62 L405.97,-111.94 L406.47,-113.27 L406.97,-114.60 L407.47,-115.93 L407.97,-117.27 L408.47,-118.61 L408.98,-119.95 L409.48,-121.30 L409.98,-122.65 L410.48,-124.00 L410.98,-125.35 L411.48,-126.71 L411.98,-128.07 L412.48,-129.44 L412.98,-130.81 L413.48,-132.18 L413.98,-133.55 L414.48,-134.93 L414.98,-136.31 L415.48,-137.70 L415.98,-139.08 L416.48,-140.47 L416.98,-141.87 L417.49,-143.26 L417.99,-144.66 L418.49,-146.07 L418.99,-147.47 L419.49,-148.88 L419.99,-150.29 L420.49,-151.71 L420.99,-153.13 L421.49,-154.55 L421.99,-155.97 L422.49,-157.40 L422.99,-158.83 L423.49,-160.27 L423.99,-161.70 L424.49,-163.15 L424.99,-164.59 L425.49,-166.04 L426.00,-167.49 L426.50,-168.94 L427.00,-170.40 L427.50,-171.86 L428.00,-173.32 L428.50,-174.78 L429.00,-176.25 L429.50,-177.73 L430.00,-179.20" style="stroke-width: 2; stroke: rgb(74, 144, 226); stroke-opacity: 0.8;"/><g><circle cx="294.89445210807025" cy="104.55450766219292" r="4" style="stroke-width: 3; stroke: rgb(60, 180, 75); stroke-opacity: 0.8; fill: rgb(60, 180, 75); fill-opacity: 0.15;"/></g><g><circle cx="195.58166436757892" cy="126.89988490380347" r="4" style="stroke-width: 3; stroke: rgb(245, 130, 49); stroke-opacity: 0.8; fill: rgb(245, 130, 49); fill-opacity: 0.15;"/></g><path d=" M0.00,473.17 L0.50,472.55 L1.00,471.92 L1.50,471.30 L2.00,470.67 L2.50,470.04 L3.00,469.42 L3.50,468.79 L4.00,468.17 L4.51,467.54 L5.01,466.92 L5.51,466.29 L6.01,465.66 L6.51,465.04 L7.01,464.41 L7.51,463.79 L8.01,463.16 L8.51,462.54 L9.01,461.91 L9.51,461.28 L10.01,460.66 L10.51,460.03 L11.01,459.41 L11.51,458.78 L12.01,458.16 L12.51,457.53 L13.02,456.90 L13.52,456.28 L14.02,455.65 L14.52,455.03 L15.02,454.40 L15.52,453.78 L16.02,453.15 L16.52,452.52 L17.02,451.90 L17.52,451.27 L18.02,450.65 L18.52,450.02 L19.02,449.39 L19.52,448.77 L20.02,448.14 L20.52,447.52 L21.02,446.89 L21.53,446.27 L22.03,445.64 L22.53,445.01 L23.03,444.39 L23.53,443.76 L24.03,443.14 L24.53,442.51 L25.03,441.89 L25.53,441.26 L26.03,440.63 L26.53,440.01 L27.03,439.38 L27.53,438.76 L28.03,438.13 L28.53,437.51 L29.03,436.88 L29.53,436.25 L30.03,435.63 L30.54,435.00 L31.04,434.38 L31.54,433.75 L32.04,433.13 L32.54,432.50 L33.04,431.87 L33.54,431.25 L34.04,430.62 L34.54,430.00 L35.04,429.37 L35.54,428.75 L36.04,428.12 L36.54,427.49 L37.04,426.87 L37.54,426.24 L38.04,425.62 L38.54,424.99 L39.05,424.37 L39.55,423.74 L40.05,423.11 L40.55,422.49 L41.05,421.86 L41.55,421.24 L42.05,420.61 L42.55,419.99 L43.05,419.36 L43.55,418.73 L44.05,418.11 L44.55,417.48 L45.05,416.86 L45.55,416.23 L46.05,415.61 L46.55,414.98 L47.05,414.35 L47.56,413.73 L48.06,413.10 L48.56,412.48 L49.06,411.85 L49.56,411.23 L50.06,410.60 L50.56,409.97 L51.06,409.35 L51.56,408.72 L52.06,408.10 L52.56,407.47 L53.06,406.85 L53.56,406.22 L54.06,405.59 L54.56,404.97 L55.06,404.34 L55.56,403.72 L56.07,403.09 L56.57,402.47 L57.07,401.84 L57.57,401.21 L58.07,400.59 L58.57,399.96 L59.07,399.34 L59.57,398.71 L60.07,398.09 L60.57,397.46 L61.07,396.83 L61.57,396.21 L62.07,395.58 L62.57,394.96 L63.07,394.33 L63.57,393.71 L64.07,393.08 L64.58,392.45 L65.08,391.83 L65.58,391.20 L66.08,390.58 L66.58,389.95 L67.08,389.33 L67.58,388.70 L68.08,388.07 L68.58,387.45 L69.08,386.82 L69.58,386.20 L70.08,385.57 L70.58,384.94 L71.08,384.32 L71.58,383.69 L72.08,383.07 L72.58,382.44 L73.08,381.82 L73.59,381.19 L74.09,380.56 L74.59,379.94 L75.09,379.31 L75.59,378.69 L76.09,378.06 L76.59,377.44 L77.09,376.81 L77.59,376.18 L78.09,375.56 L78.59,374.93 L79.09,374.31 L79.59,373.68 L80.09,373.06 L80.59,372.43 L81.09,371.80 L81.59,371.18 L82.10,370.55 L82.60,369.93 L83.10,369.30 L83.60,368.68 L84.10,368.05 L84.60,367.42 L85.10,366.80 L85.60,366.17 L86.10,365.55 L86.60,364.92 L87.10,364.30 L87.60,363.67 L88.10,363.04 L88.60,362.42 L89.10,361.79 L89.60,361.17 L90.10,360.54 L90.61,359.92 L91.11,359.29 L91.61,358.66 L92.11,358.04 L92.61,357.41 L93.11,356.79 L93.61,356.16 L94.11,355.54 L94.61,354.91 L95.11,354.28 L95.61,353.66 L96.11,353.03 L96.61,352.41 L97.11,351.78 L97.61,351.16 L98.11,350.53 L98.61,349.90 L99.12,349.28 L99.62,348.65 L100.12,348.03 L100.62,347.40 L101.12,346.78 L101.62,346.15 L102.12,345.52 L102.62,344.90 L103.12,344.27 L103.62,343.65 L104.12,343.02 L104.62,342.40 L105.12,341.77 L105.62,341.14 L106.12,340.52 L106.62,339.89 L107.12,339.27 L107.63,338.64 L108.13,338.02 L108.63,337.39 L109.13,336.76 L109.63,336.14 L110.13,335.51 L110.63,334.89 L111.13,334.26 L111.63,333.64 L112.13,333.01 L112.63,332.38 L113.13,331.76 L113.63,331.13 L114.13,330.51 L114.63,329.88 L115.13,329.26 L115.63,328.63 L116.14,328.00 L116.64,327.38 L117.14,326.75 L117.64,326.13 L118.14,325.50 L118.64,324.88 L119.14,324.25 L119.64,323.62 L120.14,323.00 L120.64,322.37 L121.14,321.75 L121.64,321.12 L122.14,320.50 L122.64,319.87 L123.14,319.24 L123.64,318.62 L124.14,317.99 L124.64,317.37 L125.15,316.74 L125.65,316.11 L126.15,315.49 L126.65,314.86 L127.15,314.24 L127.65,313.61 L128.15,312.99 L128.65,312.36 L129.15,311.73 L129.65,311.11 L130.15,310.48 L130.65,309.86 L131.15,309.23 L131.65,308.61 L132.15,307.98 L132.65,307.35 L133.15,306.73 L133.66,306.10 L134.16,305.48 L134.66,304.85 L135.16,304.23 L135.66,303.60 L136.16,302.97 L136.66,302.35 L137.16,301.72 L137.66,301.10 L138.16,300.47 L138.66,299.85 L139.16,299.22 L139.66,298.59 L140.16,297.97 L140.66,297.34 L141.16,296.72 L141.66,296.09 L142.17,295.47 L142.67,294.84 L143.17,294.21 L143.67,293.59 L144.17,292.96 L144.67,292.34 L145.17,291.71 L145.67,291.09 L146.17,290.46 L146.67,289.83 L147.17,289.21 L147.67,288.58 L148.17,287.96 L148.67,287.33 L149.17,286.71 L149.67,286.08 L150.17,285.45 L150.68,284.83 L151.18,284.20 L151.68,283.58 L152.18,282.95 L152.68,282.33 L153.18,281.70 L153.68,281.07 L154.18,280.45 L154.68,279.82 L155.18,279.20 L155.68,278.57 L156.18,277.95 L156.68,277.32 L157.18,276.69 L157.68,276.07 L158.18,275.44 L158.68,274.82 L159.19,274.19 L159.69,273.57 L160.19,272.94 L160.69,272.31 L161.19,271.69 L161.69,271.06 L162.19,270.44 L162.69,269.81 L163.19,269.19 L163.69,268.56 L164.19,267.93 L164.69,267.31 L165.19,266.68 L165.69,266.06 L166.19,265.43 L166.69,264.81 L167.19,264.18 L167.69,263.55 L168.20,262.93 L168.70,262.30 L169.20,261.68 L169.70,261.05 L170.20,260.43 L170.70,259.80 L171.20,259.17 L171.70,258.55 L172.20,257.92 L172.70,257.30 L173.20,256.67 L173.70,256.05 L174.20,255.42 L174.70,254.79 L175.20,254.17 L175.70,253.54 L176.20,252.92 L176.71,252.29 L177.21,251.67 L177.71,251.04 L178.21,250.41 L178.71,249.79 L179.21,249.16 L179.71,248.54 L180.21,247.91 L180.71,247.28 L181.21,246.66 L181.71,246.03 L182.21,245.41 L182.71,244.78 L183.21,244.16 L183.71,243.53 L184.21,242.90 L184.71,242.28 L185.22,241.65 L185.72,241.03 L186.22,240.40 L186.72,239.78 L187.22,239.15 L187.72,238.52 L188.22,237.90 L188.72,237.27 L189.22,236.65 L189.72,236.02 L190.22,235.40 L190.72,234.77 L191.22,234.14 L191.72,233.52 L192.22,232.89 L192.72,232.27 L193.22,231.64 L193.73,231.02 L194.23,230.39 L194.73,229.76 L195.23,229.14 L195.73,228.51 L196.23,227.89 L196.73,227.26 L197.23,226.64 L197.73,226.01 L198.23,225.38 L198.73,224.76 L199.23,224.13 L199.73,223.51 L200.23,222.88 L200.73,222.26 L201.23,221.63 L201.73,221.00 L202.24,220.38 L202.74,219.75 L203.24,219.13 L203.74,218.50 L204.24,217.88 L204.74,217.25 L205.24,216.62 L205.74,216.00 L206.24,215.37 L206.74,214.75 L207.24,214.12 L207.74,213.50 L208.24,212.87 L208.74,212.24 L209.24,211.62 L209.74,210.99 L210.24,210.37 L210.75,209.74 L211.25,209.12 L211.75,208.49 L212.25,207.86 L212.75,207.24 L213.25,206.61 L213.75,205.99 L214.25,205.36 L214.75,204.74 L215.25,204.11 L215.75,203.48 L216.25,202.86 L216.75,202.23 L217.25,201.61 L217.75,200.98 L218.25,200.36 L218.75,199.73 L219.25,199.10 L219.76,198.48 L220.26,197.85 L220.76,197.23 L221.26,196.60 L221.76,195.98 L222.26,195.35 L222.76,194.72 L223.26,194.10 L223.76,193.47 L224.26,192.85 L224.76,192.22 L225.26,191.60 L225.76,190.97 L226.26,190.34 L226.76,189.72 L227.26,189.09 L227.76,188.47 L228.27,187.84 L228.77,187.22 L229.27,186.59 L229.77,185.96 L230.27,185.34 L230.77,184.71 L231.27,184.09 L231.77,183.46 L232.27,182.83 L232.77,182.21 L233.27,181.58 L233.77,180.96 L234.27,180.33 L234.77,179.71 L235.27,179.08 L235.77,178.45 L236.27,177.83 L236.78,177.20 L237.28,176.58 L237.78,175.95 L238.28,175.33 L238.78,174.70 L239.28,174.07 L239.78,173.45 L240.28,172.82 L240.78,172.20 L241.28,171.57 L241.78,170.95 L242.28,170.32 L242.78,169.69 L243.28,169.07 L243.78,168.44 L244.28,167.82 L244.78,167.19 L245.29,166.57 L245.79,165.94 L246.29,165.31 L246.79,164.69 L247.29,164.06 L247.79,163.44 L248.29,162.81 L248.79,162.19 L249.29,161.56 L249.79,160.93 L250.29,160.31 L250.79,159.68 L251.29,159.06 L251.79,158.43 L252.29,157.81 L252.79,157.18 L253.29,156.55 L253.80,155.93 L254.30,155.30 L254.80,154.68 L255.30,154.05 L255.80,153.43 L256.30,152.80 L256.80,152.17 L257.30,151.55 L257.80,150.92 L258.30,150.30 L258.80,149.67 L259.30,149.05 L259.80,148.42 L260.30,147.79 L260.80,147.17 L261.30,146.54 L261.80,145.92 L262.31,145.29 L262.81,144.67 L263.31,144.04 L263.81,143.41 L264.31,142.79 L264.81,142.16 L265.31,141.54 L265.81,140.91 L266.31,140.29 L266.81,139.66 L267.31,139.03 L267.81,138.41 L268.31,137.78 L268.81,137.16 L269.31,136.53 L269.81,135.91 L270.31,135.28 L270.81,134.65 L271.32,134.03 L271.82,133.40 L272.32,132.78 L272.82,132.15 L273.32,131.53 L273.82,130.90 L274.32,130.27 L274.82,129.65 L275.32,129.02 L275.82,128.40 L276.32,127.77 L276.82,127.15 L277.32,126.52 L277.82,125.89 L278.32,125.27 L278.82,124.64 L279.32,124.02 L279.83,123.39 L280.33,122.77 L280.83,122.14 L281.33,121.51 L281.83,120.89 L282.33,120.26 L282.83,119.64 L283.33,119.01 L283.83,118.39 L284.33,117.76 L284.83,117.13 L285.33,116.51 L285.83,115.88 L286.33,115.26 L286.83,114.63 L287.33,114.00 L287.83,113.38 L288.34,112.75 L288.84,112.13 L289.34,111.50 L289.84,110.88 L290.34,110.25 L290.84,109.62 L291.34,109.00 L291.84,108.37 L292.34,107.75 L292.84,107.12 L293.34,106.50 L293.84,105.87 L294.34,105.24 L294.84,104.62 L295.34,103.99 L295.84,103.37 L296.34,102.74 L296.85,102.12 L297.35,101.49 L297.85,100.86 L298.35,100.24 L298.85,99.61 L299.35,98.99 L299.85,98.36 L300.35,97.74 L300.85,97.11 L301.35,96.48 L301.85,95.86 L302.35,95.23 L302.85,94.61 L303.35,93.98 L303.85,93.36 L304.35,92.73 L304.85,92.10 L305.36,91.48 L305.86,90.85 L306.36,90.23 L306.86,89.60 L307.36,88.98 L307.86,88.35 L308.36,87.72 L308.86,87.10 L309.36,86.47 L309.86,85.85 L310.36,85.22 L310.86,84.60 L311.36,83.97 L311.86,83.34 L312.36,82.72 L312.86,82.09 L313.36,81.47 L313.86,80.84 L314.37,80.22 L314.87,79.59 L315.37,78.96 L315.87,78.34 L316.37,77.71 L316.87,77.09 L317.37,76.46 L317.87,75.84 L318.37,75.21 L318.87,74.58 L319.37,73.96 L319.87,73.33 L320.37,72.71 L320.87,72.08 L321.37,71.46 L321.87,70.83 L322.37,70.20 L322.88,69.58 L323.38,68.95 L323.88,68.33 L324.38,67.70 L324.88,67.08 L325.38,66.45 L325.88,65.82 L326.38,65.20 L326.88,64.57 L327.38,63.95 L327.88,63.32 L328.38,62.70 L328.88,62.07 L329.38,61.44 L329.88,60.82 L330.38,60.19 L330.88,59.57 L331.39,58.94 L331.89,58.32 L332.39,57.69 L332.89,57.06 L333.39,56.44 L333.89,55.81 L334.39,55.19 L334.89,54.56 L335.39,53.94 L335.89,53.31 L336.39,52.68 L336.89,52.06 L337.39,51.43 L337.89,50.81 L338.39,50.18 L338.89,49.55 L339.39,48.93 L339.90,48.30 L340.40,47.68 L340.90,47.05 L341.40,46.43 L341.90,45.80 L342.40,45.17 L342.90,44.55 L343.40,43.92 L343.90,43.30 L344.40,42.67 L344.90,42.05 L345.40,41.42 L345.90,40.79 L346.40,40.17 L346.90,39.54 L347.40,38.92 L347.90,38.29 L348.41,37.67 L348.91,37.04 L349.41,36.41 L349.91,35.79 L350.41,35.16 L350.91,34.54 L351.41,33.91 L351.91,33.29 L352.41,32.66 L352.91,32.03 L353.41,31.41 L353.91,30.78 L354.41,30.16 L354.91,29.53 L355.41,28.91 L355.91,28.28 L356.41,27.65 L356.92,27.03 L357.42,26.40 L357.92,25.78 L358.42,25.15 L358.92,24.53 L359.42,23.90 L359.92,23.27 L360.42,22.65 L360.92,22.02 L361.42,21.40 L361.92,20.77 L362.42,20.15 L362.92,19.52 L363.42,18.89 L363.92,18.27 L364.42,17.64 L364.92,17.02 L365.42,16.39 L365.93,15.77 L366.43,15.14 L366.93,14.51 L367.43,13.89 L367.93,13.26 L368.43,12.64 L368.93,12.01 L369.43,11.39 L369.93,10.76 L370.43,10.13 L370.93,9.51 L371.43,8.88 L371.93,8.26 L372.43,7.63 L372.93,7.01 L373.43,6.38 L373.93,5.75 L374.44,5.13 L374.94,4.50 L375.44,3.88 L375.94,3.25 L376.44,2.63 L376.94,2.00 L377.44,1.37 L377.94,0.75 L378.44,0.12 L378.94,-0.50 L379.44,-1.13 L379.94,-1.75 L380.44,-2.38 L380.94,-3.01 L381.44,-3.63 L381.94,-4.26 L382.44,-4.88 L382.95,-5.51 L383.45,-6.13 L383.95,-6.76 L384.45,-7.39 L384.95,-8.01 L385.45,-8.64 L385.95,-9.26 L386.45,-9.89 L386.95,-10.51 L387.45,-11.14 L387.95,-11.77 L388.45,-12.39 L388.95,-13.02 L389.45,-13.64 L389.95,-14.27 L390.45,-14.89 L390.95,-15.52 L391.46,-16.15 L391.96,-16.77 L392.46,-17.40 L392.96,-18.02 L393.46,-18.65 L393.96,-19.28 L394.46,-19.90 L394.96,-20.53 L395.46,-21.15 L395.96,-21.78 L396.46,-22.40 L396.96,-23.03 L397.46,-23.66 L397.96,-24.28 L398.46,-24.91 L398.96,-25.53 L399.46,-26.16 L399.97,-26.78 L400.47,-27.41 L400.97,-28.04 L401.47,-28.66 L401.97,-29.29 L402.47,-29.91 L402.97,-30.54 L403.47,-31.16 L403.97,-31.79 L404.47,-32.42 L404.97,-33.04 L405.47,-33.67 L405.97,-34.29 L406.47,-34.92 L406.97,-35.54 L407.47,-36.17 L407.97,-36.80 L408.47,-37.42 L408.98,-38.05 L409.48,-38.67 L409.98,-39.30 L410.48,-39.92 L410.98,-40.55 L411.48,-41.18 L411.98,-41.80 L412.48,-42.43 L412.98,-43.05 L413.48,-43.68 L413.98,-44.30 L414.48,-44.93 L414.98,-45.56 L415.48,-46.18 L415.98,-46.81 L416.48,-47.43 L416.98,-48.06 L417.49,-48.68 L417.99,-49.31 L418.49,-49.94 L418.99,-50.56 L419.49,-51.19 L419.99,-51.81 L420.49,-52.44 L420.99,-53.06 L421.49,-53.69 L421.99,-54.32 L422.49,-54.94 L422.99,-55.57 L423.49,-56.19 L423.99,-56.82 L424.49,-57.44 L424.99,-58.07 L425.49,-58.70 L426.00,-59.32 L426.50,-59.95 L427.00,-60.57 L427.50,-61.20 L428.00,-61.82 L428.50,-62.45 L429.00,-63.08 L429.50,-63.70 L430.00,-64.33" style="stroke-width: 2; stroke: rgb(157, 40, 192); stroke-opacity: 0.8; stroke-dasharray: 2.25, 3.685;"/><g><circle cx="195.58166436757892" cy="228.69549233780708" r="4" style="stroke-width: 3; stroke: rgb(214, 67, 102); stroke-opacity: 0.8; fill: rgb(214, 67, 102); fill-opacity: 0.15;"/></g><g><g class="arrow-line"><path class="vector-plot real" stroke-dasharray="" d="  M195.58,228.7 L195.58,126.9" style="stroke: rgb(240, 50, 230); stroke-opacity: 1; stroke-width: 2; stroke-dasharray: 7.5, 6;"/></g></g><g><g class="arrow-line"><path class="vector-plot real" stroke-dasharray="" d="  M195.58,126.9 L291.97,105.21" style="stroke: rgb(70, 240, 240); stroke-opacity: 1; stroke-width: 2; stroke-dasharray: 2.25, 3.685;"/><g stroke="rgb(70,240,240)" stroke-opacity="1" transform="matrix(-0.9756112253136148,0.21950566517078116,-0.21950566517078116,-0.9756112253136148,294.8944521080703,104.55450766219292)" style="stroke: rgb(70, 240, 240); stroke-width: 2;"><path d=" M14.21,-4.28 Q6.45,-0.59 0,0 Q6.45,0.59 14.21,4.28"/></g></g></g><g><g class="arrow-line"><path class="vector-plot real" stroke-dasharray="" d="  M294.89,104.55 L294.89,10.72" style="stroke: rgb(188, 246, 12); stroke-opacity: 1; stroke-width: 2;"/><g stroke="rgb(188,246,12)" transform="matrix(3.061616997868383e-16,1,-1,3.061616997868383e-16,294.89445210807025,7.724539615213871)" style="stroke: rgb(188, 246, 12); stroke-width: 2;" stroke-opacity="1"><path d=" M14.21,-4.28 Q6.45,-0.59 0,0 Q6.45,0.59 14.21,4.28"/></g></g></g></g></g><g class="test-xtl" style="font-family: &quot;Open Sans&quot;, verdana, arial, sans-serif;"><text text-anchor="middle" font-size="11" dominant-baseline="hanging" stroke="none" fill="rgb(50,50,50)" fill-opacity="1" x="93.13387662708757" y="173.625">-5</text><text text-anchor="middle" font-size="11" dominant-baseline="hanging" stroke="none" fill="rgb(50,50,50)" fill-opacity="1" x="294.89445210807025" y="173.625">5</text><text text-anchor="middle" font-size="11" dominant-baseline="hanging" stroke="none" fill="rgb(50,50,50)" fill-opacity="1" x="394.2072398485616" y="173.625">10</text><text text-anchor="middle" font-size="11" dominant-baseline="hanging" stroke="none" fill="rgb(50,50,50)" fill-opacity="1" x="187.5816643675789" y="171.625">0</text></g><g class="test-ytl" style="font-family: &quot;Open Sans&quot;, verdana, arial, sans-serif;"><text text-anchor="end" dominant-baseline="middle" font-size="11" stroke="none" fill="rgb(50,50,50)" fill-opacity="1" x="187.58166436757892" y="67.31221225950867">5</text></g><rect class="real" x="1" y="1" width="428" height="248" style="fill: transparent; stroke: none;"/></g></g></g><g/></g><g/><g/><g/></svg>
        <svg xmlns="http://www.w3.org/2000/svg" xmlns:xlink="http://www.w3.org/1999/xlink" width="660" height="300" style="width:660px;height:300px;font-family:Asana-Math, Asana;background:#FFF;"><g><g><g><g><g><g><g transform="matrix(1,0,0,1,235.5,121.1)"><path transform="matrix(0.0136,0,0,-0.0136,0,0)" d="M567 55C567 39 552 30 524 28L480 25L480 -3C582 0 582 0 602 0C622 0 622 0 724 -3L724 25L698 28C651 35 650 35 642 80L555 705L509 705L136 112C100 56 82 40 48 32L28 27L28 -3C120 0 120 0 140 0C159 0 161 0 247 -3L247 25L195 28C179 29 164 38 164 47C164 55 171 69 190 102L292 277L538 277L563 89L563 86C563 84 567 69 567 55ZM496 601L533 313L317 313Z" stroke="rgb(0,0,0)" stroke-opacity="1" stroke-width="8" fill="rgb(0,0,0)" fill-opacity="1"></path></g></g><g><g transform="matrix(1,0,0,1,253.1796875,121.1)"><path transform="matrix(0.0136,0,0,-0.0136,0,0)" d="M604 347L604 406L65 406L65 347ZM604 134L604 193L65 193L65 134Z" stroke="rgb(0,0,0)" stroke-opacity="1" stroke-width="8" fill="rgb(0,0,0)" fill-opacity="1"></path></g></g><g><g transform="matrix(1,0,0,1,266.34375,121.1)"><path transform="matrix(0.0136,0,0,-0.0136,0,0)" d="" stroke="rgb(0,0,0)" stroke-opacity="1" stroke-width="8" fill="rgb(0,0,0)" fill-opacity="1"></path></g></g><g><g transform="matrix(1,0,0,1,269.734375,121.1)"><path transform="matrix(0.0136,0,0,-0.0136,0,0)" d="M146 266C146 526 243 632 301 700L282 726C225 675 60 542 60 266C60 159 85 58 133 -32C168 -99 200 -138 282 -215L301 -194C255 -137 146 -15 146 266Z" stroke="rgb(0,0,0)" stroke-opacity="1" stroke-width="8" fill="rgb(0,0,0)" fill-opacity="1"></path></g></g><g><g transform="matrix(1,0,0,1,274.25,121.1)"><path transform="matrix(0.0136,0,0,-0.0136,0,0)" d="M263 689C108 689 29 566 29 324C29 207 50 106 85 57C120 8 176 -20 238 -20C389 -20 465 110 465 366C465 585 400 689 263 689ZM245 654C342 654 381 556 381 316C381 103 343 15 251 15C154 15 113 116 113 360C113 571 150 654 245 654Z" stroke="rgb(0,0,0)" stroke-opacity="1" stroke-width="8" fill="rgb(0,0,0)" fill-opacity="1"></path></g></g><g><g transform="matrix(1,0,0,1,281.0390625,121.1)"><path transform="matrix(0.0136,0,0,-0.0136,0,0)" d="M204 123C177 114 159 108 106 93C99 17 74 -48 16 -144L30 -155L71 -136C152 -31 190 32 218 109Z" stroke="rgb(0,0,0)" stroke-opacity="1" stroke-width="8" fill="rgb(0,0,0)" fill-opacity="1"></path></g></g><g><g transform="matrix(1,0,0,1,287.1484375,121.1)"><path transform="matrix(0.0136,0,0,-0.0136,0,0)" d="M425 -11C481 -11 596 62 639 125C680 186 714 296 714 371C714 438 691 482 655 482C613 482 560 456 508 409C467 374 447 348 411 289L435 408C438 425 440 440 440 452C440 471 432 482 418 482C397 482 359 461 285 408L257 388L264 368L296 389C324 407 335 412 344 412C354 412 361 403 361 389C361 381 359 361 357 351L299 8C289 -52 270 -143 250 -233L242 -270L249 -276C270 -269 290 -264 322 -259L364 3C385 -4 407 -11 425 -11ZM392 165C414 293 521 424 604 424C630 424 642 402 642 356C642 275 602 156 549 80C529 51 497 36 456 36C425 36 400 43 374 59Z" stroke="rgb(0,0,0)" stroke-opacity="1" stroke-width="8" fill="rgb(0,0,0)" fill-opacity="1"></path></g></g><g><g transform="matrix(1,0,0,1,297.3203125,121.1)"><path transform="matrix(0.0136,0,0,-0.0136,0,0)" d="M51 726L32 700C87 636 187 526 187 266C187 -10 83 -131 32 -194L51 -215C104 -165 273 -23 273 265C273 542 108 675 51 726Z" stroke="rgb(0,0,0)" stroke-opacity="1" stroke-width="8" fill="rgb(0,0,0)" fill-opacity="1"></path></g></g></g></g></g></g></g><g><g><g><g><g><g><g transform="matrix(1,0,0,1,425.5,114.1)"><path transform="matrix(0.0136,0,0,-0.0136,0,0)" d="M543 227C543 337 459 353 377 365C434 385 459 397 490 425C536 464 559 511 559 562C559 644 501 692 401 692C399 692 389 692 374 691L311 690C299 689 263 689 251 689C232 689 201 690 152 691L100 692L97 664L150 662C174 661 185 653 185 635C185 621 181 589 176 559L89 55C85 37 73 30 31 23L26 -3L63 -2C90 0 105 0 117 0C128 0 154 -1 180 -2L217 -3L237 -4C256 -5 269 -6 277 -6C392 -6 543 87 543 227ZM166 41L217 340L302 340C405 340 455 298 455 211C455 108 382 34 282 34C228 34 207 38 166 41ZM352 655C433 655 473 619 473 544C473 439 399 376 275 376L223 376L272 650C288 650 329 655 352 655Z" stroke="rgb(0,0,0)" stroke-opacity="1" stroke-width="8" fill="rgb(0,0,0)" fill-opacity="1"></path></g></g><g><g transform="matrix(1,0,0,1,441.2578125,114.1)"><path transform="matrix(0.0136,0,0,-0.0136,0,0)" d="M604 347L604 406L65 406L65 347ZM604 134L604 193L65 193L65 134Z" stroke="rgb(0,0,0)" stroke-opacity="1" stroke-width="8" fill="rgb(0,0,0)" fill-opacity="1"></path></g></g><g><g transform="matrix(1,0,0,1,454.421875,114.1)"><path transform="matrix(0.0136,0,0,-0.0136,0,0)" d="" stroke="rgb(0,0,0)" stroke-opacity="1" stroke-width="8" fill="rgb(0,0,0)" fill-opacity="1"></path></g></g><g><g transform="matrix(1,0,0,1,457.8125,114.1)"><path transform="matrix(0.0136,0,0,-0.0136,0,0)" d="M146 266C146 526 243 632 301 700L282 726C225 675 60 542 60 266C60 159 85 58 133 -32C168 -99 200 -138 282 -215L301 -194C255 -137 146 -15 146 266Z" stroke="rgb(0,0,0)" stroke-opacity="1" stroke-width="8" fill="rgb(0,0,0)" fill-opacity="1"></path></g></g><g><g transform="matrix(1,0,0,1,462.328125,114.1)"><path transform="matrix(0.0136,0,0,-0.0136,0,0)" d="M9 1C24 -7 40 -11 52 -11C85 -11 124 18 155 65L231 182L242 113C255 28 278 -11 314 -11C336 -11 368 6 400 35L449 79L440 98C404 68 379 53 363 53C348 53 335 63 325 83C316 102 305 139 300 168L282 269L317 318C364 383 391 406 422 406C438 406 450 398 455 383L469 387L484 472C472 479 463 482 454 482C414 482 374 446 312 354L275 299L269 347C257 446 230 482 171 482C145 482 123 474 114 461L56 378L73 368C103 402 123 416 142 416C175 416 197 375 214 277L225 215L185 153C142 86 108 54 80 54C65 54 54 58 52 63L41 91L21 88C21 53 13 27 9 1Z" stroke="rgb(0,0,0)" stroke-opacity="1" stroke-width="8" fill="rgb(0,0,0)" fill-opacity="1"></path></g></g><g><g><g><g><g transform="matrix(1,0,0,1,469.5234375,116.4965625)"><path transform="matrix(0.009519999999999999,0,0,-0.009519999999999999,0,0)" d="M263 689C108 689 29 566 29 324C29 207 50 106 85 57C120 8 176 -20 238 -20C389 -20 465 110 465 366C465 585 400 689 263 689ZM245 654C342 654 381 556 381 316C381 103 343 15 251 15C154 15 113 116 113 360C113 571 150 654 245 654Z" stroke="rgb(0,0,0)" stroke-opacity="1" stroke-width="8" fill="rgb(0,0,0)" fill-opacity="1"></path></g></g></g></g></g><g><g transform="matrix(1,0,0,1,475.0859375,114.1)"><path transform="matrix(0.0136,0,0,-0.0136,0,0)" d="M204 123C177 114 159 108 106 93C99 17 74 -48 16 -144L30 -155L71 -136C152 -31 190 32 218 109Z" stroke="rgb(0,0,0)" stroke-opacity="1" stroke-width="8" fill="rgb(0,0,0)" fill-opacity="1"></path></g></g><g><g transform="matrix(1,0,0,1,481.1953125,114.1)"><path transform="matrix(0.0136,0,0,-0.0136,0,0)" d="M242 -180C241 -187 241 -193 241 -198C241 -241 278 -276 323 -276C429 -276 539 -152 598 33L739 473L728 482C699 471 676 465 654 463L619 331C607 284 572 211 539 162C504 111 455 67 433 67C421 67 412 90 413 115L429 322C431 353 433 391 433 419C433 464 426 482 409 482C396 482 382 475 334 442L252 386L263 368L313 398C318 401 329 410 338 410C352 410 360 391 360 358C360 357 360 351 359 343L342 100L341 60C341 18 359 -11 384 -11C421 -11 505 74 580 187L531 16C480 -161 430 -234 360 -234C325 -234 298 -207 298 -172C298 -167 299 -159 300 -150L290 -146Z" stroke="rgb(0,0,0)" stroke-opacity="1" stroke-width="8" fill="rgb(0,0,0)" fill-opacity="1"></path></g></g><g><g><g><g><g transform="matrix(1,0,0,1,491.7734375,116.4965625)"><path transform="matrix(0.009519999999999999,0,0,-0.009519999999999999,0,0)" d="M263 689C108 689 29 566 29 324C29 207 50 106 85 57C120 8 176 -20 238 -20C389 -20 465 110 465 366C465 585 400 689 263 689ZM245 654C342 654 381 556 381 316C381 103 343 15 251 15C154 15 113 116 113 360C113 571 150 654 245 654Z" stroke="rgb(0,0,0)" stroke-opacity="1" stroke-width="8" fill="rgb(0,0,0)" fill-opacity="1"></path></g></g></g></g></g><g><g transform="matrix(1,0,0,1,497.3359375,114.1)"><path transform="matrix(0.0136,0,0,-0.0136,0,0)" d="M51 726L32 700C87 636 187 526 187 266C187 -10 83 -131 32 -194L51 -215C104 -165 273 -23 273 265C273 542 108 675 51 726Z" stroke="rgb(0,0,0)" stroke-opacity="1" stroke-width="8" fill="rgb(0,0,0)" fill-opacity="1"></path></g></g></g></g></g></g></g><g><g><g><g><g><g><g transform="matrix(1,0,0,1,323.5,251.1)"><path transform="matrix(0.0136,0,0,-0.0136,0,0)" d="M45 284C45 90 152 -18 343 -18C439 -18 510 5 600 67C600 67 610 103 610 103C610 103 600 110 600 110C506 53 454 35 376 35C219 35 133 131 133 309C133 447 190 653 418 653C489 653 541 639 597 603L597 519L624 519C629 576 637 619 651 665C575 694 518 706 456 706C276 706 45 578 45 284Z" stroke="rgb(0,0,0)" stroke-opacity="1" stroke-width="8" fill="rgb(0,0,0)" fill-opacity="1"></path></g></g><g><g transform="matrix(1,0,0,1,340.3046875,251.1)"><path transform="matrix(0.0136,0,0,-0.0136,0,0)" d="M604 347L604 406L65 406L65 347ZM604 134L604 193L65 193L65 134Z" stroke="rgb(0,0,0)" stroke-opacity="1" stroke-width="8" fill="rgb(0,0,0)" fill-opacity="1"></path></g></g><g><g transform="matrix(1,0,0,1,353.46875,251.1)"><path transform="matrix(0.0136,0,0,-0.0136,0,0)" d="" stroke="rgb(0,0,0)" stroke-opacity="1" stroke-width="8" fill="rgb(0,0,0)" fill-opacity="1"></path></g></g><g><g transform="matrix(1,0,0,1,356.859375,251.1)"><path transform="matrix(0.0136,0,0,-0.0136,0,0)" d="M146 266C146 526 243 632 301 700L282 726C225 675 60 542 60 266C60 159 85 58 133 -32C168 -99 200 -138 282 -215L301 -194C255 -137 146 -15 146 266Z" stroke="rgb(0,0,0)" stroke-opacity="1" stroke-width="8" fill="rgb(0,0,0)" fill-opacity="1"></path></g></g><g><g transform="matrix(1,0,0,1,361.375,251.1)"><path transform="matrix(0.0136,0,0,-0.0136,0,0)" d="M263 689C108 689 29 566 29 324C29 207 50 106 85 57C120 8 176 -20 238 -20C389 -20 465 110 465 366C465 585 400 689 263 689ZM245 654C342 654 381 556 381 316C381 103 343 15 251 15C154 15 113 116 113 360C113 571 150 654 245 654Z" stroke="rgb(0,0,0)" stroke-opacity="1" stroke-width="8" fill="rgb(0,0,0)" fill-opacity="1"></path></g></g><g><g transform="matrix(1,0,0,1,368.1640625,251.1)"><path transform="matrix(0.0136,0,0,-0.0136,0,0)" d="M204 123C177 114 159 108 106 93C99 17 74 -48 16 -144L30 -155L71 -136C152 -31 190 32 218 109Z" stroke="rgb(0,0,0)" stroke-opacity="1" stroke-width="8" fill="rgb(0,0,0)" fill-opacity="1"></path></g></g><g><g transform="matrix(1,0,0,1,374.2734375,251.1)"><path transform="matrix(0.0136,0,0,-0.0136,0,0)" d="" stroke="rgb(0,0,0)" stroke-opacity="1" stroke-width="8" fill="rgb(0,0,0)" fill-opacity="1"></path></g></g><g><g transform="matrix(1,0,0,1,377.6640625,251.1)"><path transform="matrix(0.0136,0,0,-0.0136,0,0)" d="M555 243L555 299L51 299L51 243Z" stroke="rgb(0,0,0)" stroke-opacity="1" stroke-width="8" fill="rgb(0,0,0)" fill-opacity="1"></path></g></g><g><g transform="matrix(1,0,0,1,385.890625,251.1)"><path transform="matrix(0.0136,0,0,-0.0136,0,0)" d="M-7 -180C-8 -187 -8 -193 -8 -198C-8 -241 29 -276 74 -276C180 -276 290 -152 349 33L490 473L479 482C450 471 427 465 405 463L370 331C358 284 323 211 290 162C255 111 206 67 184 67C172 67 163 90 164 115L180 322C182 353 184 391 184 419C184 464 177 482 160 482C147 482 133 475 85 442L3 386L14 368L64 398C69 401 80 410 89 410C103 410 111 391 111 358C111 357 111 351 110 343L93 100L92 60C92 18 110 -11 135 -11C172 -11 256 74 331 187L282 16C231 -161 181 -234 111 -234C76 -234 49 -207 49 -172C49 -167 50 -159 51 -150L41 -146Z" stroke="rgb(0,0,0)" stroke-opacity="1" stroke-width="8" fill="rgb(0,0,0)" fill-opacity="1"></path></g></g><g><g><g><g><g transform="matrix(1,0,0,1,393.0859375,253.4965625)"><path transform="matrix(0.009519999999999999,0,0,-0.009519999999999999,0,0)" d="M263 689C108 689 29 566 29 324C29 207 50 106 85 57C120 8 176 -20 238 -20C389 -20 465 110 465 366C465 585 400 689 263 689ZM245 654C342 654 381 556 381 316C381 103 343 15 251 15C154 15 113 116 113 360C113 571 150 654 245 654Z" stroke="rgb(0,0,0)" stroke-opacity="1" stroke-width="8" fill="rgb(0,0,0)" fill-opacity="1"></path></g></g></g></g></g><g><g transform="matrix(1,0,0,1,398.6484375,251.1)"><path transform="matrix(0.0136,0,0,-0.0136,0,0)" d="M51 726L32 700C87 636 187 526 187 266C187 -10 83 -131 32 -194L51 -215C104 -165 273 -23 273 265C273 542 108 675 51 726Z" stroke="rgb(0,0,0)" stroke-opacity="1" stroke-width="8" fill="rgb(0,0,0)" fill-opacity="1"></path></g></g></g></g></g></g></g><g><g><g><g><g><g><g transform="matrix(1,0,0,1,383,129)"><path transform="matrix(0.017,0,0,-0.017,0,0)" d="M400 -16C446 -16 513 54 545 84L545 97L532 97C513 79 489 55 462 55C417 55 424 184 424 216C474 278 520 343 558 413C551 428 544 444 536 459L525 459C511 391 456 315 420 257C422 336 445 472 332 473C164 473 27 243 24 93C23 33 43 -16 111 -16C203 -16 297 64 357 131C357 96 348 -15 400 -16ZM284 437C371 437 358 224 357 164C314 113 233 28 162 28C109 28 98 70 99 115C100 202 175 437 284 437Z" stroke="rgb(0,0,0)" stroke-opacity="1" stroke-width="8" fill="rgb(0,0,0)" fill-opacity="1"></path></g></g></g></g></g></g></g><g><g><g><g><g><g><g transform="matrix(1,0,0,1,317,209)"><path transform="matrix(0.017,0,0,-0.017,0,0)" d="M459 205C459 301 389 358 298 360L298 369C391 400 475 479 476 581C477 644 445 680 381 680C154 680 114 463 89 289C62 101 36 -87 -8 -273L-8 -283C18 -274 43 -265 70 -259C76 -162 90 -66 104 29C239 -84 459 37 459 205ZM216 12C159 12 123 45 124 103C126 205 190 570 278 629C337 668 411 631 406 558C398 447 310 371 204 371C201 338 204 378 200 329C294 362 383 309 378 208C374 115 322 12 216 12Z" stroke="rgb(0,0,0)" stroke-opacity="1" stroke-width="8" fill="rgb(0,0,0)" fill-opacity="1"></path></g></g></g></g></g></g></g><g><g><g><g><g><g><g transform="matrix(1,0,0,1,416.5,82)"><path transform="matrix(0.017,0,0,-0.017,0,0)" d="M237 -16C473 -16 572 316 576 504C578 618 546 702 419 702C159 702 72 412 69 199C67 80 101 -16 237 -16ZM401 676C536 676 506 491 485 381L169 381C194 485 272 676 401 676ZM253 13C102 13 147 261 163 349L479 349C454 237 396 13 253 13Z" stroke="rgb(0,0,0)" stroke-opacity="1" stroke-width="8" fill="rgb(0,0,0)" fill-opacity="1"></path></g></g></g></g></g></g></g><g><g><g><g><g><g><g transform="matrix(1,0,0,1,421.5,23.6)"><path transform="matrix(0.0136,0,0,-0.0136,0,0)" d="M221 334L338 334L470 330L489 375L485 382C404 378 344 376 266 376L229 376L276 646C308 647 391 650 413 650C475 650 516 641 517 626L525 537L549 537C552 601 559 651 570 689C549 691 519 692 501 692C498 692 487 692 463 691L343 690C334 689 160 691 150 691L105 692L102 664L156 662C180 661 191 653 191 635C191 621 187 589 182 559L95 55C91 37 79 30 35 23L30 -3L71 -2C102 -1 164 0 184 0L409 -3C423 -3 448 -2 481 -1L514 0L518 36C520 56 525 86 534 135L539 161L512 161L496 101C486 65 477 53 455 48C435 44 362 39 308 39C267 39 240 40 171 46Z" stroke="rgb(0,0,0)" stroke-opacity="1" stroke-width="8" fill="rgb(0,0,0)" fill-opacity="1"></path></g></g></g></g></g></g></g></svg>
</svg>
