<svg version="1.1" xmlns="http://www.w3.org/2000/svg" xmlns:xlink="http://www.w3.org/1999/xlink" width="890" height="629"><defs><clipPath id="LVkhODPVThTS"><path fill="none" stroke="none" d=" M 0 0 L 890 0 L 890 629 L 0 629 L 0 0 Z"/></clipPath></defs><g transform="scale(1,1)" clip-path="url(#LVkhODPVThTS)"><g><rect fill="rgb(255,255,255)" stroke="none" x="0" y="0" width="890" height="629" fill-opacity="1"/><path fill="none" stroke="rgb(37,37,37)" paint-order="fill stroke markers" d=" M 339.5 2.5 L 339.5 629.5" stroke-opacity="1" stroke-miterlimit="10"/><path fill="none" stroke="rgb(37,37,37)" paint-order="fill stroke markers" d=" M 339.5 1.5 L 335.5 5.5" stroke-opacity="1" stroke-miterlimit="10"/><path fill="none" stroke="rgb(37,37,37)" paint-order="fill stroke markers" d=" M 339.5 1.5 L 343.5 5.5" stroke-opacity="1" stroke-miterlimit="10"/><text fill="rgb(37,37,37)" stroke="none" font-family="geogebra-sans-serif, sans-serif" font-size="16px" font-style="normal" font-weight="normal" text-decoration="normal" x="876" y="316" text-anchor="start" dominant-baseline="alphabetic" fill-opacity="1">t</text><path fill="none" stroke="rgb(37,37,37)" paint-order="fill stroke markers" d=" M 0.5 320.5 L 888.5 320.5" stroke-opacity="1" stroke-miterlimit="10"/><path fill="none" stroke="rgb(37,37,37)" paint-order="fill stroke markers" d=" M 889.5 320.5 L 885.5 316.5" stroke-opacity="1" stroke-miterlimit="10"/><path fill="none" stroke="rgb(37,37,37)" paint-order="fill stroke markers" d=" M 889.5 320.5 L 885.5 324.5" stroke-opacity="1" stroke-miterlimit="10"/><path fill="none" stroke="rgb(37,37,37)" paint-order="fill stroke markers" d=" M 9.5 320.5 L 9.5 323.5" stroke-opacity="1" stroke-miterlimit="10"/><path fill="none" stroke="rgb(37,37,37)" paint-order="fill stroke markers" d=" M 75.5 320.5 L 75.5 323.5" stroke-opacity="1" stroke-miterlimit="10"/><path fill="none" stroke="rgb(37,37,37)" paint-order="fill stroke markers" d=" M 141.5 320.5 L 141.5 323.5" stroke-opacity="1" stroke-miterlimit="10"/><path fill="none" stroke="rgb(37,37,37)" paint-order="fill stroke markers" d=" M 207.5 320.5 L 207.5 323.5" stroke-opacity="1" stroke-miterlimit="10"/><path fill="none" stroke="rgb(37,37,37)" paint-order="fill stroke markers" d=" M 273.5 320.5 L 273.5 323.5" stroke-opacity="1" stroke-miterlimit="10"/><path fill="none" stroke="rgb(37,37,37)" paint-order="fill stroke markers" d=" M 339.5 320.5 L 339.5 323.5" stroke-opacity="1" stroke-miterlimit="10"/><path fill="none" stroke="rgb(37,37,37)" paint-order="fill stroke markers" d=" M 405.5 320.5 L 405.5 323.5" stroke-opacity="1" stroke-miterlimit="10"/><path fill="none" stroke="rgb(37,37,37)" paint-order="fill stroke markers" d=" M 470.5 320.5 L 470.5 323.5" stroke-opacity="1" stroke-miterlimit="10"/><path fill="none" stroke="rgb(37,37,37)" paint-order="fill stroke markers" d=" M 536.5 320.5 L 536.5 323.5" stroke-opacity="1" stroke-miterlimit="10"/><path fill="none" stroke="rgb(37,37,37)" paint-order="fill stroke markers" d=" M 602.5 320.5 L 602.5 323.5" stroke-opacity="1" stroke-miterlimit="10"/><path fill="none" stroke="rgb(37,37,37)" paint-order="fill stroke markers" d=" M 668.5 320.5 L 668.5 323.5" stroke-opacity="1" stroke-miterlimit="10"/><path fill="none" stroke="rgb(37,37,37)" paint-order="fill stroke markers" d=" M 734.5 320.5 L 734.5 323.5" stroke-opacity="1" stroke-miterlimit="10"/><path fill="none" stroke="rgb(37,37,37)" paint-order="fill stroke markers" d=" M 800.5 320.5 L 800.5 323.5" stroke-opacity="1" stroke-miterlimit="10"/><path fill="none" stroke="rgb(37,37,37)" paint-order="fill stroke markers" d=" M 866.5 320.5 L 866.5 323.5" stroke-opacity="1" stroke-miterlimit="10"/><text fill="rgb(37,37,37)" stroke="none" font-family="geogebra-sans-serif, sans-serif" font-size="16px" font-style="normal" font-weight="normal" text-decoration="normal" x="344" y="17" text-anchor="start" dominant-baseline="alphabetic" fill-opacity="1">v</text><path fill="none" stroke="rgb(37,37,37)" paint-order="fill stroke markers" d=" M 336.5 567.5 L 339.5 567.5" stroke-opacity="1" stroke-miterlimit="10"/><path fill="none" stroke="rgb(37,37,37)" paint-order="fill stroke markers" d=" M 336.5 484.5 L 339.5 484.5" stroke-opacity="1" stroke-miterlimit="10"/><path fill="none" stroke="rgb(37,37,37)" paint-order="fill stroke markers" d=" M 336.5 402.5 L 339.5 402.5" stroke-opacity="1" stroke-miterlimit="10"/><path fill="none" stroke="rgb(37,37,37)" paint-order="fill stroke markers" d=" M 336.5 237.5 L 339.5 237.5" stroke-opacity="1" stroke-miterlimit="10"/><path fill="none" stroke="rgb(37,37,37)" paint-order="fill stroke markers" d=" M 336.5 155.5 L 339.5 155.5" stroke-opacity="1" stroke-miterlimit="10"/><path fill="none" stroke="rgb(37,37,37)" paint-order="fill stroke markers" d=" M 336.5 73.5 L 339.5 73.5" stroke-opacity="1" stroke-miterlimit="10"/><path fill="none" stroke="rgb(46,125,50)" paint-order="fill stroke markers" d=" M 339.2673179205999 97.98914805605301 L 340.70312499999994 100.86076221485311 M 340.70312499999994 100.86076221485311 L 344.17968749999994 107.81388721485314 L 347.65624999999994 114.76701221485314 M 347.65624999999994 114.76701221485314 L 351.13281249999994 121.7201372148532 L 354.60937499999994 128.6732622148532 L 358.08593749999994 135.62638721485322 L 361.56249999999994 142.57951221485322 M 361.56249999999994 142.57951221485322 L 365.03906249999994 149.53263721485325 L 368.51562499999994 156.48576221485325 L 371.99218749999994 163.43888721485328 L 375.46874999999994 170.39201221485328 L 378.94531249999994 177.3451372148533 L 382.42187499999994 184.29826221485334 L 385.89843749999994 191.25138721485334 L 389.37499999999994 198.20451221485337 M 389.37499999999994 198.20451221485337 L 392.85156249999994 205.15763721485337 L 396.32812499999994 212.1107622148534 L 399.80468749999994 219.06388721485342 L 403.28124999999994 226.01701221485342 L 406.75781249999994 232.97013721485345 L 410.23437499999994 239.92326221485348 L 413.71093749999994 246.87638721485348 L 417.18749999999994 253.8295122148535 L 420.66406249999994 260.78263721485354 L 424.14062499999994 267.73576221485354 L 427.61718749999994 274.6888872148536 L 431.09374999999994 281.6420122148536 L 434.57031249999994 288.5951372148536 L 438.04687499999994 295.5482622148536 L 441.52343749999994 302.50138721485365 L 444.99999999999994 309.45451221485365 M 444.99999999999994 309.45451221485365 L 448.47656249999994 316.40763721485365 L 451.95312499999994 323.3607622148537 L 455.42968749999994 330.3138872148537 L 458.90624999999994 337.2670122148537 L 462.38281249999994 344.2201372148537 L 465.85937499999994 351.1732622148537 L 469.33593749999994 358.12638721485376 L 472.81249999999994 365.0795122148538 L 476.28906249999994 372.0326372148538 L 479.7656249999999 378.9857622148538 L 483.24218749999994 385.9388872148538 L 486.7187499999999 392.8920122148538 L 490.19531249999994 399.8451372148539 L 493.6718749999999 406.7982622148539 L 497.1484374999999 413.7513872148539 L 500.6249999999999 420.7045122148539 L 504.10156249999994 427.65763721485393 L 507.5781249999999 434.61076221485393 L 511.0546874999999 441.56388721485393 L 514.53125 448.517012214854 L 518.0078124999999 455.47013721485393 L 521.4843749999999 462.423262214854 L 524.9609374999999 469.376387214854 L 528.4374999999999 476.329512214854 L 531.9140625 483.28263721485405 L 535.3906249999999 490.235762214854 L 538.8671874999999 497.18888721485405 L 542.3437499999999 504.14201221485405 L 545.8203124999999 511.09513721485405 L 549.2968749999999 518.0482622148542 L 552.7734374999999 525.0013872148542 L 556.2499999999999 531.9545122148542 M 556.2499999999999 531.9545122148542 L 559.7265624999999 538.9076372148542 M 559.7265624999999 538.9076372148542 L 561.5639258925719 542.582363999998" stroke-opacity="0.8" stroke-linecap="round" stroke-linejoin="round" stroke-miterlimit="10" stroke-width="2.5"/><text fill="rgb(46,125,50)" stroke="none" font-family="geogebra-sans-serif, sans-serif" font-size="16px" font-style="normal" font-weight="normal" text-decoration="normal" x="385" y="166" text-anchor="start" dominant-baseline="alphabetic" fill-opacity="1">v</text><text fill="none" stroke="rgb(255,255,255)" font-family="geogebra-sans-serif, sans-serif" font-size="16px" font-style="normal" font-weight="normal" text-decoration="normal" x="385" y="166" text-anchor="start" dominant-baseline="alphabetic" stroke-opacity="1" stroke-linejoin="bevel" stroke-miterlimit="10" stroke-width="3">v</text><text fill="rgb(46,125,50)" stroke="none" font-family="geogebra-sans-serif, sans-serif" font-size="16px" font-style="normal" font-weight="normal" text-decoration="normal" x="385" y="166" text-anchor="start" dominant-baseline="alphabetic" fill-opacity="1">v</text><path fill="none" stroke="rgb(0,0,0)" paint-order="fill stroke markers" d=" M 561.5639127194411 634 L 561.5639127194411 -5" stroke-opacity="0.24705882352941178" stroke-linejoin="round" stroke-miterlimit="10" stroke-dasharray="9,8"/><path fill="none" stroke="rgb(0,0,0)" paint-order="fill stroke markers" d=" M -5 542.5823376537365 L 895 542.5823376537365" stroke-opacity="0.24705882352941178" stroke-linejoin="round" stroke-miterlimit="10" stroke-dasharray="9,8"/><path fill="none" stroke="rgb(0,0,0)" paint-order="fill stroke markers" d=" M -5 97.98917440231455 L 895 97.98917440231455" stroke-opacity="0.24705882352941178" stroke-linejoin="round" stroke-miterlimit="10" stroke-dasharray="9,8"/><path fill="none" stroke="rgb(0,0,0)" paint-order="fill stroke markers" d=" M 450.4156219065859 634 L 450.4156219065859 -5" stroke-opacity="0.24705882352941178" stroke-linejoin="round" stroke-miterlimit="10" stroke-dasharray="9,8"/><path fill="rgb(97,97,97)" stroke="none" paint-order="stroke fill markers" d=" M 341.26733109373066 97.98917440231455 C 341.26733109373066 99.09374390197613 340.37190059339224 99.98917440231455 339.26733109373066 99.98917440231455 C 338.1627615940691 99.98917440231455 337.26733109373066 99.09374390197613 337.26733109373066 97.98917440231455 C 337.26733109373066 96.88460490265295 338.1627615940691 95.98917440231455 339.26733109373066 95.98917440231455 C 340.37190059339224 95.98917440231455 341.26733109373066 96.88460490265295 341.26733109373066 97.98917440231455 Z" fill-opacity="1"/><path fill="none" stroke="rgb(0,0,0)" paint-order="fill stroke markers" d=" M 341.26733109373066 97.98917440231455 C 341.26733109373066 99.09374390197613 340.37190059339224 99.98917440231455 339.26733109373066 99.98917440231455 C 338.1627615940691 99.98917440231455 337.26733109373066 99.09374390197613 337.26733109373066 97.98917440231455 C 337.26733109373066 96.88460490265295 338.1627615940691 95.98917440231455 339.26733109373066 95.98917440231455 C 340.37190059339224 95.98917440231455 341.26733109373066 96.88460490265295 341.26733109373066 97.98917440231455 Z" stroke-opacity="1" stroke-linecap="round" stroke-linejoin="round" stroke-miterlimit="10"/><g transform="scale(19,19)"><g transform="translate(16.736842105263158,4.430842105263158)"><path fill="rgb(97,97,97)" stroke="none" paint-order="stroke fill markers" d=" M 0.23900000000000002 -0.683 L 0.165 -0.382 Q 0.223 -0.442 0.28200000000000003 -0.442 Q 0.357 -0.442 0.394 -0.373 Q 0.41500000000000004 -0.333 0.41500000000000004 -0.28200000000000003 Q 0.41500000000000004 -0.176 0.341 -0.084 Q 0.272 0.001 0.189 0.01 Q 0.181 0.011 0.17400000000000002 0.011 Q 0.10200000000000001 0.011 0.067 -0.056 Q 0.047 -0.094 0.047 -0.146 Q 0.047 -0.18 0.063 -0.247 L 0.145 -0.5730000000000001 Q 0.159 -0.632 0.159 -0.635 Q 0.159 -0.646 0.145 -0.649 L 0.145 -0.649 Q 0.133 -0.652 0.109 -0.652 Q 0.08700000000000001 -0.652 0.085 -0.664 Q 0.085 -0.681 0.10400000000000001 -0.684 L 0.226 -0.6940000000000001 Q 0.23900000000000002 -0.6940000000000001 0.23900000000000002 -0.683 M 0.145 -0.305 L 0.123 -0.213 Q 0.107 -0.15 0.107 -0.112 Q 0.107 -0.026000000000000002 0.159 -0.013000000000000001 Q 0.166 -0.011 0.17400000000000002 -0.011 Q 0.227 -0.011 0.273 -0.081 Q 0.28300000000000003 -0.096 0.292 -0.114 Q 0.319 -0.171 0.337 -0.268 Q 0.343 -0.303 0.343 -0.326 Q 0.343 -0.406 0.294 -0.418 L 0.293 -0.419 Q 0.28700000000000003 -0.42 0.28 -0.42 Q 0.22 -0.42 0.16 -0.34 Q 0.152 -0.33 0.145 -0.305 Z"/></g></g><path fill="rgb(97,97,97)" stroke="none" paint-order="stroke fill markers" d=" M 452.4156219065859 320.28575602802556 C 452.4156219065859 321.39032552768714 451.5201914062475 322.28575602802556 450.4156219065859 322.28575602802556 C 449.3110524069243 322.28575602802556 448.4156219065859 321.39032552768714 448.4156219065859 320.28575602802556 C 448.4156219065859 319.181186528364 449.3110524069243 318.28575602802556 450.4156219065859 318.28575602802556 C 451.5201914062475 318.28575602802556 452.4156219065859 319.181186528364 452.4156219065859 320.28575602802556 Z" fill-opacity="1"/><path fill="none" stroke="rgb(0,0,0)" paint-order="fill stroke markers" d=" M 452.4156219065859 320.28575602802556 C 452.4156219065859 321.39032552768714 451.5201914062475 322.28575602802556 450.4156219065859 322.28575602802556 C 449.3110524069243 322.28575602802556 448.4156219065859 321.39032552768714 448.4156219065859 320.28575602802556 C 448.4156219065859 319.181186528364 449.3110524069243 318.28575602802556 450.4156219065859 318.28575602802556 C 451.5201914062475 318.28575602802556 452.4156219065859 319.181186528364 452.4156219065859 320.28575602802556 Z" stroke-opacity="1" stroke-linecap="round" stroke-linejoin="round" stroke-miterlimit="10"/><g transform="scale(19,19)"><g transform="translate(24.19052720062526,15.062421052631578)"><path fill="rgb(97,97,97)" stroke="none" paint-order="stroke fill markers" d=" M 0.23900000000000002 -0.683 L 0.165 -0.382 Q 0.223 -0.442 0.28200000000000003 -0.442 Q 0.357 -0.442 0.394 -0.373 Q 0.41500000000000004 -0.333 0.41500000000000004 -0.28200000000000003 Q 0.41500000000000004 -0.176 0.341 -0.084 Q 0.272 0.001 0.189 0.01 Q 0.181 0.011 0.17400000000000002 0.011 Q 0.10200000000000001 0.011 0.067 -0.056 Q 0.047 -0.094 0.047 -0.146 Q 0.047 -0.18 0.063 -0.247 L 0.145 -0.5730000000000001 Q 0.159 -0.632 0.159 -0.635 Q 0.159 -0.646 0.145 -0.649 L 0.145 -0.649 Q 0.133 -0.652 0.109 -0.652 Q 0.08700000000000001 -0.652 0.085 -0.664 Q 0.085 -0.681 0.10400000000000001 -0.684 L 0.226 -0.6940000000000001 Q 0.23900000000000002 -0.6940000000000001 0.23900000000000002 -0.683 M 0.145 -0.305 L 0.123 -0.213 Q 0.107 -0.15 0.107 -0.112 Q 0.107 -0.026000000000000002 0.159 -0.013000000000000001 Q 0.166 -0.011 0.17400000000000002 -0.011 Q 0.227 -0.011 0.273 -0.081 Q 0.28300000000000003 -0.096 0.292 -0.114 Q 0.319 -0.171 0.337 -0.268 Q 0.343 -0.303 0.343 -0.326 Q 0.343 -0.406 0.294 -0.418 L 0.293 -0.419 Q 0.28700000000000003 -0.42 0.28 -0.42 Q 0.22 -0.42 0.16 -0.34 Q 0.152 -0.33 0.145 -0.305 Z"/></g><rect fill="rgb(97,97,97)" stroke="none" x="23.905027200625263" y="15.468929552631577" width="0.9999999999999999" height="0.039999"/><g transform="translate(23.905027200625263,16.424880052631575)"><path fill="rgb(97,97,97)" stroke="none" paint-order="stroke fill markers" d=" M 0.29 -0.352 L 0.29 -0.352 Q 0.39 -0.332 0.434 -0.254 Q 0.457 -0.215 0.457 -0.171 Q 0.457 -0.08600000000000001 0.387 -0.028 Q 0.326 0.022 0.244 0.022 Q 0.145 0.022 0.085 -0.037 Q 0.042 -0.079 0.042 -0.135 Q 0.042 -0.182 0.084 -0.191 Q 0.091 -0.193 0.098 -0.193 Q 0.136 -0.193 0.149 -0.161 Q 0.153 -0.148 0.154 -0.137 Q 0.154 -0.097 0.11800000000000001 -0.085 Q 0.10400000000000001 -0.08 0.088 -0.082 Q 0.125 -0.02 0.216 -0.008 Q 0.229 -0.006 0.241 -0.006 Q 0.305 -0.006 0.335 -0.069 Q 0.354 -0.109 0.354 -0.171 Q 0.354 -0.304 0.274 -0.331 Q 0.256 -0.337 0.23500000000000001 -0.337 L 0.191 -0.337 Q 0.169 -0.337 0.167 -0.34800000000000003 Q 0.167 -0.358 0.182 -0.36 Q 0.197 -0.36 0.221 -0.363 Q 0.272 -0.365 0.301 -0.402 L 0.301 -0.403 L 0.302 -0.404 L 0.303 -0.405 L 0.304 -0.405 L 0.31 -0.41500000000000004 Q 0.338 -0.462 0.338 -0.529 Q 0.338 -0.622 0.266 -0.638 Q 0.254 -0.641 0.242 -0.641 Q 0.17200000000000001 -0.641 0.128 -0.601 Q 0.117 -0.591 0.109 -0.579 Q 0.171 -0.579 0.171 -0.529 Q 0.171 -0.493 0.14 -0.481 Q 0.131 -0.47800000000000004 0.12 -0.47800000000000004 Q 0.081 -0.47800000000000004 0.07100000000000001 -0.513 L 0.07100000000000001 -0.513 L 0.07100000000000001 -0.514 Q 0.069 -0.522 0.069 -0.53 Q 0.069 -0.597 0.135 -0.637 Q 0.183 -0.666 0.246 -0.666 Q 0.337 -0.666 0.393 -0.612 L 0.395 -0.61 Q 0.43 -0.5740000000000001 0.43 -0.528 Q 0.43 -0.445 0.359 -0.389 Q 0.328 -0.365 0.29 -0.352 Z"/></g><g transform="translate(24.405027200625263,16.424880052631575)"><path fill="rgb(97,97,97)" stroke="none" paint-order="stroke fill markers" d=" M 0.449 -0.17400000000000002 L 0.449 -0.17400000000000002 L 0.421 0 L 0.05 0 Q 0.05 -0.025 0.056 -0.032 L 0.061 -0.037 L 0.253 -0.251 Q 0.358 -0.369 0.358 -0.47200000000000003 Q 0.358 -0.561 0.304 -0.607 L 0.303 -0.608 L 0.302 -0.608 Q 0.27 -0.635 0.224 -0.635 Q 0.152 -0.635 0.109 -0.5730000000000001 Q 0.097 -0.555 0.089 -0.533 Q 0.092 -0.534 0.10200000000000001 -0.534 Q 0.14200000000000002 -0.534 0.153 -0.498 L 0.153 -0.497 Q 0.155 -0.49 0.155 -0.482 Q 0.155 -0.442 0.117 -0.431 Q 0.109 -0.429 0.10300000000000001 -0.429 Q 0.066 -0.429 0.054 -0.46 Q 0.05 -0.47100000000000003 0.05 -0.485 Q 0.05 -0.562 0.109 -0.617 Q 0.162 -0.666 0.23700000000000002 -0.666 Q 0.34700000000000003 -0.666 0.40800000000000003 -0.592 Q 0.443 -0.549 0.448 -0.49 Q 0.449 -0.481 0.449 -0.47200000000000003 Q 0.449 -0.399 0.394 -0.333 Q 0.365 -0.299 0.304 -0.243 L 0.243 -0.189 L 0.233 -0.18 L 0.127 -0.077 L 0.307 -0.077 Q 0.395 -0.077 0.402 -0.085 Q 0.41200000000000003 -0.099 0.424 -0.17400000000000002 L 0.449 -0.17400000000000002 Z"/></g></g><path fill="rgb(97,97,97)" stroke="none" paint-order="stroke fill markers" d=" M 563.5639127194411 320.28575602802556 C 563.5639127194411 321.39032552768714 562.6684822191027 322.28575602802556 561.5639127194411 322.28575602802556 C 560.4593432197795 322.28575602802556 559.5639127194411 321.39032552768714 559.5639127194411 320.28575602802556 C 559.5639127194411 319.181186528364 560.4593432197795 318.28575602802556 561.5639127194411 318.28575602802556 C 562.6684822191027 318.28575602802556 563.5639127194411 319.181186528364 563.5639127194411 320.28575602802556 Z" fill-opacity="1"/><path fill="none" stroke="rgb(0,0,0)" paint-order="fill stroke markers" d=" M 563.5639127194411 320.28575602802556 C 563.5639127194411 321.39032552768714 562.6684822191027 322.28575602802556 561.5639127194411 322.28575602802556 C 560.4593432197795 322.28575602802556 559.5639127194411 321.39032552768714 559.5639127194411 320.28575602802556 C 559.5639127194411 319.181186528364 560.4593432197795 318.28575602802556 561.5639127194411 318.28575602802556 C 562.6684822191027 318.28575602802556 563.5639127194411 319.181186528364 563.5639127194411 320.28575602802556 Z" stroke-opacity="1" stroke-linecap="round" stroke-linejoin="round" stroke-miterlimit="10"/><g transform="scale(19,19)"><g transform="translate(28.716842990098947,17.95715789473684)"><path fill="rgb(97,97,97)" stroke="none" paint-order="stroke fill markers" d=" M 0.23900000000000002 -0.683 L 0.165 -0.382 Q 0.223 -0.442 0.28200000000000003 -0.442 Q 0.357 -0.442 0.394 -0.373 Q 0.41500000000000004 -0.333 0.41500000000000004 -0.28200000000000003 Q 0.41500000000000004 -0.176 0.341 -0.084 Q 0.272 0.001 0.189 0.01 Q 0.181 0.011 0.17400000000000002 0.011 Q 0.10200000000000001 0.011 0.067 -0.056 Q 0.047 -0.094 0.047 -0.146 Q 0.047 -0.18 0.063 -0.247 L 0.145 -0.5730000000000001 Q 0.159 -0.632 0.159 -0.635 Q 0.159 -0.646 0.145 -0.649 L 0.145 -0.649 Q 0.133 -0.652 0.109 -0.652 Q 0.08700000000000001 -0.652 0.085 -0.664 Q 0.085 -0.681 0.10400000000000001 -0.684 L 0.226 -0.6940000000000001 Q 0.23900000000000002 -0.6940000000000001 0.23900000000000002 -0.683 M 0.145 -0.305 L 0.123 -0.213 Q 0.107 -0.15 0.107 -0.112 Q 0.107 -0.026000000000000002 0.159 -0.013000000000000001 Q 0.166 -0.011 0.17400000000000002 -0.011 Q 0.227 -0.011 0.273 -0.081 Q 0.28300000000000003 -0.096 0.292 -0.114 Q 0.319 -0.171 0.337 -0.268 Q 0.343 -0.303 0.343 -0.326 Q 0.343 -0.406 0.294 -0.418 L 0.293 -0.419 Q 0.28700000000000003 -0.42 0.28 -0.42 Q 0.22 -0.42 0.16 -0.34 Q 0.152 -0.33 0.145 -0.305 Z"/></g><rect fill="rgb(97,97,97)" stroke="none" x="28.431342990098948" y="18.363666394736843" width="0.9999999999999999" height="0.039999"/><g transform="translate(28.431342990098948,19.319616894736843)"><path fill="rgb(97,97,97)" stroke="none" paint-order="stroke fill markers" d=" M 0.294 -0.64 L 0.294 -0.079 Q 0.294 -0.049 0.306 -0.041 Q 0.323 -0.031 0.387 -0.031 L 0.419 -0.031 L 0.419 0 Q 0.384 -0.003 0.257 -0.003 Q 0.13 -0.003 0.095 0 L 0.095 -0.031 L 0.127 -0.031 Q 0.20400000000000001 -0.031 0.215 -0.049 L 0.216 -0.05 Q 0.22 -0.058 0.22 -0.079 L 0.22 -0.597 Q 0.168 -0.5710000000000001 0.089 -0.5710000000000001 L 0.089 -0.602 Q 0.209 -0.602 0.271 -0.666 Q 0.29 -0.666 0.293 -0.659 L 0.293 -0.659 L 0.293 -0.658 Q 0.294 -0.655 0.294 -0.64 Z"/></g><g transform="translate(28.931342990098948,19.319616894736843)"><path fill="rgb(97,97,97)" stroke="none" paint-order="stroke fill markers" d=" M 0.132 -0.328 L 0.132 -0.328 Q 0.17300000000000001 -0.427 0.257 -0.427 Q 0.34900000000000003 -0.427 0.40800000000000003 -0.35100000000000003 Q 0.441 -0.31 0.452 -0.255 Q 0.457 -0.23 0.457 -0.20400000000000001 Q 0.457 -0.093 0.38 -0.026000000000000002 Q 0.324 0.022 0.251 0.022 Q 0.149 0.022 0.092 -0.075 Q 0.042 -0.162 0.042 -0.316 Q 0.042 -0.489 0.14 -0.591 Q 0.213 -0.666 0.305 -0.666 Q 0.392 -0.666 0.422 -0.605 Q 0.432 -0.584 0.432 -0.558 Q 0.432 -0.518 0.395 -0.511 Q 0.39 -0.51 0.386 -0.51 Q 0.354 -0.51 0.343 -0.538 Q 0.34 -0.546 0.34 -0.556 Q 0.34 -0.601 0.395 -0.601 Q 0.369 -0.641 0.307 -0.641 Q 0.23700000000000002 -0.641 0.189 -0.578 Q 0.132 -0.503 0.132 -0.352 L 0.132 -0.328 M 0.251 -0.006 L 0.251 -0.006 Q 0.318 -0.006 0.35000000000000003 -0.07100000000000001 Q 0.367 -0.107 0.367 -0.20500000000000002 Q 0.367 -0.305 0.34900000000000003 -0.342 Q 0.318 -0.404 0.256 -0.404 Q 0.177 -0.404 0.147 -0.31 Q 0.134 -0.271 0.134 -0.226 Q 0.134 -0.128 0.152 -0.081 Q 0.171 -0.035 0.211 -0.015 Q 0.23 -0.006 0.251 -0.006 Z"/></g></g><path fill="rgb(97,97,97)" stroke="none" paint-order="stroke fill markers" d=" M 341.26733109373066 542.5823376537365 C 341.26733109373066 543.6869071533981 340.37190059339224 544.5823376537365 339.26733109373066 544.5823376537365 C 338.1627615940691 544.5823376537365 337.26733109373066 543.6869071533981 337.26733109373066 542.5823376537365 C 337.26733109373066 541.477768154075 338.1627615940691 540.5823376537365 339.26733109373066 540.5823376537365 C 340.37190059339224 540.5823376537365 341.26733109373066 541.477768154075 341.26733109373066 542.5823376537365 Z" fill-opacity="1"/><path fill="none" stroke="rgb(0,0,0)" paint-order="fill stroke markers" d=" M 341.26733109373066 542.5823376537365 C 341.26733109373066 543.6869071533981 340.37190059339224 544.5823376537365 339.26733109373066 544.5823376537365 C 338.1627615940691 544.5823376537365 337.26733109373066 543.6869071533981 337.26733109373066 542.5823376537365 C 337.26733109373066 541.477768154075 338.1627615940691 540.5823376537365 339.26733109373066 540.5823376537365 C 340.37190059339224 540.5823376537365 341.26733109373066 541.477768154075 341.26733109373066 542.5823376537365 Z" stroke-opacity="1" stroke-linecap="round" stroke-linejoin="round" stroke-miterlimit="10"/><g transform="scale(19,19)"><g transform="translate(15.263157894736842,28.115052631578948)"><path fill="rgb(97,97,97)" stroke="none" paint-order="stroke fill markers" d=" M 0.661 -0.23 L 0.116 -0.23 Q 0.084 -0.23 0.083 -0.25 Q 0.083 -0.27 0.116 -0.27 L 0.661 -0.27 Q 0.6930000000000001 -0.27 0.6940000000000001 -0.25 Q 0.6940000000000001 -0.23 0.661 -0.23 Z"/></g><g transform="translate(16.04115789473684,28.115052631578948)"><path fill="rgb(97,97,97)" stroke="none" paint-order="stroke fill markers" d=" M 0.23900000000000002 -0.683 L 0.165 -0.382 Q 0.223 -0.442 0.28200000000000003 -0.442 Q 0.357 -0.442 0.394 -0.373 Q 0.41500000000000004 -0.333 0.41500000000000004 -0.28200000000000003 Q 0.41500000000000004 -0.176 0.341 -0.084 Q 0.272 0.001 0.189 0.01 Q 0.181 0.011 0.17400000000000002 0.011 Q 0.10200000000000001 0.011 0.067 -0.056 Q 0.047 -0.094 0.047 -0.146 Q 0.047 -0.18 0.063 -0.247 L 0.145 -0.5730000000000001 Q 0.159 -0.632 0.159 -0.635 Q 0.159 -0.646 0.145 -0.649 L 0.145 -0.649 Q 0.133 -0.652 0.109 -0.652 Q 0.08700000000000001 -0.652 0.085 -0.664 Q 0.085 -0.681 0.10400000000000001 -0.684 L 0.226 -0.6940000000000001 Q 0.23900000000000002 -0.6940000000000001 0.23900000000000002 -0.683 M 0.145 -0.305 L 0.123 -0.213 Q 0.107 -0.15 0.107 -0.112 Q 0.107 -0.026000000000000002 0.159 -0.013000000000000001 Q 0.166 -0.011 0.17400000000000002 -0.011 Q 0.227 -0.011 0.273 -0.081 Q 0.28300000000000003 -0.096 0.292 -0.114 Q 0.319 -0.171 0.337 -0.268 Q 0.343 -0.303 0.343 -0.326 Q 0.343 -0.406 0.294 -0.418 L 0.293 -0.419 Q 0.28700000000000003 -0.42 0.28 -0.42 Q 0.22 -0.42 0.16 -0.34 Q 0.152 -0.33 0.145 -0.305 Z"/></g></g></g></g></svg>